v 126.135 2.13494 99.1981
v 126.137 2.02459 99.1631
v 127.136 2.01197 99.2018
v 127.135 2.12235 99.2369
v 124.868 2.1727 99.1081
v 123.203 2.24823 98.9195
v 123.208 2.13819 98.8848
v 124.871 2.06246 0.387005
v 128.003 2.01197 0.387549
v 128.003 2.12234 0.387686
v 128.003 3.05615 0.381113
v 128.003 2.58142 97.4194
v 127.18 2.58142 97.4093
v 127.176 3.05615 97.5547
v 126.232 2.59581 97.3726
v 126.224 3.07039 97.5178
v 125.031 2.63895 97.2872
v 123.452 2.72524 2.41457e+07
v -4.41587e-13 nan 1.36714e+10
v -2.67291e-20 9.44053e+30 8.76583e+09
v -2.38431e+24 6.47566e+25 3.89627e+30
v -2.76597e-06 -2.70491e+12 0.000213636
v 3.2064e-21 -3.94528e+12 3.20636e-21
v 3.78717e+19 -3.93432e+12 -2.24161e-13
v 3.78717e+19 -1.12711e-37 -5.00997e-07
v 4.40297e-26 -1.46182e-36 0.000460358
v 3.2064e-21 -7.92343e-38 -3.32642e-10
v 3.2064e-21 -9.13035e-38 -3.73733e-10
v 4.4585e-26 -2.25159e-36 -2.63694e-13
v 4.51396e-26 -3.15898e-36 -1.18031e-06
v 5.57668e-27 -8.85519e-33 -6.83944e-07
v 2.21119e-26 -6.46261e-35 -4.72927e-10
v 2.32218e-26 -1.22455e-34 -8.73062e-10
v 6.27038e-27 -2.29318e-32 -6.8762e-13
v 7.46563e-27 -6.33093e-32 -3.63086e-13
v 2.43317e-26 -2.31315e-34 -3.874e-19
v 1.02397e-26 -4.46229e-31 -5.10405e-16
v 8.85265e-27 -1.68393e-31 -2.61606e-16
v 2.54413e-26 -4.35441e-34 -1.90755e-19
v 2.72522e-26 -8.16528e-34 -1.37564e-19
v 4.62495e-26 -6.95971e-36 -1.90322e-16
v 4.56942e-26 -4.82405e-36 -1.68174e-16
v 3.2064e-21 -1.3685e-37 1.79205e-21
v 3.78717e+19 -3.04108e-15 -6.63041e-16
v 1.03096e-11 -8.66387e+06 -6.63041e-16
v 8.31804e-14 -4.04098e+06 -5.72117e+37
v 8.32151e-14 -3.9467e+06 -5.60577e+37
v 1.0314e-11 -8.33642e+06 -2.98283e+36
v 2.07592e-13 -3.60347e+06 -2.82739e+36
v 2.53914e-11 -7.64483e+06 -7.34074e+34
v 3.47801e-12 -2.80546e+06 -5.6171e+32
v 1.00972e-09 -1.61588e+06 -5.12866e+32
v 1.00765e-07 -3.43234e+06 -6.93256e+34
v 4.02041e-10 -6.03677e+06 -4.91761e+36
v 1.35767e+08 -253.345 -4.87096e+36
v 0.01228 -335.549 -7.12283e+37
v 0.00349249 -373.666 -7.15736e+37
v 4.08517e+07 -288.705 -1.65297e+35
v 5.98531e+09 -209.134 -2.08133e+33
v 1.01834e+13 -122.288 -2.02271e+33
v 831.598 -158.673 -1.62848e+35
v 0.480654 3.92897 97.4093
v 0.00349142 6.00223 97.4093
v 4.08292e+07 -299.158 -3.0135e+36
v 3.83724e-15 -3.14811e+06 -5.74401e+37
v 1.51984e-15 -3.49083e+06 -5.71317e+32
v 2.03687e-11 -1.38996e+06 -7.42111e+34
v 6.74534e-14 -2.35118e+06 97.4093
v 1.5193e-15 -3.58491e+06 -5.61417e-07
v 6.30462e-26 -1.45679e-36 -4.82793e-07
v 8.02007e-26 -7.90879e-38 -1.30019e-06
v 7.96853e-27 -8.74873e-33 -7.44218e-07
v 3.16398e-26 -6.40839e-35 -4.69039e-07
v 8.02007e-26 -3.94528e+12 -0.0117154
v 6.56346e-15 -3.94528e+12 -0.0010345
v 6.56346e-15 -3.94528e+12 -0.00107539
v 6.56357e-15 -6.62884e-38 -0.0120345
v 6.56335e-15 -6.23179e-38 -0.0012245
v 5.0754e-15 -1.01536e-36 -0.0131975
v 4.97912e-15 -8.78458e-37 -0.00157119
v 2.08168e-15 -3.23887e-35 -0.00264098
v 3.68271e-16 -2.9427e-33 -0.0275065
v 3.08288e-16 -2.22127e-33 -0.0161802
v 1.88967e-15 -2.50301e-35 -0.000262329
v 5.25442e-19 -3.94528e+12 -0.000213727
v 5.87942e-21 -3.94528e+12 -0.00021892
v 5.87942e-21 -6.89516e-38 -0.000272693
v 5.25442e-19 -6.85785e-38 -0.000237868
v 4.5216e-21 -1.10724e-36 -0.000310497
v 3.92112e-19 -1.09434e-36 -0.000319706
v 1.91804e-21 -3.73273e-35 -0.000520099
v 3.65829e-22 -3.77204e-33 -0.000676666
v 3.19418e-20 -3.63635e-33 -0.000398414
v 1.73292e-19 -3.66345e-35 -0.00108782
v 5.2366e-16 -1.02094e-36 -0.000957567
v 7.09194e-16 -6.64491e-38 -0.00143487
v 2.13806e-16 -3.26885e-35 -0.00236984
v 3.93864e-17 -2.97208e-33 -0.000937108
v 7.09194e-16 -3.94528e+12 -4.98761e+36
v 8.62317e+06 -189.751 -7.20941e+37
v 2.5549e+06 -208.688 -2.16924e+33
v 7.228e+11 -90.7427 -1.71793e+35
v 3.91072e+08 2.27663 97.4093
v 2.55336e+06 -213.892 -0.000599463
v 1.45023e-16 -3.94528e+12 -0.000389501
v 1.33427e-17 -3.94528e+12 -0.000399828
v 1.33427e-17 -6.79773e-38 -0.000620011
v 1.45023e-16 -6.72469e-38 -0.0004375
v 1.0516e-17 -1.07363e-36 -0.000695009
v 1.05131e-16 -1.04847e-36 -0.000561897
v 4.48697e-18 -3.55207e-35 -0.000928644
v 8.01813e-19 -3.41789e-33 -0.00149245
v 8.2059e-18 -3.1527e-33 -0.000869397
v 4.59848e-17 -2.52116e-15 -6.6273e-16
v 1.51745e-23 4.9971 97.4194
v 1.76082e-13 4.9971 -6.52266e+37
v 1.76145e-13 4.82657 -6.52266e+37
v 1.51818e-23 4.82657 -4.06254e+36
v 5.24084e-13 4.20572 -4.06254e+36
v 4.63288e-23 4.20572 -1.20413e+35
v 1.42735e-11 -13848.6 -1.15258e+33
v 1.17744e-08 -7925.28 -1.15258e+33
v 1.02179e-18 -7925.28 -1.20412e+35
v 1.32091e-21 -13848.6 -6.40413e-35
v 4.99469e-26 -4.46499e-35 -5.73043e-35
v 5.43774e-27 -4.48284e-35 -4.62941e-35
v 5.76364e-27 -3.69995e-37 -5.11843e-35
v 3.78666e+19 -3.69351e-37 -9.394e-35
v 4.20394e-26 -1.96269e-32 -2.40948e-34
v 2.62275e-26 -5.42145e-29 -2.14212e-34
v 2.86792e-27 -5.51775e-29 -8.72191e-35
v 4.45985e-27 -1.97804e-32 -4.45309e-35
v 5.76364e-27 -3.94528e+12 -4.79043e-35
v 3.78666e+19 -3.94533e+12 -4.7371e-37
v 6.5541e-13 -3.94533e+12 -3.15489e-37
v 3.93974e-17 -3.94533e+12 -3.29666e-37
v 3.93974e-17 -4.30042e-37 -5.0201e-37
v 6.55424e-13 -4.2467e-37 -3.86653e-37
v 3.81599e-17 -5.97757e-35 -6.05233e-37
v 6.33081e-13 -5.82931e-35 -6.27262e-37
v 3.44507e-17 -3.06187e-32 -1.51465e-36
v 2.73919e-17 -1.07945e-28 -2.38209e-36
v 4.4339e-13 -1.00462e-28 -9.38243e-37
v 5.66079e-13 -2.93443e-32 -7.30398e+34
v 1.43037e-20 -1.04856e+37 -7.81776e+34
v 8.57539e-32 -2.17619e+36 -1.01766e+37
v 8.26514e-32 -2.53843e+36 -9.87157e+36
v 1.36999e-20 -1.32625e+37 -1.42611e+32
v 1.61161e-20 -7.08461e+36 -3.82433e+28
v 1.97395e-20 -2.64962e+36 -4.94792e+28
v 1.2874e-31 -5.57241e+35 -1.59467e+32
v 9.50601e-32 -1.3339e+36 97.4194
v 8.26451e-32 -2.63786e+36 97.4194
v 1.36973e-20 -1.40654e+37 97.4194
v -8.53096e+37 -1.49321e+32 97.4194
v -2.09822e-13 -3.68983e+19 -1.88702e+37
v -4.2368e+12 -7.18039e+25 -1.35436e+35
v -1.1529e+38 -1.2275e+32 -1.34105e+37
v -8.56969e+37 -1.43599e+32 -1.61403e+37
v -1.90238e+25 -1.04031e+29 -1.96654e+35
v -2.61833e+25 -8.45819e+28 -2.8859e+35
v -5.94669e+12 -6.27523e+25 -1.86036e+29
v 2.85811e-39 -3.37606e+31 -3.96658e+32
v -2.38016e+38 -7.77021e+31 -7.47523e+32
v -5.856e+25 -5.92933e+28 -5.0632e+29
v -2.83782e+26 -2.57841e+28 -1.29466e+30
v -8.31404e+13 -1.87529e+25 -1.40342e+33
v -1.43251e+13 -4.17047e+25 -9.47492e+30
v -6.82723e-12 -1.11921e+19 -3.66339e+30
v -24.465 -1.48872e+22 -2.62358e+33
v -3.48671 -3.13435e+22 -5.03655e+33
v -8.45008e-13 -2.28852e+19 -6.12613e+35
v -3.06722e-13 -3.19352e+19 -4.28752e+35
v -1.35053 -4.44523e+22 -2.19324e+37
v -0.94315 -5.28583e+22 -2.73921e+37
v -2.09857e-13 -3.58274e+19 -2.54586e-32
v 8.02007e-26 -3.94528e+12 -1.18746e-32
v 1.07052e-25 -3.94528e+12 -1.23109e-32
v 1.07052e-25 -3.3271e-37 -2.71957e-32
v 8.02007e-26 -3.27607e-37 -1.54801e-32
v 9.67321e-26 -3.45421e-35 -3.35339e-32
v 7.12598e-26 -3.31337e-35 -2.28841e-32
v 7.12535e-26 -1.16303e-32 -5.49315e-32
v 3.60007e-26 -2.51631e-29 -1.19294e-31
v 2.35472e-26 -2.3263e-29 -4.82718e-32
v 4.80671e-26 -1.10245e-32 -1.14115e-36
v 3.30248e-12 -5.59774e-35 -1.39056e-36
v 6.35421e-15 -5.51325e-35 -1.18512e-36
v 6.56335e-15 -4.13205e-37 -9.35442e-37
v 3.40485e-12 -4.1627e-37 -1.73437e-36
v 2.99551e-12 -2.73529e-32 -4.46525e-36
v 2.38144e-12 -9.42153e-29 -5.45496e-36
v 4.47204e-15 -9.19335e-29 -2.23189e-36
v 5.72689e-15 -2.66262e-32 -1.1288e-36
v 6.56325e-15 -3.94528e+12 -8.79049e-37
v 3.40485e-12 -3.94528e+12 -1.28033e-32
v 6.90495e+19 -3.48196e-35 -1.09711e-32
v 3.78717e+19 -3.33718e-37 -4.68063e-32
v 1.82058e-26 -2.58292e-29 -2.02141e-32
v 3.57735e-26 -1.17493e-32 -1.05345e-32
v 3.2064e-21 -3.94528e+12 -1.34878e+35
v -3.22848e+38 -1.3303e+32 -1.33774e+37
v -2.64004e+38 -1.53891e+32 -1.83303e+29
v 1.18175e-38 -3.63102e+31 -3.93004e+32
v -nan -8.45272e+31 97.4194
v -2.63956e+38 -1.59616e+32 97.4194
v 1.92479e-19 -3.98689e+36 97.4194
v 1.57713e-21 -3.52065e+35 -1.05583e+37
v 1.57728e-21 -3.29905e+35 -1.01094e+37
v 1.92486e-19 -3.78764e+36 -8.6135e+34
v 1.65003e-21 -2.85162e+35 -7.70456e+34
v 1.98868e-19 -3.06169e+36 -1.98844e+32
v 2.04248e-21 -1.81113e+35 -6.52509e+28
v 2.91536e-21 -7.38993e+34 -4.67023e+28
v 2.95795e-19 -7.89072e+35 -1.55753e+32
v 2.19198e-19 -2.016e+36 97.4194
v 7.9967e-27 -8.92762e+34 97.4194
v 5.6077e-29 -7.2733e+34 -1.1085e+37
v 5.6085e-29 -6.96907e+34 -1.10006e+37
v 7.99792e-27 -8.31864e+34 -9.62787e+34
v 6.13343e-29 -5.86089e+34 -9.48564e+34
v 8.65366e-27 -7.20358e+34 -2.32125e+32
v 7.70869e-29 -3.71911e+34 -7.76968e+28
v 1.16207e-28 -1.54943e+34 -7.59523e+28
v 1.61848e-26 -1.88241e+34 -2.27455e+32
v 1.06207e-26 -4.62353e+34 -8.67485e+34
v 1.50027e-22 -2.61908e+35 -1.05766e+37
v 1.40819e-22 -3.06631e+35 -2.00864e+32
v 1.77657e-22 -1.62039e+35 -6.60052e+28
v 2.54069e-22 -6.81327e+34 97.4194
v 1.40802e-22 1.61004e+07 -7.67547e-37
v 3.30959e-12 -5.7244e-35 -6.56787e-37
v 3.40485e-12 -4.20862e-37 -2.99564e-36
v 2.45244e-12 -9.76343e-29 -1.24667e-36
v 3.02393e-12 -2.8443e-32 -6.28537e-37
v 3.40485e-12 -3.94528e+12 97.418
v 1.09155e-23 -2.04007e+35 97.418
v 4.12669e-25 -1.32551e+35 -1.0865e+37
v 4.12702e-25 -1.26449e+35 -1.06998e+37
v 1.09166e-23 -1.91766e+35 -9.2567e+34
v 4.5209e-25 -1.04212e+35 -8.97883e+34
v 1.15281e-23 -1.56665e+35 -2.19949e+32
v 5.72906e-25 -6.77879e+34 -7.31427e+28
v 8.14524e-25 -2.75975e+34 -6.97336e+28
v 2.08283e-23 -4.06068e+34 -2.10832e+32
v 1.34903e-23 -1.0482e+35 -6.0146e-35
v 1.83269e-23 -3.94528e+12 -6.01456e-35
v 5.87942e-21 -3.94528e+12 -6.36662e-35
v 5.87942e-21 -3.68147e-37 -6.36662e-35
v 1.83265e-23 -3.68147e-37 -7.651e-35
v 5.52704e-21 -4.43193e-35 -7.651e-35
v 1.695e-23 -4.43193e-35 -1.16453e-34
v 4.4699e-21 -1.93429e-32 -2.90425e-34
v 2.87204e-21 -5.24319e-29 -2.90425e-34
v 8.89891e-24 -5.24319e-29 -1.16454e-34
v 1.30277e-23 -1.93429e-32 -0.000294806
v 4.21703e-26 -1.09691e-36 -0.000328975
v 4.45837e-27 -1.09133e-36 -0.000416847
v 1.88717e-27 -3.64728e-35 -0.000382761
v 1.83912e-26 -3.67726e-35 -0.000256987
v 3.78666e+19 -6.86542e-38 -0.000246616
v 3.78666e+19 -3.94533e+12 -0.000280827
v 5.76364e-27 -3.94528e+12 -0.000291184
v 5.76364e-27 -6.8491e-38 -0.000713322
v 3.52333e-28 -3.60456e-33 -0.000645522
v 3.25092e-27 -3.66333e-33 -0.0471795
v 2.7189e-17 -8.05908e-37 -0.0301353
v 4.51474e-13 -8.29074e-37 -0.0397408
v 1.8402e-13 -2.32246e-35 -0.0578539
v 1.09535e-17 -2.26023e-35 -0.0425894
v 3.93957e-17 -6.02153e-38 -0.0413306
v 3.93957e-17 -3.94533e+12 -0.0271978
v 6.5541e-13 -3.94533e+12 -0.0278296
v 6.5541e-13 -6.08869e-38 -0.0621855
v 2.67855e-14 -1.96102e-33 -0.0979047
v 1.57631e-18 -1.839e-33 -2.91216e-09
v 7.45982e-28 -2.29529e-29 -3.46419e-06
v 5.72593e-28 -5.51059e-30 -2.18876e-05
v 1.40971e-29 -1.03669e-26 -2.03255e-08
v 2.4568e-29 -7.40666e-26 -1.88242e-11
v 4.48343e-29 -5.21598e-25 -2.38405e-12
v 1.03092e-27 -9.54526e-29 -0.00982291
v 2.24035e-35 -1.30269e-19 -0.000305066
v 5.69191e-32 -3.48977e-23 -3.44489e-07
v 1.64665e-31 -4.1566e-22 -1.37443e-05
v 1.39426e-34 -2.90354e-18 -2.00522e-08
v 7.96944e-34 -6.36177e-17 -3.8189e-10
v 4.67523e-31 -5.44608e-21 -4.07576e-14
v 2.97709e-32 -3.09963e-14 -2.75012e-11
v 4.99531e-33 -1.43733e-15 -4.17362e-13
v 1.34163e-30 -6.78656e-20 -4.57808e-16
v 3.83763e-30 -8.22419e-19 -1.59976e-17
v 1.44923e-28 -2.53858e-23 -1.7382e-14
v 8.10651e-29 -3.60531e-24 -1.56561e-18
v 1.83328e-27 -1.67195e-27 -1.8791e-15
v 1.37768e-27 -3.9638e-28 -1.22237e-06
v 8.76208e-26 -1.41278e-36 -1.58529e-06
v 4.32542e-26 -5.93526e-35 -1.06631e-06
v 1.07052e-25 -7.78109e-38 -1.02353e-06
v 1.07052e-25 -3.94528e+12 -2.78279e-06
v 1.05357e-26 -7.82113e-33 -0.0159498
v 2.589e-12 -8.65257e-37 -0.0213462
v 9.80251e-13 -2.43197e-35 -0.014627
v 3.40485e-12 -6.19348e-38 -0.014309
v 3.4049e-12 -3.94528e+12 -0.0340395
v 1.57656e-13 -2.15168e-33 -1.42947e-06
v 4.37354e-26 -1.40412e-36 -1.79184e-06
v 2.15234e-26 -5.84224e-35 -1.23092e-06
v 3.2064e-21 -3.94528e+12 -1.27361e-06
v 3.2064e-21 -7.75598e-38 -3.19375e-06
v 5.20878e-27 -7.63869e-33 -2.37516e-05
v 2.02089e-29 -1.01452e-26 -3.70144e-06
v 7.7342e-28 -5.43134e-30 -0.0107189
v 3.16474e-35 -1.24386e-19 -0.000334101
v 8.00574e-32 -3.3728e-23 -0.0386069
v 2.22043e-19 -1.26864e-27 -0.386873
v 1.22807e-19 -6.62486e-28 -0.0740571
v 1.33885e-17 -7.26705e-31 -0.00708142
v 2.03954e-17 -1.20217e-30 -0.441378
v 3.68582e-22 -2.33186e-24 -11.1929
v 3.21475e-21 -4.75962e-21 -96.5786
v 1.69291e-26 -1.63808e-21 -3.98036
v 1.52913e-22 -1.00162e-24 -0.00791341
v 3.12214e-25 -1.93021e-27 -0.0103479
v 2.51758e-23 -1.7888e-27 -0.00182358
v 1.94032e-21 -1.51234e-30 -0.00151376
v 2.27625e-23 -1.56292e-30 -0.100102
v 6.05121e-28 -4.01627e-24 -2.62453
v 1.0707e-31 -9.43115e-21 -3.20973
v 8.83236e-30 -8.49354e-21 -0.119065
v 4.78872e-26 -3.64317e-24 -0.0343897
v 2.45268e-20 -1.29926e-27 -0.00654486
v 2.15301e-18 -1.22408e-30 -0.408533
v 4.0839e-23 -2.41264e-24 -10.1795
v 6.00405e-27 -4.96259e-21 -0.0237128
v 2.58195e-12 -8.45443e-37 -0.0290896
v 9.66068e-13 -2.3665e-35 -0.0207669
v 3.4049e-12 -3.94528e+12 -0.0214005
v 3.40485e-12 -6.13608e-38 -0.0494425
v 1.53222e-13 -2.04735e-33 -0.0142658
v 6.26205e-22 -1.58843e-27 -0.0224181
v 5.75369e-21 -1.4503e-27 -0.00390174
v 4.59267e-19 -1.33212e-30 -0.00269128
v 4.81082e-20 -1.43095e-30 -0.174165
v 1.13122e-24 -3.1757e-24 -4.30301
v 1.86714e-28 -6.98435e-21 -6.58926
v 1.54681e-27 -5.96431e-21 -0.248246
v 1.00102e-23 -2.81124e-24 -0.000237868
v 1.31287e-23 -1.10724e-36 -0.000319706
v 5.8949e-24 -3.73273e-35 -0.000213728
v 1.83265e-23 -3.94528e+12 -0.00021892
v 1.83265e-23 -6.89516e-38 -0.000520099
v 1.13905e-24 -3.77204e-33 -2.57099e-32
v 5.39406e-27 -3.71148e-19 -2.35183e-32
v 5.87766e-28 -3.7936e-19 -1.28532e-33
v 1.42696e-27 -1.93175e-24 -1.39113e-33
v 1.2892e-26 -1.88586e-24 -1.92026e-30
v 1.84156e-27 -1.89773e-13 -5.33717e-28
v 6.09238e-28 -1.13262e-07 -4.82552e-28
v 6.70644e-29 -1.16832e-07 -1.71303e-30
v 1.96113e-28 -1.95324e-13 -1.93186e-34
v 1.35227e-17 -1.46492e-18 -3.01051e-34
v 2.06908e-13 -1.32842e-18 -1.45487e-35
v 3.31667e-13 -4.87455e-24 -9.86006e-36
v 2.12073e-17 -5.25593e-24 -1.67989e-32
v 8.88395e-18 -1.1069e-12 -5.39918e-30
v 5.43766e-18 -9.79118e-07 -7.80719e-30
v 7.37158e-14 -8.47769e-07 -2.3522e-32
v 1.23118e-13 -9.22491e-13 -2.05056e-36
v 5.56011e-27 -5.38204e-35 -3.004e-36
v 4.95042e-27 -2.54977e-32 -1.52815e-36
v 5.76344e-27 -3.94528e+12 -1.64055e-36
v 5.76344e-27 -4.08453e-37 -7.96329e-36
v 3.73065e-27 -8.83944e-29 -1.31689e-31
v 1.67342e-26 -2.3045e-29 -1.71479e-28
v 1.4439e-26 -8.84912e-30 -7.58944e-29
v 3.276e-26 -5.69506e-33 -5.34705e-32
v 3.45957e-26 -1.09551e-32 -3.6658e-32
v 4.80852e-26 -3.29728e-35 -4.87817e-29
v 4.76269e-26 -2.18632e-35 -7.12377e-26
v 4.71678e-26 -1.52029e-35 -9.93637e-26
v 3.09236e-26 -2.95629e-33 -2.19419e-25
v 1.25347e-26 -3.12166e-30 -5.91397e-26
v 3.2064e-21 -2.30463e-37 -4.25856e-29
v 3.2064e-21 -2.78739e-37 -3.03231e-32
v 3.2064e-21 -3.27022e-37 -2.85867e-32
v 3.2064e-21 -3.94528e+12 -8.47505e-23
v 3.2064e-21 -1.8513e-37 -9.65285e-23
v 4.67087e-26 -1.02898e-35 -1.41953e-22
v 2.90879e-26 -1.53252e-33 -3.01496e-22
v 1.13871e-26 -1.22663e-30 -5.31424e-30
v 2.60833e-27 -8.48609e-20 -1.10372e-29
v 1.48952e-27 -6.86481e-20 -6.58479e-31
v 7.05917e-27 -5.57747e-25 -3.1267e-31
v 1.13094e-26 -6.48359e-25 -3.34565e-28
v 4.64679e-28 -2.70562e-14 -7.73561e-26
v 7.68496e-29 -1.12262e-08 -1.5469e-25
v 3.74233e-29 -7.70302e-09 -6.83933e-28
v 2.52375e-28 -2.15801e-14 -5.54049e-34
v 9.23185e-13 -1.11521e-18 -6.77158e-34
v 1.69169e-15 -1.03736e-18 -3.43099e-35
v 2.96655e-15 -4.06101e-24 -2.64767e-35
v 1.58846e-12 -4.27861e-24 -4.33998e-32
v 5.32508e-13 -7.71955e-13 -1.33657e-29
v 2.88923e-13 -6.62407e-07 -1.71536e-29
v 4.79383e-16 -5.9474e-07 -5.28371e-32
v 9.07267e-16 -7.19359e-13 -4.65365e-30
v 1.34871e-27 -8.80488e-20 -2.70631e-31
v 5.76118e-27 -6.6618e-25 -6.7194e-26
v 4.11519e-29 -1.1919e-08 -2.93396e-28
v 2.48641e-28 -2.8133e-14 -1.54527e-35
v 6.25837e-15 -4.72595e-35 -2.29906e-35
v 5.34298e-15 -2.18711e-32 -1.22113e-35
v 6.56346e-15 -3.81453e-37 -1.16801e-35
v 6.56346e-15 -3.94528e+12 -5.87865e-35
v 3.53262e-15 -6.82954e-29 -6.09468e-35
v 4.81436e-19 -4.47314e-35 -9.08529e-35
v 3.91556e-19 -1.96972e-32 -4.63551e-35
v 5.25442e-19 -3.94528e+12 -4.81174e-35
v 5.25442e-19 -3.69645e-37 -2.2867e-34
v 2.59571e-19 -5.46567e-29 -1.71373e-35
v 6.70569e-16 -4.70809e-35 -2.52667e-35
v 5.54681e-16 -2.17176e-32 -1.38977e-35
v 7.09194e-16 -3.80156e-37 -1.30099e-35
v 7.09194e-16 -3.94528e+12 -6.54706e-35
v 3.83518e-16 -6.73324e-29 -3.77365e-34
v 1.0404e-12 -1.23191e-18 -1.94049e-35
v 1.65951e-12 -4.60475e-24 -1.01553e-29
v 3.45753e-13 -7.63848e-07 -3.19029e-32
v 6.17759e-13 -8.50795e-13 -4.20248e-35
v 1.2667e-17 -4.53948e-35 -2.6825e-35
v 1.3476e-16 -4.62001e-35 -4.18485e-35
v 1.07502e-16 -2.09604e-32 -6.58707e-35
v 1.06401e-17 -2.02679e-32 -3.55809e-35
v 1.33427e-17 -3.72044e-37 -3.38148e-35
v 1.33427e-17 -3.94528e+12 -2.13334e-35
v 1.45023e-16 -3.94528e+12 -2.22187e-35
v 1.45023e-16 -3.74966e-37 -1.00614e-34
v 7.67298e-17 -6.25808e-29 -1.60935e-34
v 6.76284e-18 -5.82359e-29 -3.18646e-32
v 5.51978e-22 -3.55941e-19 -3.18646e-32
v 1.61527e-24 -3.55941e-19 -1.63315e-33
v 4.31708e-24 -1.80089e-24 -1.63315e-33
v 1.40213e-21 -1.80089e-24 -2.30371e-30
v 1.84575e-22 -1.79503e-13 -6.28393e-28
v 5.7134e-23 -1.06653e-07 -6.28393e-28
v 1.78738e-25 -1.06653e-07 -2.30371e-30
v 5.75998e-25 -1.79503e-13 -2.32153e+27
v 5.08374e-17 -444.791 -2.36841e+27
v 3.13162e-21 -410.252 -2.78322e+30
v 9.31661e-29 -2167.64 -2.71289e+30
v 1.5597e-24 -2448.89 -1.13422e+24
v 3.81543e-06 -36.97 -5.0736e+20
v 3.82247e+09 -1.45332 -5.25041e+20
v 253417 -1.32664 -1.16374e+24
v 2.52202e-10 -32.7659 -9.17382e+27
v 4793.03 -3.39485 -8.39467e+27
v 6.29153e+21 -5.03067 -7.11587e+30
v 2.88323e+13 -25.5778 -7.70034e+30
v 1.89088e-05 -16.4513 -6.88717e+24
v 4.01447e+15 -0.325266 -4.35749e+21
v 5.01517e+31 -0.0143982 -3.77007e+21
v -1.47607e-33 -0.021391 -5.90669e+24
v 4.33792e+33 -0.461626 -5.35132e+26
v 45.1428 -90352.5 -4.42583e+26
v 2495.14 -189193 -8.10469e+29
v 0.000958715 -1.11086e+06 -9.49312e+29
v 1.30037e-05 -517834 -1.67899e+23
v 2.53035e+11 -6532.53 -4.89038e+19
v 1.57976e+25 -208.407 -3.41757e+19
v 4.22314e+26 -416.752 -1.30391e+23
v 9.92037e+12 -13365.3 -7.17743e+27
v 4.39579e+26 -9.06354 -6.73285e+27
v 2.96705e+16 -11.6202 -5.86911e+30
v 1.95995e+08 -58.0833 -6.20274e+30
v 2.53189e+18 -47.6711 -4.60536e+24
v 2.26417e+38 -0.849339 -2.85227e+21
v -2.99297e-31 -0.0372136 -2.51713e+21
v -2.21091e-36 -0.046591 -4.32571e+24
v 1.38761e+28 -1.00983 -5.53332e+26
v 0.941624 -76632.5 -9.76624e+29
v 2.59448e-07 -461954 -1.7935e+23
v 6.08204e+09 -5697.66 -5.23344e+19
v 3.98249e+23 -183.247 -7.84355e+27
v 3.74603e+25 -6.61575 -6.7024e+30
v 2.03384e+17 -32.0657 -3.35452e+21
v -1.00372e-31 -0.0272046 -5.21324e+24
v 2.29981e+37 -0.616154 -2.23471e+27
v 23781.1 -508.697 -2.23471e+27
v 2.00119e-06 -508.697 -2.58267e+30
v 6.87267e-14 -2969.45 -2.58267e+30
v 0.000786785 -2969.45 -1.07962e+24
v 1.68659e+15 -44.7473 -4.74637e+20
v 1.45467e+30 -1.68772 -4.74637e+20
v 1.28777e+20 -1.68772 -1.07962e+24
v 143617 -44.7473 -3.02285e+18
v 4.01582e-20 -2.07388e+34 -4.48075e+18
v 3.45664e-31 -4.53282e+33 -1.1331e+24
v 1.90785e-31 -8.88782e+34 -8.53111e+23
v 2.57796e-20 -4.52503e+35 -3.92052e+12
v 6.23434e-20 -2.65633e+32 -4.13813e+06
v 1.00996e-19 -8.16929e+29 -8.27498e+06
v 1.34363e-30 -1.86214e+29 -7.02593e+12
v 6.69167e-31 -5.86316e+31 -3.38229e+25
v -4.21101e+27 -4.83633e+27 -8.10687e+24
v 2.33059e-38 -6.11608e+30 -6.52214e+19
v 1.16985e-37 -3.57767e+29 -4.71151e+20
v -1.56764e+29 -3.27593e+26 -3.36424e+21
v -1.05873e+17 -3.00434e+23 -1.40874e+26
v -1.61718e+15 -4.11172e+24 -5.47754e+08
v 4.92424e-36 -2.6871e+25 -2.14698e+14
v 6.97103e-37 -5.88131e+27 -2.63465e+15
v -1.55316e+31 -6.68809e+24 -1.28207e+10
v -3.17683e+33 -3.65207e+22 -2.70039e+11
v -2.21881e+22 -5.45119e+19 -3.26875e+16
v -2.50261e+19 -7.45382e+21 -1.34358e+14
v -1.07648 -1.10192e+14 -6.32035e+12
v -1.54695e+11 -7.36238e+16 -4.20535e+17
v -3.96547e+07 -8.17998e+18 -5.0891e+18
v -6.14566e-05 -8.86801e+15 -1.63476e+23
v -4.32312e-08 -2.66219e+17 -2.36742e+22
v -64224.3 -2.82998e+20 -2.43256e+27
v -2.22042e-10 -2.75538e+18 -5.85812e+26
v -599.973 -3.41843e+21 -6.39559e+19
v 1.86507e-37 -3.96491e+29 -7.98526e+24
v 4.07859e-38 -6.74681e+30 -5.27747e+08
v 8.09351e-36 -2.90899e+25 -2.08479e+14
v 1.18684e-36 -6.47021e+27 -7.99744e+18
v 1.14937e-20 -6.26301e+32 -4.15951e+18
v 7.45181e-19 -6.44874e+33 -1.07141e+24
v 4.23459e-19 -1.30832e+35 -1.75776e+24
v 5.3524e-21 -1.24902e+34 -1.42202e+13
v 2.68938e-20 -8.63854e+30 -2.05272e+07
v 7.36443e-20 -3.03248e+28 -7.35107e+06
v 2.67743e-18 -2.60017e+29 -6.23646e+12
v 1.38901e-18 -7.8222e+31 -1.25291e+19
v 6.23179e-28 -1.38521e+32 -1.17218e+19
v 8.19867e-26 -1.6535e+32 -2.23314e+24
v 3.27458e-26 -3.26406e+33 -2.31065e+24
v 2.40487e-28 -2.51828e+33 -2.49979e+13
v 1.78195e-27 -1.95193e+30 -4.06193e+07
v 5.7095e-27 -7.15099e+27 -3.59754e+07
v 7.15986e-25 -8.59973e+27 -2.30142e+13
v 2.29087e-25 -2.33654e+30 -8.1721e+18
v 1.01672e-21 -5.82508e+32 -1.79134e+24
v 4.53001e-22 -1.10641e+34 -1.46497e+13
v 2.54969e-21 -7.97253e+30 -2.15328e+07
v 6.4265e-21 -2.78151e+28 -1.04225e+19
v 4.00022e-24 -2.46723e+32 -9.03454e+18
v 8.99531e-23 -3.66472e+32 -1.95695e+24
v 3.96459e-23 -7.20505e+33 -2.10836e+24
v 1.60729e-24 -4.58971e+33 -1.98209e+13
v 1.10484e-23 -3.37573e+30 -3.10284e+07
v 3.24929e-23 -1.196e+28 -2.64931e+07
v 6.62317e-22 -1.76202e+28 -1.67687e+13
v 2.29829e-22 -4.87828e+30 -5.07261e+32
v 4.77451e-08 -3.69602e+06 -1.8489e+32
v 5.44709e+17 -4.83253e+09 -3.5895e+34
v 3.21045e+15 -8.52312e+09 -6.88578e+34
v 1.93503e-10 -6.56694e+06 -2.80954e+36
v 1.23129e-11 -8.17642e+06 -1.99848e+36
v 2.38363e+14 -1.19816e+10 -1.29611e+36
v -1.58403e-38 -1.61873e+13 -1.86802e+34
v -5.14699e-38 -1.23422e+13 -6.96023e+31
v -5.97668e-37 -6.54395e+12 -3.83115e+37
v -8.99495e-39 -1.809e+13 -4.50059e+37
v 1.0201e+14 -1.34979e+10 -5.59253e+37
v 4.98005e-12 -9.34816e+06 -6.63041e-16
v 4.97783e-12 -9.72832e+06 -3.28518e+37
v -4.66724e-26 -2.67557e+16 -9.28372e+35
v -6.97026e-26 -2.31624e+16 -9.7066e+33
v -2.04354e-25 -1.641e+16 -2.62092e+31
v -2.03939e-24 -8.33474e+15 -4.38719e+36
v 2.34318e+06 -3576.14 -1.37455e+35
v 7.67719e+07 -2849.02 -6.76365e+37
v 755844 -3888.83 -6.63041e-16
v 755652 -3974.7 -1.41491e+33
v 8.22886e+10 -1687.38 -4.1081e+36
v 5.59285e-06 -14157.6 -1.22801e+35
v 0.000159406 2.73622 97.4194
v 1.76643e-06 -15774.6 -6.55648e+37
v 1.76702e-06 -15426.1 -1.18116e+33
v 0.124089 -6611.78 -4.36747e+36
v 633.567 -3862.77 -1.3642e+35
v 20496.1 -3134.89 -6.74898e+37
v 200.478 -4255.53 -6.63041e-16
v 200.407 -4427.41 -1.39015e+33
v 2.14417e+07 -1829.57 -4.18128e+36
v 0.142556 -9896.06 -4.2702e+36
v 51.5628 -6457.91 -1.31314e+35
v 1597.13 -4995.03 -1.26649e+35
v 4.11697 -7574.53 -6.61087e+37
v 0.0472128 2.72462 97.4194
v 0.0471936 2.8094 0.387686
v 15.6877 -7259.78 -6.67681e+37
v 15.6949 -7087.03 -1.28303e+33
v 1.5273e+06 -3014.14 -1.22717e+33
v 3700.64 -4498.03 -9.51404e+34
v 7.95628e-34 -6.93662e+34 -9.45218e+34
v 1.02357e-34 -7.51796e+34 -2.26366e+32
v 1.31492e-34 -4.93702e+34 -2.28386e+32
v 1.03129e-33 -4.3572e+34 -1.10175e+37
v 7.43727e-34 -8.04581e+34 97.4194
v 7.43666e-34 -8.39293e+34 97.4194
v 9.44643e-35 -9.55714e+34 -1.09811e+37
v 9.44719e-35 -8.94816e+34 -7.55437e+28
v 1.89767e-34 -1.96037e+34 -7.6298e+28
v 1.50259e-33 -1.8162e+34 -7.43189e+34
v 1.06161e-16 -7.39598e+36 -1.46805e+32
v 1.17664e-16 -4.65994e+36 97.4194
v 1.03426e-16 -9.25563e+36 -9.94751e+36
v 1.03433e-16 -8.85518e+36 -4.00109e+28
v 1.5039e-16 -1.88327e+36 -1.30019e+35
v 2.69561e-38 -2.83004e+32 -3.61115e+32
v 3.85424e-38 -1.85534e+32 -1.30889e+37
v 2.33019e-38 -3.25313e+32 97.4194
v 2.33001e-38 -3.48329e+32 -1.59449e+29
v 7.64075e-38 -7.65001e+31 -7.63167e+34
v 1.69109e-16 -3.94292e+36 -1.53357e+32
v 1.87852e-16 -2.45556e+36 -1.0066e+37
v 1.62865e-16 -4.66984e+36 97.4194
v 1.62851e-16 -4.86942e+36 -4.49119e+28
v 2.28626e-16 -1.00768e+36 -1.29063e+35
v 1.8581e-38 -3.18241e+32 -3.54846e+32
v 2.51172e-38 -2.20681e+32 97.4194
v 1.66678e-38 -4.18902e+32 -1.30321e+37
v 1.667e-38 -3.95866e+32 -1.56607e+29
v 4.90764e-38 -8.93502e+31 -7.52227e+34
v 3.37317e-16 -5.26379e+36 -1.49772e+32
v 3.72195e-16 -3.57005e+36 97.4194
v 3.25654e-16 -7.06724e+36 -1.00011e+37
v 3.25689e-16 -6.66744e+36 -4.22305e+28
v 4.41956e-16 -1.34129e+36 -9.62787e+34
v 1.83837e-31 -5.86089e+34 -2.32125e+32
v 2.31992e-31 -3.71911e+34 97.4185
v 1.73566e-31 -7.2733e+34 -1.1085e+37
v 1.73581e-31 -6.96907e+34 -7.76968e+28
v 3.55053e-31 -1.54943e+34 -7.6383e+06
v -5.50601 -5.6213e-07 -46684.3
v -1.19916e+07 -9.61465e-05 -5.32821e+07
v -4.40695e-05 -0.0594037 -5.67991e+09
v -8.14005e-13 -0.000231591 -6.75897e+12
v -4.97768e-25 -0.0552561 -1.04028e+11
v -5.41441e-16 -21.1237 -1.60073e+09
v -5.88832e-07 -7668.66 -485850
v -2248.83 -15.2374 -263.236
v -2.60808e+13 -0.0154038 -3.31753e+19
v 1.64179e+26 -446.127 -1.25095e+16
v -4.86611e-36 -6.93521 -3.15742e+14
v -7.76874e-26 -3627.14 -1.52895e+18
v -4.01376e-34 -314178 -6.67934e+16
v -5.57737e-23 -2.22037e+08 -8.15698e+12
v -1.23315e-15 -1.89614e+06 -3.11109e+15
v -7.74941e-12 -1.52573e+11 -2.18201e+11
v -1.9441e-05 -9.9081e+08 -5.67178e+09
v -304034 -5.17529e+11 -378738
v -6.96175e+11 -1.061e+09 -2.46253e+07
v -640.317 -2.9869e+06 -0.00965196
v -1.229e+26 -451.705 -44.2971
v -6.48423e+18 -1.0025e+06 -4582.78
v -1.20398e+11 -3908.39 -1.63184
v -5.66499e+19 -2.73616 -7.08029e+12
v -7.93711e-25 -0.0520136 -6.03092e+09
v -1.39831e-12 -0.000219741 -1.30848e+16
v -7.82829e-36 -6.49673 -8.01462e+06
v -9.2464 -5.19347e-07 -5.62042e+14
v -2.3992e-11 -9.73982e-05 -2.22669e+15
v -5.72394e-14 -1.36039e-05 -3.87139e+12
v -1.2758 -1.00165e-07 -8.49703e+11
v -269.674 -6.26012e-07 -5.9835e+17
v -3.29315e-23 -0.00813252 -9.41617e+20
v -2.83413e-33 -0.400217 -2.04098e+18
v -4.49306e-26 -0.00104363 -1.01938e+10
v -1.08687e+14 -4.22185e-10 -1.88345e+09
v -1.31329e+16 -2.32065e-09 -2.34682e+14
v -1.03613e-21 -0.0003621 -2.60912e+14
v -4.72817e-18 -0.000297496 -3.48457e+11
v -3.87228e-05 -1.74673e-06 -2.91171e+11
v -7.80853e-09 -2.05847e-06 -2.70296e+17
v -2.15479e-33 -0.0323575 -5.15484e+20
v 2.34239e+37 -1.39515 -2.99342e+17
v -9.19367e-30 -0.0274345 -7.25095e+08
v -1.26154e+09 -6.14435e-09 -6.02215e+08
v -245469 -6.997e-09 -5.3933e+14
v -3.41007e-13 -0.000104391 -8.00093e+11
v -3.73842 -6.77148e-07 -5.67069e+17
v -4.67514e-25 -0.00907856 -9.06237e+20
v -4.23922e-35 -0.431887 -1.77702e+09
v -1.74321e+14 -2.50522e-09 -3.24779e+14
v -1.31173e-15 -0.000218828 -4.27248e+14
v -4.70477e-14 -0.000155726 -5.5533e+11
v -0.462778 -9.29449e-07 -4.40647e+11
v -0.0118266 -1.36661e-06 -3.74945e+17
v -2.32651e-27 -0.0204021 -5.81219e+20
v -2.63891e-37 -0.962116 -7.31713e+20
v -7.60678e-36 -0.676334 -4.66705e+17
v -7.54628e-26 -0.0137458 -1.25201e+09
v -1.84164e+13 -3.41596e-09 -9.22849e+08
v -4.26253e+11 -4.77215e-09 -0.00052378
v 6.78292e-31 -3.97003e+21 -0.000486331
v 8.11151e-32 -4.24061e+21 -5.40959e-09
v 2.48302e-31 -6.05633e+17 -5.74565e-09
v 2.13163e-30 -5.60137e+17 -104.639
v 2.14604e-31 -9.44964e+24 -3.68991e+07
v 7.1821e-32 -8.31171e+27 -3.48879e+07
v 8.73576e-33 -8.93914e+27 -100.122
v 2.5424e-32 -1.0399e+25 -1.21275e-13
v 7.38742e-31 -3.40088e+13 -1.32541e-13
v 6.25593e-30 -3.22655e+13 -2.84138e-05
v 2.79536e-19 -2.5084e+23 -3.6536e-05
v 2.8069e-15 -1.78944e+23 -2.81498e-10
v 4.85368e-15 -2.0169e+19 -2.13547e-10
v 4.34597e-19 -2.83824e+19 -7.81155
v 1.70877e-19 -7.87261e+26 -5.12541e+06
v 8.95151e-16 -5.58681e+29 -9.96735
v 1.59338e-15 -5.47514e+26 -4.99733e-15
v 8.18817e-15 -8.96931e+14 -3.54411e-15
v 7.43857e-19 -1.13127e+15 -0.0128346
v 1.3499e-33 -4.39869e+19 -0.0199944
v 3.61924e-34 -2.37611e+19 -3.25303e-07
v 2.53673e-33 -4.61207e+15 -1.96979e-07
v 8.50856e-33 -8.42312e+15 -1670.7
v 2.16469e-34 -8.28772e+22 -4.00812e+08
v 3.60056e-35 -5.81704e+25 -2433.89
v 5.35412e-35 -4.31196e+22 -1.13512e-11
v 1.74252e-32 -3.95777e+11 -6.46863e-12
v 4.97451e-32 -6.7173e+11 -5.2511e-05
v 6.63957e-15 -1.08869e+23 -5.83448e-05
v 9.90526e-18 -8.83605e+22 -4.69417e-10
v 1.90046e-17 -1.05486e+19 -4.1778e-10
v 1.25705e-14 -1.28916e+19 -13.6295
v 3.49678e-15 -3.06955e+26 -6.75587e+06
v 1.89753e-15 -3.07566e+29 -14.9669
v 5.15369e-18 -2.62574e+26 -9.12492e-15
v 3.64015e-17 -4.82928e+14 -7.45698e-15
v 2.37251e-14 -5.49002e+14 -0.0118564
v 7.89021e-34 -5.05464e+19 -1.80288e-07
v 5.0081e-33 -9.33795e+15 -3.75851e+08
v 2.19341e-35 -6.57758e+25 -1558.54
v 1.37052e-34 -9.7072e+22 -5.90919e-12
v 3.0229e-32 -7.56254e+11 -4.37687e-05
v 1.0614e-14 -1.39606e+23 -3.43194e-10
v 1.8922e-14 -1.6403e+19 -5.86358e+06
v 3.22958e-15 -4.40767e+29 -11.6251
v 5.88302e-15 -4.37464e+26 -6.03134e-15
v 3.32367e-14 -7.33104e+14 -0.000596676
v 5.66154e-26 -3.46945e+21 -0.000596676
v 1.76157e-28 -3.46945e+21 -6.36763e-09
v 5.68907e-28 -5.02954e+17 -6.36763e-09
v 1.81884e-25 -5.02954e+17 -112.997
v 1.84957e-26 -8.3663e+24 -4.06193e+07
v 1.78785e-29 -7.15099e+27 -112.997
v 5.4552e-29 -8.3663e+24 -1.53385e-13
v 1.73289e-27 -2.904e+13 -1.53385e-13
v 5.88607e-25 -2.904e+13 -14162.3
v -4.08316e+21 -1.6813e-14 -15101.1
v -3.75265e+19 -1.56664e-14 -2.57192e+06
v -4.58038e+06 -1.22489e-11 -2.34702e+06
v -4.9375e+08 -1.29055e-11 -152.134
v -2.1017e+33 -1.38349e-17 -3.09328
v 9.43753e-37 -8.68007e-21 -3.3467
v 9.09189e-38 -8.27393e-21 -167.634
v -1.96963e+31 -1.33453e-17 -7.53865e+08
v -1.39125e-07 -5.94483e-09 -7.0065e+08
v -1.48737e-05 -6.31397e-09 -895140
v -9.82708e+35 -8.75985e-16 -645700
v 5.1148e-36 -1.1614e-15 -8.51687e+07
v -1.84445e+31 -6.55021e-13 -1.15051e+08
v -3.30913e+22 -4.84644e-13 -12339.8
v 3.08663e-34 -1.13773e-18 -296.205
v 4.96291e-29 -9.77863e-22 -208.767
v 1.05897e-24 -1.18861e-21 -8221.06
v 6.27933e-30 -1.39189e-18 -1.82842e+10
v -1.78443e+17 -2.25342e-10 -2.53537e+10
v -2.75163e+08 -1.77441e-10 -158.685
v -6.55267e+25 -3.98641e-13 -85.4732
v -1.07741e+26 -6.32123e-13 -19658.1
v -6.24212e+13 -7.43089e-10 -34278.3
v -3.16234e+13 -4.38591e-10 -1.33131
v -8.45359e+36 -2.20975e-16 -0.021434
v 2.99253e-35 -9.07686e-20 -0.687901
v -1.07488e+37 -3.43558e-16 -1.42006e+07
v -3.80293 -3.11646e-07 -390146
v 4.37029e-35 -1.62636e-15 -319002
v 9.79031e-38 -1.81589e-15 -4.4275e+07
v -8.97918e+27 -1.12727e-12 -5.27977e+07
v -1.65956e+33 -9.32872e-13 -4989.28
v 5.02716e-29 -1.84316e-18 -115.786
v 7.72579e-24 -1.51786e-21 -3955.27
v 1.15912e-31 -2.13316e-18 -1.22099e+10
v -1.77671e+19 -3.6753e-10 -181.439
v -1.31879e+25 -3.70171e-13 -39730.3
v -6.21351e+12 -4.05992e-10 -0.0245057
v 1.36329e-35 -8.57294e-20 -1.51917
v -1.74714e+36 -2.08815e-16 -1.54906e+07
v -0.731053 -2.74982e-07 -496786
v 3.46773e-35 -1.3719e-15 -6.55711e+07
v -9.1103e+32 -7.75522e-13 -161.142
v 6.34464e-24 -1.33766e-21 -6750.03
v 4.23845e-29 -1.57165e-18 -1.52319e+10
v -8.88437e+18 -2.85619e-10 -12425.6
v -6.175e+31 -1.8935e-14 -12425.6
v -5.63617e+26 -1.8935e-14 -2.01402e+06
v -7.02402e+13 -1.41203e-11 -2.01402e+06
v -7.82814e+18 -1.41203e-11 -125.731
v 1.259e-36 -1.56041e-17 -2.62453
v 3.34206e-34 -9.43115e-21 -125.731
v -2.80027e+38 -1.56041e-17 -6.02215e+08
v -2.34334 -6.997e-09 -1.77352e-23
v 1.97979e-18 -149129 -6.62653e-23
v 8.80262e-29 -58701.3 -5.4229e-19
v 4.38451e-29 -7.13022e+09 -1.58436e-19
v 1.23885e-18 -2.00237e+10 -5.58368e-27
v 3.21673e-18 -0.523502 -2.30319e-29
v 3.5481e-28 -4.89705e-07 -2.25951e-26
v 1.7673e-28 -0.233705 -1.17133e-14
v 2.18374e-29 -3.80382e+14 -1.2004e-11
v 1.09026e-32 -3.71114e+11 -1.94872e-09
v 7.67584e-36 -2.09778e+09 -2.44806e-13
v 2.68102e-34 -119229 -9.52966e-16
v 7.6529e-32 -1.30343e+07 -1.9685e-19
v 5.26697e-31 -210.845 -7.59183e-17
v 8.53545e-33 -3.24843 -2.72799e-14
v 1.38154e-34 -0.0500367 -6.2887e-11
v 9.2681e-37 -1110.76 -3.43951e-07
v -nan -1.30637e+07 -1.66551e-25
v 2.40018e-29 -7.37478e-09 -1.04196e-22
v 3.52929e-30 -0.00170664 -5.45067e-20
v 2.21634e-31 -4.51824e-05 -1.1293e-22
v 4.66415e-30 -3.50967e-10 -8.25299e-20
v 8.3196e-31 -1.50627e-11 -2.89416e-17
v 1.39172e-32 -1.15726e-06 -5.49066e-17
v 1.60843e-31 -7.10699e-13 -1.53472e-14
v 8.73939e-34 -2.90039e-08 -8.12867e-12
v 5.48783e-35 -7.82013e-10 -3.81354e-09
v 3.6065e-38 -1.18649e-05 -1.07079e-11
v 2.23341e-36 -0.000770588 -4.14977e-06
v -2.36691e+33 -0.100977 -1.61546e-08
v -1.94577e+38 -10.8013 -5.61236e-05
v -2.557e+32 -76080.5 -1.856e-19
v 7.68389e-31 -220.196 -8.77448e-16
v 1.16444e-31 -1.37196e+07 -9.83929e-23
v 5.41256e-30 -0.00176904 -3.4796e-22
v 2.22462e-17 -18139.6 -4.84533e-23
v 1.32724e-16 -71308.5 -4.02508e-19
v 6.95859e-17 -8.55484e+09 -2.5823e-18
v 8.52777e-18 -1.90796e+09 -1.3187e-25
v 5.48752e-17 -0.0872979 -1.48331e-28
v 1.50007e-16 -2.11757e-07 -1.68423e-26
v 2.52573e-16 -0.282259 -4.87954e-14
v 3.21768e-18 -9.02893e+13 -1.29646e-21
v 5.79423e-24 -7282.28 -1.07229e-21
v 6.23168e-22 -8045.66 -6.98956e-18
v 1.95674e-22 -8.04786e+08 -8.70798e-18
v 1.79867e-24 -6.929e+08 -5.25195e-25
v 1.87304e-23 -0.0385735 -5.10224e-28
v 5.82131e-21 -1.14902e-07 -4.11566e-25
v 1.85466e-21 -0.0436671 -1.27364e-13
v 6.48339e-23 -3.3066e+13 -3.7222e-22
v 2.16307e-18 -16817.6 -2.76828e-18
v 8.04605e-19 -1.81106e+09 -1.44388e-25
v 5.6851e-18 -0.0828881 -1.61119e-28
v 1.4298e-17 -2.04615e-07 -5.16117e-14
v 3.17361e-19 -8.33165e+13 -7.79298e-22
v 2.13488e-20 -10356.6 -5.60366e-22
v 3.11187e-19 -13339.1 -3.90284e-18
v 1.06068e-19 -1.33301e+09 -5.58134e-18
v 6.89398e-21 -9.8483e+08 -3.18499e-25
v 6.14318e-20 -0.051863 -3.61959e-28
v 1.83354e-19 -1.37145e-07 -2.46533e-28
v 2.41501e-18 -1.69371e-07 -2.06165e-25
v 8.2991e-19 -0.0618126 -7.41738e-14
v 4.00622e-20 -5.96391e+13 -9.95875e-14
v 2.4723e-21 -4.39077e+13 -0.00120012
v 8.35712e-39 -1.33453e-14 -0.633091
v -6.03966e+36 -3.57741e-16 -78.8325
v -5.99437e+25 -6.6536e-13 -0.20997
v -2.66066e+29 -4.32527e-11 -0.000550646
v -1.17401e+33 -2.81103e-09 -2.27297e-06
v 1.74339e-37 -5.20795e-13 -18067.6
v -3.45327e+13 -7.81146e-10 -70.3384
v -3.29292e+18 -8.41633e-08 -0.273829
v -2.86096e+23 -8.74751e-06 -0.00106601
v -2.69036e+28 -0.000918511 -1.50273e-06
v -5.15321e+36 -1.82646e-07 -4.30058e-09
v 3.0045e-36 -2.05517e-11 -46013.3
v 6.1452e-37 -7.12803e-15 -501.51
v 5.26962e-31 -6.80689e-18 -7.07638e+06
v -5.90297e+29 -5.29102e-12 -14593.6
v -3.30153e+35 -1.62866e-14 -159.255
v 9.37225e-35 -1.361e-17 -2.45032e+06
v -4.08356e+22 -1.2604e-11 -42258.3
v 7.00005e-38 -7.70136e-15 -470.518
v 5.78565e-32 -7.16468e-18 -6.62659e+06
v -7.96263e+27 -5.61931e-12 -19781.1
v -1.38201e+38 -1.31174e-14 -28250.1
v 2.02086e-38 -1.05305e-14 -317.565
v 1.62336e-32 -9.58084e-18 -216.86
v 2.05031e-33 -1.17899e-17 -3.28616e+06
v -1.5354e+25 -1.01639e-11 -4.40733e+06
v -7.69089e+26 -7.2389e-12 -1.11688e-21
v 6.28828e-29 -7893.78 -1.01982e-21
v 6.94611e-30 -8256.81 -3.98029e-25
v 2.16398e-29 -0.0448592 -4.32539e-25
v 1.89525e-28 -0.0426533 -7.33134e-18
v 2.0373e-29 -7.8252e+08 -6.76306e-18
v 2.3458e-30 -8.30968e+08 -2.4032e-23
v 2.45079e-14 -118141 -7.95414e-27
v 4.29372e-14 -0.438494 -2.06713e-19
v 1.37742e-14 -1.53837e+10 -9.79932e-20
v 1.99667e-30 -347.408 -5.03742e-23
v 1.1952e-29 -0.00267263 -5.0165e-16
v 3.22884e-31 -2.2608e+07 -4.12688e-23
v 8.35655e-14 -83834.5 -1.3135e-26
v 1.558e-13 -0.324053 -3.47424e-19
v 4.46173e-14 -1.03558e+10 -8.83549e-20
v 1.12668e-30 -379.471 -4.54006e-23
v 6.49544e-30 -0.00288649 -4.35919e-16
v 1.80178e-31 -2.49571e+07 -3.05009e-23
v 1.04877e-13 -102609 -1.02521e-26
v 1.91317e-13 -0.38669 -2.64872e-19
v 5.72567e-14 -1.31073e+10 -1.29646e-21
v 1.81025e-26 -7282.28 -5.25195e-25
v 5.50408e-26 -0.0385735 -8.70798e-18
v 5.61139e-27 -6.929e+08 -2.55698e+14
v -5.7673e-32 -0.000310348 -2.67054e+14
v -5.07241e-34 -0.000282371 -3.10337e+17
v 1.72497e+25 -0.0264117 -2.90001e+17
v 2.47154e+29 -0.0283033 -3.37065e+11
v -4.59545e-19 -1.79371e-06 -3.6187e+11
v -4.208e-21 -1.69143e-06 -4.62706e+15
v -8.52e-20 -4.93092e-06 -3.81079e+15
v -6.26987e-11 -6.74583e-06 -3.21714e+18
v -3.96136e-23 -0.000487411 -3.89282e+18
v -4.54807e-32 -0.000364663 -8.50675e+12
v -2.47652e-06 -3.83136e-08 -6.8591e+12
v -1697.51 -5.15831e-08 -1.09662e+13
v -2.29358e-25 -0.0275041 -1.81872e+16
v -1.82501e-36 -3.33736 -9.58825e+09
v -4.57152e-13 -0.000119254 -2.63197e+15
v -9.10456e-09 -1.15331e-05 -2.23372e+18
v -6.33509e-21 -0.000870053 -4.34142e+12
v -206329 -8.50255e-08 -1.20673e+13
v -4.03378e-26 -0.024726 -2.01597e+16
v -3.02749e-37 -2.96156 -1.07907e+10
v -8.59074e-14 -0.000109099 -3.27711e+15
v -3.67346e-09 -8.42969e-06 -2.73926e+18
v -2.53269e-21 -0.00066017 -5.69355e+12
v -94986.5 -6.23336e-08 -2.34682e+14
v -9.83636e-27 -0.0003621 -2.70296e+17
v -1.99531e-38 -0.0323575 -2.91171e+11
v -7.65625e-14 -2.05847e-06 -7.37612e-05
v 5.41699e-30 -6.60466e+22 -18.0841
v 2.69786e-30 -1.93694e+26 -6.23889e-10
v 1.0876e-29 -8.06809e+18 -99572.5
v -1.27557e+36 -7.35846e+19 -2564.7
v 3.41747e-35 -3.89783e+22 -0.0211364
v 2.31627e-34 -2.18471e+19 -1.37574
v 2.17832e-39 -5.8811e+16 -89.52
v -8.46698e+29 -1.52043e+14 -3.74645e+06
v -7.73479e+25 -1.41035e+17 -3.4478e-07
v 1.52982e-33 -4.33924e+15 -3.60312e-05
v 2.19138e-37 -1.69174e+13 -0.00374062
v -1.7538e+34 -6.59557e+10 -0.412432
v -3.24183e+26 -2.5714e+08 -5823.53
v -7.68049e+20 -4.20095e+11 -1.41395e+08
v -4.86208e+15 -2.70219e+14 -0.000231051
v 4.79953e-19 -1.28142e+22 -51.3001
v 1.87847e-19 -3.33584e+25 -2.27801e-09
v 1.28432e-18 -1.74248e+18 -0.00050569
v 6.54437e-24 -4.09433e+21 -102.565
v 2.24083e-24 -9.76563e+24 -5.59138e-09
v 2.11922e-23 -5.74334e+17 -0.000240901
v 4.55415e-20 -1.17322e+22 -53.5588
v 1.74619e-20 -3.10167e+25 -2.4461e-09
v 1.16206e-19 -1.61884e+18 -0.000423754
v 2.84494e-22 -5.47742e+21 -0.000334868
v 5.15316e-21 -7.91859e+21 -65.4009
v 1.76584e-21 -1.94604e+25 -85.7778
v 9.45236e-23 -1.41182e+25 -4.34196e-09
v 8.05264e-22 -8.01979e+17 -3.27533e-09
v 1.35487e-20 -1.08087e+18 -9.79443e+21
v 1.55454e+36 -1.30453e+07 -1.27053e+23
v 4.15177e+12 -14339.6 -4.31957e+26
v 1063.2 -205205 -6.06308e+25
v 2.48572e+27 -2.19579e+08 -8.40821e+24
v -1.83032e-32 -2.3453e+11 -8.22002e+20
v -1.74228e-28 -1.16802e+10 -7.9453e+29
v 0.000448035 -1.24129e+06 -1.87201e+29
v 3.14029e+21 -1.5425e+09 -4.39423e+28
v -3.40043e-35 -1.85748e+12 -1.02711e+28
v -8.78738e-23 -2.1867e+15 -1.1547e+24
v -2.66684e-20 -2.50071e+14 -6.44907e+19
v -1.03596e-16 -1.02425e+13 -3.53907e+27
v 5.24609e+23 -112.934 -1.92268e+24
v 7.76591e+34 -9.87604 -3.74208e+30
v 8.79668e+15 -607.816 -2.34306e+27
v 2.9971e+11 -428.924 -1.14778e+24
v 2.43533e+22 -35.0393 -2.74523e+30
v 9159.06 -2319.7 -3.44523e+27
v 1.26556e+20 -121.569 -1.86365e+24
v 1.80808e+31 -10.9268 -3.67175e+30
v 2.18782e+12 -678.16 -2.55901e+27
v 1.16016e+16 -300.541 -2.98229e+27
v 6.42977e+18 -200.353 -1.57237e+24
v 7.20215e+29 -16.2247 -1.30608e+24
v 1.07225e+27 -25.7072 -3.00682e+30
v 2.9611e+08 -1661.01 -3.32435e+30
v 1.34088e+11 -1026.38 -1.18823e+19
v 7.98532e-33 -1.58776e+32 -1.15327e+19
v 9.94216e-34 -1.77185e+32 -2.25493e+13
v 2.77888e-33 -2.4266e+30 -2.34088e+13
v 2.24977e-32 -2.26002e+30 -2.24852e+24
v 3.03537e-33 -3.1003e+33 -2.21498e+24
v 3.81191e-34 -3.4569e+33 -3.38567e+18
v 3.29681e-16 -1.4921e+34 -4.36632e+12
v 5.42552e-16 -1.77131e+32 -9.22803e+23
v 2.04942e-16 -2.97636e+35 -5.29232e+19
v 1.0557e-36 -8.34009e+29 -1.54246e+14
v 5.61925e-36 -1.33034e+28 -6.92598e+24
v 2.38429e-37 -1.43453e+31 -3.95249e+18
v 5.87912e-16 -8.10825e+33 -5.72778e+12
v 1.03732e-15 -1.00561e+32 -1.03166e+24
v 3.53574e-16 -1.57864e+35 -5.07536e+19
v 6.70597e-37 -9.6672e+29 -1.43582e+14
v 3.675e-36 -1.5322e+28 -6.7176e+24
v 1.56988e-37 -1.65074e+31 -3.6423e+18
v 1.06122e-15 -1.08062e+34 -4.96529e+12
v 1.75883e-15 -1.38395e+32 -9.72074e+23
v 6.72371e-16 -2.30602e+35 -1.25291e+19
v 1.88126e-30 -1.38521e+32 -2.49979e+13
v 5.52975e-30 -1.95193e+30 -2.31065e+24
v 7.25874e-31 -2.51828e+33 -0.00986368
v 2.74764e-30 -1.81696e-27 -0.0109177
v 2.86905e-31 -1.75572e-27 -0.123503
v 5.3778e-34 -3.55583e-24 -0.115294
v 5.23662e-33 -3.71739e-24 -0.00176198
v 1.99734e-28 -1.52241e-30 -0.00189612
v 2.15281e-29 -1.5005e-30 -1.30259
v 5.21993e-22 -4.63385e-28 -0.871174
v 9.74983e-18 -5.26938e-28 -9.22785
v 1.06419e-20 -7.3555e-25 -13.5914
v 5.4982e-25 -6.51703e-25 -0.246476
v 6.58821e-20 -5.8427e-31 -0.175176
v 1.17992e-15 -6.29734e-31 -4.94795e-05
v 2.2703e-29 -8.21249e-27 -0.000686098
v 8.33796e-32 -2.49989e-23 -7.81758e-06
v 9.89805e-28 -4.74003e-30 -0.466768
v 5.94621e-17 -6.26235e-28 -5.20535
v 7.28353e-20 -9.05947e-25 -0.0943933
v 6.75645e-15 -7.00777e-31 -5.58684e-05
v 1.09883e-29 -7.83245e-27 -0.000785623
v 3.96397e-32 -2.3996e-23 -9.44367e-06
v 4.80629e-28 -4.60406e-30 -0.673039
v 5.39088e-17 -5.71903e-28 -7.07071
v 6.26726e-20 -7.94872e-25 -0.124873
v 6.479e-15 -6.61897e-31 -0.00791341
v 9.36434e-28 -1.93021e-27 -0.100102
v 1.81068e-30 -4.01627e-24 -0.00151376
v 7.07928e-26 -1.56292e-30 -9.66051e-34
v 1.37928e-27 -9.16496e-19 -7.66464e-32
v 7.12332e-28 -6.3773e-13 -4.64667e-35
v 2.46441e-27 -3.72335e-24 -6.68743e-25
v 6.6522e-29 -1.62525e-15 -7.31967e-28
v 1.70117e-28 -2.09521e-14 -1.18079e-29
v 1.04522e-27 -6.67886e-20 -1.25465e-26
v 6.37859e-28 -9.51077e-21 -1.33925e-23
v 3.76547e-28 -1.33415e-21 -6.02062e-22
v 2.46185e-29 -1.31603e-16 -7.07542e-31
v 5.02546e-27 -5.47346e-25 -8.45468e-28
v 3.87787e-27 -1.2938e-25 -1.07488e-24
v 2.98077e-27 -3.04802e-26 -1.31478e-21
v 2.40702e-27 -7.15403e-27 -1.46681e-20
v 2.32229e-28 -1.84927e-22 -5.31808e-19
v 9.99235e-30 -1.06919e-17 -6.59485e-33
v 9.00139e-16 -5.4892e-19 -5.11313e-31
v 3.83077e-16 -3.14514e-13 -3.46132e-34
v 2.00709e-15 -2.55744e-24 -2.44173e-32
v 5.05103e-20 -3.7492e-19 -1.82507e-30
v 1.81811e-20 -1.92323e-13 -1.34256e-33
v 1.28204e-19 -1.90696e-24 -7.42635e-33
v 9.58524e-17 -5.32483e-19 -5.63121e-31
v 3.94677e-17 -3.03412e-13 -3.72586e-34
v 2.06216e-16 -2.51149e-24 -1.82355e-32
v 1.48292e-18 -4.05466e-19 -1.15293e-32
v 1.74426e-17 -4.51393e-19 -8.48691e-31
v 6.49031e-18 -2.48629e-13 -1.31623e-30
v 5.41707e-19 -2.12956e-13 -9.49194e-34
v 3.427e-18 -2.07766e-24 -6.21064e-34
v 4.04723e-17 -2.28486e-24 -0.0300404
v 1.68354e-29 -4.69364e-31 -0.0180708
v 1.38942e-31 -6.05263e-31 -8.28627e-06
v 1.02671e-32 -2.67927e-30 -8.01316e-06
v 4.62949e-29 -2.39129e-30 -9.16195e-06
v 9.15198e-33 -4.02551e-30 -0.0197288
v 1.211e-31 -8.42697e-31 -0.034735
v 1.27486e-29 -8.98789e-31 -9.5829e-06
v 3.81213e-29 -4.88813e-30 -7.40448e-35
v 2.32607e-27 -3.72082e-24 -1.21591e-34
v 1.99774e-29 -2.6155e-24 -2.6061e-31
v 1.03255e-31 -5.61874e-25 -2.75085e-31
v 4.64704e-28 -7.123e-25 -2.24746e-31
v 1.03255e-31 -2.98658e-25 -1.03239e-34
v 1.99774e-29 -1.34236e-24 -5.75673e-35
v 2.32607e-27 -1.16159e-24 -2.10897e-31
v 4.64704e-28 -2.24593e-25 -1.18669e-23
v 7.40578e-29 -2399.02 -1.66087e-23
v 6.3497e-31 -1425.2 -1.09871e-20
v 2.55033e-35 -17.7047 -1.23898e-20
v 1.1466e-31 -22.632 -7.47756e-21
v 2.55025e-35 -10.6512 -1.13302e-23
v 6.3497e-31 -808.723 -6.01789e-24
v 7.40578e-29 -877.066 -6.44273e-21
v 1.14657e-31 -8.2193 -0.00503746
v 2.16322e-30 -7.15037e+23 -0.00553802
v 1.86621e-32 -3.88675e+23 -0.416491
v 3.66419e-39 -5.59241e+20 -0.493761
v 3.40682e-35 -6.49352e+20 -0.236356
v 3.66419e-39 -4.06371e+20 -0.00313564
v 1.86621e-32 -2.6343e+23 -0.00178827
v 2.16322e-30 -3.65229e+23 -0.198495
v 3.40682e-35 -3.46284e+20 -3.86557e+24
v 8.45788e-32 -7.49768e+34 -3.32198e+24
v 7.15844e-34 -4.00288e+34 -1.50169e+25
v -1.3968e+32 -1.8861e+31 -1.85383e+25
v 1.13346e-38 -1.95849e+31 -7.92269e+24
v -1.3968e+32 -1.70165e+31 -1.71157e+24
v 7.15844e-34 -3.60699e+34 -1.13548e+24
v 8.45788e-32 -6.07626e+34 -6.19283e+24
v 1.13346e-38 -1.62846e+31 97.4185
v -2.42828e+16 -520.066 -7.06909e+37
v -2.43103e+16 -505.518 -4.79851e+36
v -2.71559e+17 -467.252 -1.93167e+33
v -1.051e+27 -224.001 -1.59045e+35
v -4.39437e+20 -378.283 -1.23092e-06
v 6.87349e-31 nan -1.27365e-06
v 6.87349e-31 -7.75597e-38 -1.42947e-06
v 5.5236e-31 -1.4041e-36 -3.19375e-06
v 6.51058e-32 -7.6385e-33 -1.79187e-06
v 2.70926e-31 -5.8421e-35 -0.00917822
v 4.3357e-27 -8.98961e-37 -0.00801045
v 5.76344e-27 -6.29134e-38 -0.0195314
v 2.7569e-28 -2.32932e-33 -0.0118933
v 1.64183e-27 -2.61322e-35 -0.0077515
v 5.76354e-27 -3.94528e+12 -6.1261e+35
v 2.65608e+38 -3.19352e+19 -7.94183e+35
v 2.58141e+22 -3.16125e+17 -3.08593e+37
v 1.08785e+22 -3.74839e+17 -2.73928e+37
v 1.3228e+38 -3.58274e+19 -5.03655e+33
v -9.28301e-39 -2.28852e+19 -9.47492e+30
v -8.502e-38 -1.11921e+19 -1.79781e+31
v 5.02628e+25 -1.17565e+17 -7.94599e+33
v 3.0548e+23 -2.3392e+17 97.4185
v 1.08646e+22 -3.90953e+17 97.4185
v 1.32232e+38 -3.68983e+19 -3.0135e+36
v 9.21474e-35 -3.14805e+06 -5.74375e+37
v 3.71943e-35 -3.49083e+06 -5.71317e+32
v 4.86517e-31 -1.38996e+06 -7.42111e+34
v 1.57217e-33 -2.35118e+06 97.4093
v 3.71767e-35 -3.58491e+06 97.4087
v 1.8525e-19 -3.58491e+06 -5.74401e+37
v 1.85309e-19 -3.49083e+06 -3.0135e+36
v 4.67539e-19 -3.14805e+06 -7.42111e+34
v 8.22009e-18 -2.35118e+06 -5.7132e+32
v 2.48284e-15 -1.38996e+06 97.4087
v -7.94143e+29 -4.18902e+32 -1.30321e+37
v -7.9424e+29 -3.95866e+32 -1.29063e+35
v -1.0003e+30 -3.18241e+32 -1.56607e+29
v -7.62807e+30 -8.93502e+31 -3.54846e+32
v -1.96942e+30 -2.20681e+32 -1.37566e-19
v -nan -6.95971e-36 -1.3844e-21
v -nan -9.07486e-36 -1.19952e-21
v -nan -1.76325e-37 1.79205e-21
v -nan -3.04104e-15 -1.90757e-19
v -1.7697e+38 -8.16528e-34 -3.874e-19
v -2.34038e+37 -4.46229e-31 -4.08154e-21
v -4.86509e+37 -8.16913e-31 -1.93458e-21
v -2.47996e+38 -1.27128e-33 -1.14883e-21
v -nan -3.93427e+12 3.20636e-21
v -nan -3.93427e+12 -1.28033e-32
v 6.23222e-31 -3.48198e-35 -1.09711e-32
v 6.8735e-31 -3.3372e-37 -4.68063e-32
v 2.20298e-31 -2.58292e-29 -2.02141e-32
v 4.30858e-31 -1.17493e-32 -1.05344e-32
v 6.87331e-31 -3.93434e+12 -1.05343e-32
v 5.76344e-27 -3.94528e+12 -1.0971e-32
v 5.7635e-27 -3.33714e-37 -1.28034e-32
v 5.23816e-27 -3.48196e-35 -2.02141e-32
v 3.66231e-27 -1.17493e-32 -4.68063e-32
v 1.87104e-27 -2.58292e-29 -5.58684e-05
v 1.39591e-34 -7.83245e-27 -9.44367e-06
v 5.84994e-33 -4.60406e-30 -0.0245057
v -5.58945e+35 -8.57294e-20 -0.000785623
v 4.9518e-37 -2.3996e-23 -0.262873
v 1.18572e-31 -7.18754e-28 -0.0524972
v 1.2285e-29 -7.66969e-31 -66.772
v 1.76906e-38 -1.95526e-21 -3.01448
v 1.51631e-34 -1.1501e-24 -1.32064e-17
v -nan -5.43145e-36 -1.91079e-17
v -1.38072e+38 -5.66062e-34 -1.14058e-17
v 1.16868e-42 -3.94528e+12 -1.1793e-17
v 8.09951e-43 -1.45658e-37 -3.79829e-17
v -1.12443e+37 -2.42007e-31 -1.42947e-06
v 4.65756e-27 -1.40412e-36 -1.79187e-06
v 2.28574e-27 -5.8421e-35 -1.27365e-06
v 5.76339e-27 -7.75597e-38 -1.23092e-06
v 5.76339e-27 -3.94528e+12 -3.19374e-06
v 5.49926e-28 -7.63869e-33 -1.59976e-17
v -4.67844e+33 -2.53858e-23 -1.90444e-19
v -5.16888e+34 -9.07706e-23 -1.75231e-20
v -3.42247e+36 -4.36538e-27 -1.56561e-18
v -7.98219e+35 -1.67195e-27 -4.57808e-16
v -3.45805e+30 -8.22419e-19 -4.07576e-14
v -2.08413e+26 -3.09963e-14 -6.34248e-16
v -2.02539e+28 -2.19544e-13 -6.25717e-18
v -1.11215e+32 -4.20216e-18 -4.65365e-30
v 1.69863e-32 -8.80488e-20 -2.70631e-31
v 7.35333e-32 -6.6618e-25 -6.7194e-26
v 5.15634e-34 -1.1919e-08 -2.93396e-28
v 2.98854e-33 -2.8133e-14 -4.65365e-30
v 1.43296e-28 -8.80488e-20 -2.70631e-31
v 6.18975e-28 -6.6618e-25 -2.93396e-28
v 2.50002e-29 -2.8133e-14 -6.7194e-26
v 4.35359e-30 -1.1919e-08 -6.04301e+27
v 1.97186e-31 -15.5882 -5.35165e+30
v -4.451e+37 -84.4849 -2.1791e+21
v 0.000436978 -0.061146 -3.89162e+24
v 8.19178e-20 -1.49274 -1.63476e+23
v -5.32373e-34 -2.66219e+17 -5.67682e+23
v 5.17205e+34 -3.26749e+15 -6.34373e+27
v 2.29243e+29 -3.0317e+16 -2.43256e+27
v -2.76679e-36 -2.75538e+18 -5.0891e+18
v -7.64573e-31 -8.86801e+15 -1.34358e+14
v -1.30289e-26 -1.10192e+14 -9.85098e+14
v -1.22143e-32 -1.71531e+12 -2.61632e+19
v -2.33861e-37 -1.22557e+14 -5.53332e+26
v 2.32704e-20 -76632.5 -9.76624e+29
v 6.21014e-27 -461954 -5.23344e+19
v 9432.56 -183.243 -1.7935e+23
v 1.45499e-10 -5697.66 -5.53332e+26
v 0.000114825 -76632.5 -9.76624e+29
v 3.16123e-11 -461954 -1.7935e+23
v 741380 -5697.66 -5.23344e+19
v 4.85401e+19 -183.243 -5.07536e+19
v -1.28655e+33 -9.6672e+29 -6.7176e+24
v -7.12178e+31 -1.65074e+31 -3.75851e+08
v -1.41065e+36 -6.57758e+25 -1.43582e+14
v -3.86134e+34 -1.5322e+28 -4.95826e+35
v -3.7037e-31 -3.22445e+21 -3.50397e+33
v -8.47464e-31 -2.19359e+21 97.4087
v -2.91762e-31 -3.88147e+21 -2.3925e+37
v -2.91732e-31 -3.73995e+21 -4.98025e+30
v -4.6289e-30 -1.05979e+21 -1.29063e+35
v -7.0626e+37 -3.18241e+32 -3.54846e+32
v -1.39157e+38 -2.20681e+32 -1.30323e+37
v -5.67976e+37 -3.95866e+32 97.4087
v -5.67859e+37 -4.18902e+32 -1.56607e+29
v -nan -8.93502e+31 -1.20676e+13
v -5.95041e-36 -0.024726 -1.0791e+10
v -1.27596e-23 -0.000109099 -2.01597e+16
v 3.97853e+22 -2.96156 -1.54906e+07
v -1.09369e-10 -2.74982e-07 -1.89268e+15
v -1.10376e-37 -1.8376e-05 -3.14199e+12
v -2.17237e-24 -1.28116e-07 -1.74192e+18
v 1.54012e+17 -0.00147832 -7.82713e+09
v -1.69085e-10 -5.48344e-10 -378738
v -8.51169e-15 -1.061e+09 -26530.1
v -8.78519e-10 -4.83816e+10 -2.2137
v -0.00265129 -3.34819e+07 -44.2971
v -7.97286e-08 -1.0025e+06 -5.67178e+09
v -3.69763e-21 -5.17529e+11 -1.88024e+13
v -1.40192e-20 -7.07869e+15 -5.30213e+08
v -1.28685e-15 -2.85477e+13 -0.000375399
v -15327.6 -11979.1 -0.00965196
v -1.52003 -451.705 -0.0118564
v 8.61182e-39 -5.05464e+19 -1.80288e-07
v 6.27068e-38 -9.33795e+15 -1558.54
v -5.37328e+37 -9.7072e+22 -5.90919e-12
v 3.63877e-37 -7.56254e+11 -0.0118564
v 8.54015e-35 -5.05464e+19 -1.80288e-07
v 5.29528e-34 -9.33795e+15 -1558.54
v 1.41163e-35 -9.7072e+22 -3.75851e+08
v 2.36487e-36 -6.57758e+25 -5.90919e-12
v 3.04417e-33 -7.56254e+11 -235361
v -2.49498e+17 -2.34287e-15 -3.23007e+07
v -13040.1 -1.42895e-12 -3043.7
v -2.96401e+29 -2.58315e-18 -3.81354e-09
v -2.81425e+14 -1.18649e-05 -1.73511e-07
v -2.73021e+11 -8.24763e-07 -0.000142993
v -8789.81 -0.00522736 -4.14977e-06
v -2.94437e+07 -0.100977 -8.12867e-12
v -7.14924e+20 -7.82013e-10 -2.61914e-12
v -2.02063e+24 -4.44092e-15 -4.3241e-10
v -2.15238e+18 -7.76486e-11 -0.241662
v -0.000142728 -17.0665 -181.442
v -2.00473e+15 -3.70171e-13 -39730.3
v -936.785 -4.05992e-10 -1.51917
v -2.67901e+26 -2.08815e-16 -181.442
v -1.40738e+23 -3.70171e-13 -39730.3
v -6.56883e+10 -4.05992e-10 -1.51917
v -1.88313e+34 -2.08815e-16 -0.0245057
v 1.41593e-36 -8.57294e-20 -1.54906e+07
v -0.0076603 -2.74982e-07 -8.83566e-20
v 1.36825e-35 -379.471 -4.35926e-16
v 2.31064e-36 -2.49571e+07 -4.54014e-23
v 8.36662e-35 -0.00288649 -9.26606e-11
v -2.91971e+17 -0.000168541 -1.5657e-13
v -2.35096e+23 -7.63481e-09 -1.1972e-07
v -9.87617e+10 -1.89307 -8.83549e-20
v 1.16134e-31 -379.471 -4.54006e-23
v 7.01595e-31 -0.00288649 -4.35919e-16
v 1.94347e-32 -2.49571e+07 -5.3279e+06
v -8.18251e-20 -2.59119e+07 -5.7241e+10
v -1.12054e-26 -9.81631e+09 -850.817
v -2.39737e-12 -29959.1 -1.20676e+13
v -4.27923e-28 -0.024726 -2.01597e+16
v 2.07122e+38 -2.96156 -1.0791e+10
v -8.9732e-16 -0.000109099 -4.85567e+22
v -5.30551e-27 -2.29381e+19 -1.03114e+18
v -2.70279e-24 -6.89724e+17 -1.0206e+27
v -7.34369e-29 -2.51914e+20 -5.07536e+19
v 7.20468e-38 -9.6672e+29 -1.43582e+14
v 3.70655e-37 -1.5322e+28 -6.7176e+24
v 1.6679e-38 -1.65074e+31 -1.37575e-15
v -4.41353e+32 -7.42206e-24 -3.57633e-14
v -1.07539e+29 -1.71475e-19 -1.46226e-16
v -1.85251e+35 -6.94213e-28 -5.58684e-05
v 1.17593e-30 -7.83245e-27 -0.000785623
v 4.18309e-33 -2.3996e-23 -9.44367e-06
v 4.89596e-29 -4.60406e-30 -37611.3
v -1.87307e+21 -3.33211e-16 -25216.6
v -1.07399e+17 -4.7197e-16 -37.3919
v -9.88716e+18 -3.81433e-14 -36.0803
v -2.4623e+26 -3.63904e-14 -47.7932
v -4.34177e+18 -5.19777e-14 -30136.1
v -4.68912e+16 -6.71775e-16 -55128.3
v -4.30573e+20 -5.77585e-16 -54.7219
v -5.66144e+25 -6.54134e-14 -4.74783e+30
v 1.33098e-38 -121.02 -4.87456e+30
v -1.06427e+23 -222.149 -1.07765e+30
v 8.70474e-27 -470370 -9.31942e+29
v 3.20256e-12 -458210 -1.6202e+30
v 8.70474e-27 -500498 -7.38652e+30
v -1.06427e+23 -235.743 -9.24188e+30
v 1.33105e-38 -138.228 -1.90713e+30
v 3.20267e-12 -512130 -7.48056e+15
v 1.77699e+36 -7.88444e-05 -5.75378e+15
v 4.70848e+27 -0.000124493 -8.07288e+13
v -1.86359e-38 -0.0931478 -8.11325e+13
v -4.4913e-31 -0.09339 -1.14687e+14
v nan -0.113299 -7.76053e+15
v 4.1474e+26 -0.000160937 -1.30972e+16
v 2.03883e+34 -0.000111215 -1.43195e+14
v -4.81183e-32 -0.133729 -2.30085e+16
v 1.44418e-41 -3.25635e+13 -2.03373e+16
v -4.17288e+30 -1.77029e+13 -1.85451e+15
v -4.17296e+30 -3.73858e+13 -2.77711e+15
v 1.44418e-41 -6.26649e+13 -2.27591e+17
v 1.51592e-41 -5.0129e+13 -2.73124e+17
v -4.17281e+30 -2.92387e+13 -1.52166e+18
v 1.51592e-41 -1.90547e+14 -2.35653e+18
v -4.17304e+30 -1.30988e+14 -4.18414e+18
v 1.51592e-41 -1.31049e+15 -8.01081e+18
v -4.17304e+30 -1.20514e+15 -3.79937e+18
v 1.58767e-41 -1.02712e+16 -7.19904e+18
v -4.17327e+30 -1.33234e+16 -1.0362e+18
v 1.58767e-41 -5.34244e+16 -1.6764e+18
v -4.17343e+30 -8.43969e+16 -1.23128e+17
v 1.58767e-41 -1.09606e+17 -1.37879e+17
v -4.17343e+30 -1.97359e+17 -1.10381e+16
v 1.58767e-41 -6.97401e+16 -8.59987e+15
v -4.17335e+30 -1.22381e+17 -1.51823e+15
v 1.51592e-41 -1.69927e+16 -9.02875e+14
v -4.17327e+30 -2.41696e+16 -5.34391e+14
v 1.44418e-41 -2.21614e+15 -2.74089e+14
v -4.17312e+30 -2.2415e+15 -7.01819e+14
v 1.44418e-41 -2.82508e+14 -3.83148e+14
v -4.17296e+30 -2.24817e+14 -1.73965e+16
v -37.2463 -8.11913e+12 -1.04119e+15
v -37.2463 -1.88647e+13 -3.83142e+17
v -37.2463 -1.41965e+13 -4.57026e+18
v -37.2493 -8.3091e+13 -1.84705e+19
v -37.2493 -1.08886e+15 -1.67765e+19
v -37.2532 -1.74493e+16 -3.14487e+18
v -37.2542 -1.60477e+17 -1.73082e+17
v -37.2542 -4.4256e+17 -6.64466e+15
v -37.2532 -2.51692e+17 -4.43612e+14
v -37.2512 -3.53593e+16 -1.15256e+14
v -37.2503 -2.28288e+15 -1.61552e+14
v -37.2483 -1.45222e+14 -1.69427e+16
v -5.7634e-28 -6.78823e+12 -9.24866e+14
v -5.7634e-28 -1.5951e+13 -4.15794e+17
v -5.7634e-28 -1.17911e+13 -5.67992e+18
v -5.76377e-28 -7.05389e+13 -2.45425e+19
v -5.76377e-28 -1.06804e+15 -2.11704e+19
v -5.76426e-28 -1.90118e+16 -3.69564e+18
v -5.76439e-28 -1.95807e+17 -1.84068e+17
v -5.76439e-28 -5.30266e+17 -6.13462e+15
v -5.76426e-28 -2.93968e+17 -3.67883e+14
v -5.76402e-28 -4.04997e+16 -9.1172e+13
v -5.76389e-28 -2.29291e+15 -1.2891e+14
v -5.76365e-28 -1.325e+14 -1.6943e+16
v -3.41721e-41 -6.78836e+12 -9.24866e+14
v -3.45308e-41 -1.5951e+13 -4.15794e+17
v -3.70419e-41 -1.17911e+13 -5.67992e+18
v -3.52483e-41 -7.05389e+13 -2.45425e+19
v -3.74007e-41 -1.06804e+15 -2.11704e+19
v -3.70419e-41 -1.90118e+16 -3.69564e+18
v -3.74007e-41 -1.95807e+17 -1.84068e+17
v -3.74007e-41 -5.30266e+17 -6.13462e+15
v -3.95531e-41 -2.93968e+17 -3.67883e+14
v -3.81181e-41 -4.05008e+16 -9.11741e+13
v -3.59657e-41 -2.29291e+15 -1.28912e+14
v -3.70419e-41 -1.325e+14 -1.52166e+18
v 7.9582e+13 -1.90552e+14 -2.27591e+17
v 4.97428e+14 -5.0129e+13 -4.18414e+18
v 3.66263e+15 -1.31049e+15 -3.7993e+18
v 4.45679e+19 -1.02712e+16 -1.0362e+18
v 7.35424e+24 -5.34244e+16 -1.23128e+17
v 1.07827e+29 -1.09606e+17 -2.77711e+15
v 1.64906e+23 -6.26649e+13 -7.01819e+14
v 2.60223e+27 -2.82499e+14 -2.30085e+16
v 4.17869e+19 -3.25635e+13 -2.03367e+16
v -4.22036e-32 -1.77029e+13 -1.90712e+16
v 1.86437e+37 -1.40599e+13 -1.53768e+15
v -1.81735e-37 -3.01691e+13 -1.85447e+15
v -1.23786e-29 -3.73858e+13 -2.7312e+17
v -1.09792e-34 -2.92392e+13 -3.0199e+17
v 1.00086e+32 -2.27581e+13 -2.35646e+18
v -5.83137e-35 -1.30988e+14 -3.13607e+18
v 3.55253e+31 -1.14191e+14 -8.01081e+18
v -1.89369e-33 -1.20514e+15 -1.09008e+19
v 1.45413e+34 -1.15237e+15 -7.19904e+18
v -1.68915e-30 -1.33231e+16 -9.24906e+18
v -1.34526e-38 -1.47825e+16 -1.67637e+18
v -6.48173e-27 -8.43969e+16 -2.04387e+18
v -2.35247e-35 -1.08298e+17 -1.37879e+17
v -4.52549e-24 -1.97359e+17 -1.46087e+17
v -8.94246e-33 -2.56416e+17 -8.59959e+15
v -1.82759e-22 -1.22381e+17 -7.9124e+15
v -3.29992e-31 -1.53735e+17 -9.02875e+14
v -4.18697e-22 -2.41696e+16 -6.99844e+14
v -8.36534e-31 -2.8113e+16 -2.74089e+14
v -6.27083e-24 -2.2415e+15 -2.09355e+14
v -2.27611e-32 -2.25182e+15 -3.83148e+14
v -1.28741e-26 -2.24817e+14 -2.72225e+14
v -1.02645e-34 -1.96977e+14 -1.98832e+16
v 2.18623e+23 -1.6366e+13 -1.74122e+15
v 4.69972e+27 -3.41016e+13 -2.8097e+17
v 1.34757e+18 -2.69242e+13 -2.63505e+18
v 4.16515e+17 -1.24993e+14 -8.74363e+18
v 1.05777e+20 -1.18645e+15 -7.92637e+18
v 1.37374e+25 -1.38454e+16 -1.80747e+18
v 2.30915e+31 -9.29357e+16 -1.4045e+17
v 1.95588e+36 -2.18448e+17 -8.35426e+15
v -9.84048e-39 -1.31861e+17 -8.30411e+14
v -3.16246e-38 -2.55792e+16 -2.50978e+14
v 2.04473e+37 -2.24535e+15 -3.40215e+14
v 8.19977e+32 -2.14887e+14 -1.10381e+16
v 6.69803e+31 -6.97401e+16 -1.51823e+15
v 1.0253e+33 -1.69927e+16 -5.34391e+14
v 6.61807e+30 -2.21614e+15 -2.33916e-14
v 3.67981e-42 -2.91455e-18 -3.2358e-14
v -4.16816e+30 -1.71559e-18 -3.42761e-15
v -4.16824e+30 -5.47676e-19 -3.2614e-15
v 4.39727e-42 -1.02812e-18 -8.95417e-14
v 5.11474e-42 -1.97156e-17 -1.52108e-13
v -4.16847e+30 -1.53314e-17 -1.30622e-13
v 4.39727e-42 -1.91257e-16 -2.26656e-13
v -4.16863e+30 -2.0772e-16 -6.92888e-14
v 5.11474e-42 -1.56912e-15 -1.10128e-13
v -4.16871e+30 -2.40304e-15 -1.41847e-14
v 5.11474e-42 -6.22877e-15 -1.99317e-14
v -4.16886e+30 -1.16435e-14 -1.83259e-15
v 5.11474e-42 -7.82583e-15 -1.79253e-15
v -4.16886e+30 -1.49552e-14 -2.47227e-16
v 4.39727e-42 -2.93359e-15 -1.84105e-16
v -4.16878e+30 -4.95993e-15 -5.90793e-17
v 5.11474e-42 -3.94008e-16 -3.61262e-17
v -4.16863e+30 -4.84222e-16 -4.10474e-17
v 4.39727e-42 -3.58365e-17 -2.26282e-17
v -4.1684e+30 -3.01546e-17 -8.42192e-17
v 4.39727e-42 -4.17166e-18 -5.07578e-17
v -4.1684e+30 -2.68167e-18 -4.12927e-16
v 4.39727e-42 -1.17288e-18 -3.37683e-16
v -4.16824e+30 -6.24002e-19 -5.17054e-14
v -37.1878 -8.8288e-19 -3.78639e-15
v -37.1887 -2.16696e-19 -3.15139e-13
v -37.1907 -1.15923e-17 -5.24723e-13
v -37.1936 -2.37259e-16 -2.19145e-13
v -37.1965 -4.08704e-15 -2.79682e-14
v -37.1965 -2.63189e-14 -1.76406e-15
v -37.1975 -3.87114e-14 -1.15143e-16
v -37.1956 -1.01174e-14 -1.7396e-17
v -37.1936 -6.77006e-16 -1.01623e-17
v -37.1907 -2.49647e-17 -2.61798e-17
v -37.1887 -1.41905e-18 -2.35972e-16
v -37.1878 -2.56097e-19 -5.67743e-14
v -5.756e-28 -7.66872e-19 -3.91779e-15
v -5.756e-28 -1.81001e-19 -3.77325e-13
v -5.75637e-28 -1.08063e-17 -6.62335e-13
v -5.75674e-28 -2.48447e-16 -2.69786e-13
v -5.75711e-28 -4.82104e-15 -3.17483e-14
v -5.75711e-28 -3.31959e-14 -1.7601e-15
v -5.75724e-28 -4.8438e-14 -1.04131e-16
v -5.75699e-28 -1.20291e-14 -1.37394e-17
v -5.75674e-28 -7.27313e-16 -8.0511e-18
v -5.75637e-28 -2.39068e-17 -2.27777e-17
v -5.756e-28 -1.21187e-18 -2.15899e-16
v -5.756e-28 -2.00824e-19 -5.67743e-14
v -1.26481e-41 -7.66872e-19 -3.91779e-15
v -1.30069e-41 -1.81004e-19 -3.77325e-13
v -1.65942e-41 -1.08063e-17 -6.62335e-13
v -1.48005e-41 -2.48447e-16 -2.69793e-13
v -1.80291e-41 -4.82104e-15 -3.17483e-14
v -1.62354e-41 -3.31959e-14 -1.7601e-15
v -1.65942e-41 -4.8438e-14 -1.04131e-16
v -1.58767e-41 -1.20291e-14 -1.37394e-17
v -1.76704e-41 -7.27313e-16 -8.05089e-18
v -1.58767e-41 -2.39072e-17 -2.27777e-17
v -1.30069e-41 -1.21187e-18 -2.15899e-16
v -1.48005e-41 -2.00827e-19 -4.1292e-16
v -7.29128e+12 -1.17286e-18 -8.42192e-17
v -1.31596e+13 -4.17166e-18 -1.30622e-13
v -4.38654e+10 -1.91257e-16 -8.95417e-14
v -1.12758e+11 -1.97156e-17 -6.92888e-14
v -3.3898e+10 -1.56912e-15 -1.41847e-14
v -6.22375e+10 -6.22877e-15 -1.83259e-15
v -2.15353e+11 -7.82583e-15 -2.47227e-16
v -9.7268e+11 -2.93359e-15 -5.90793e-17
v -4.02058e+12 -3.94008e-16 -4.10474e-17
v -1.04892e+13 -3.58365e-17 -3.2614e-15
v -2.09162e+12 -1.02815e-18 -2.33916e-14
v -4.67281e+11 -2.91455e-18 -3.2358e-14
v -7.06403e+28 -1.71557e-18 -3.91425e-14
v -3.83752e+21 -1.42233e-18 -3.51088e-15
f 40515 58535 46401
f 64579 42871 37955
f 42049 41250 16451
f 28227 60983 26433
f 26691 43611 48195
f 57153 41850 12355
f 31555 60783 31553
f 26179 43700 35907
f 31297 42361 64579
f 32579 60893 10305
f 31811 43557 22083
f 11329 42834 34371
f 65091 61220 49217
f 55363 43213 47427
f 25921 43145 10819
f 49475 61711 46145
f 65091 42752 51523
f 37697 43202 16963
f 27459 62211 45633
f 15683 42297 24387
f 56385 42977 39491
f 46915 62554 36929
f 29251 41976 43331
f 6209 42528 46147
f 12611 62713 4161
f 16451 41885 55619
f 15425 41983 5187
f 54851 62580 57153
f 40515 42048 4419
f 4417 41502 43331
f 34371 62224 11329
f 60483 42414 44355
f 41025 41216 41539
f 34883 55132 46657
f 7235 42874 26947
f 19777 41230 6211
f 7747 54824 28225
f 54851 43666 52291
f 46145 42355 57155
f 21827 54574 2113
f 36163 43197 57923
f 17985 43110 47683
f 54339 54962 47169
f 15939 42315 45891
f 11329 42948 49987
f 6979 55601 35393
f 63555 41918 28227
f 32321 41991 59459
f 59459 55850 20545
f 15683 42428 23107
f 64577 41252 5187
f 15683 32769 6976
f 10307 62325 33347
f 13888 65379 53571
f 33343 42560 23234
f 23108 13697 16196
f 23234 49281 65091
f 7235 42560 59074
f 64835 40206 24899
f 52418 53556 33859
f 26435 32769 30784
f 49731 53951 9027
f 15424 44354 63555
f 14147 32769 33344
f 61507 56024 32579
f 1088 64126 17219
f 33091 32769 24128
f 41283 62340 15171
f 12096 48838 39491
f 3907 32769 23872
f 13379 36638 20291
f 47680 48215 26179
f 22595 32769 60480
f 13123 51914 5699
f 30272 41871 58691
f 59715 32768 59968
f 51779 32926 10563
f 54336 35980 41027
f 12867 32769 47168
f 53315 49467 63299
f 23872 35965 64067
f 15683 32769 3136
f 32067 49858 835
f 1600 42901 53204
f 65091 32768 320
f 17409 32883 7747
f 320 54374 10241
f 2371 32769 58176
f 20547 35263 17987
f 50496 45308 12611
f 27971 42560 23234
f 6211 55143 10051
f 23234 45434 4163
f 29763 42560 39106
f 34883 56434 11587
f 52288 46391 16963
f 30787 32769 51776
f 41283 57813 12611
f 25920 47218 6979
f 13635 32769 55104
f 14147 52997 31555
f 44608 63042 53571
f 65087 32768 320
f 17409 49267 33347
f 23234 13697 23108
f 20291 32769 320
f 23107 32897 33347
f 23234 13697 16964
f 61185 9940 53694
f 60095 29638 33344
f 2499 2561 2049
f 2817 2305 1
f 15105 9933 59582
f 12735 29640 2368
f 707 17095 18000
f 62195 62195 62195
f 26867 63326 702
f 44991 29175 36672
f 1219 62195 65523
f 1792 62195 62195
f 35082 63348 59838
f 29631 29189 17728
f 1731 62195 26099
f 1104 62195 62195
f 19267 40122 8894
f 11967 29496 15936
f 451 62195 62195
f 1267 62195 62195
f 50497 40143 33726
f 40127 29487 35648
f 1219 62195 2035
f 2049 1 1
f 15939 16388 13501
f 48063 29693 31296
f 2243 1 2305
f 18000 17149 62195
f 59715 16435 7357
f 65215 29691 19776
f 963 1 2817
f 2049 17149 62195
f 16961 16549 51261
f 16447 29888 26816
f 2627 1 2817
f 3073 17149 62195
f 62787 16561 10301
f 22335 29888 18880
f 3139 17149 3571
f 61683 2309 65536
f 11331 10649 42814
f 35391 29832 24768
f 3651 1 3841
f 3571 17149 243
f 43585 10714 36670
f 44351 29834 7872
f 3395 1 3073
f 3827 17149 243
f 30275 64687 26430
f 38719 29352 11456
f 4163 243 4353
f 4609 17149 243
f 55875 64564 56638
f 29247 29368 7872
f 4675 17149 5107
f 4339 17149 243
f 24898 41021 34878
f 11839 29683 12736
f 3907 17149 3827
f 4339 17149 243
f 50755 40943 24126
f 50495 29676 20672
f 4163 243 4865
f 3841 17149 243
f 1236 42560 54466
f 23234 13697 24376
f 5314 243 5377
f 5633 2561 2049
f 16962 31166 59962
f 12608 7929 62525
f 6082 2561 6145
f 6401 2561 2049
f 61763 14570 41787
f 30272 2727 26173
f 6594 2561 28417
f 5956 2561 2049
f 6979 14545 41787
f 34368 2727 17213
f 7106 2561 28417
f 6468 2561 2049
f 45633 16071 12858
f 23104 62169 30524
f 6594 2561 5633
f 6913 2561 2049
f 21827 34445 30780
f 40512 3394 31038
f 7362 2561 7425
f 7681 2561 2049
f 9539 56059 27964
f 49728 62500 3389
f 7874 2561 7937
f 7169 2561 2049
f 61249 56055 27964
f 55616 62500 60733
f 8386 2561 7937
f 7681 2561 2049
f 36675 23904 60220
f 59712 55198 35901
f 7874 2561 8449
f 8193 2561 2049
f 41539 10504 59196
f 28992 36417 41533
f 7106 2561 8449
f 7681 2561 2049
f 58433 44145 55867
f 8768 41924 6461
f 7874 2561 6657
f 6913 2561 2049
f 52035 44159 55867
f 4672 41924 15677
f 6082 2561 6657
f 7681 2561 2049
f 19267 18569 47164
f 46912 47720 26685
f 7874 2561 7425
f 5956 2561 2049
f 47426 47808 8764
f 15168 47490 31037
f 8898 2561 8961
f 9217 2561 2049
f 41539 14338 47164
f 28992 41798 18749
f 9410 2561 9473
f 8705 2561 2049
f 16707 4191 11580
f 10816 22385 54333
f 9922 2561 9473
f 9217 2561 2049
f 26178 35695 23611
f 58944 31107 65085
f 9410 2561 9985
f 9729 2561 2049
f 12611 35683 23611
f 576 31108 57405
f 7106 2561 9985
f 9217 2561 2049
f 43075 10498 59196
f 32576 36417 33853
f 9410 2561 8449
f 6913 2561 2049
f 42050 23898 60220
f 65088 55198 28477
f 8386 2561 8449
f 9217 2561 2049
f 17731 47809 8764
f 13888 47490 32317
f 9410 2561 8961
f 8193 2561 2049
f 36419 16071 12858
f 23104 62169 30524
f 7106 2561 5633
f 10241 2561 2049
f 55106 7378 41019
f 10560 54079 25404
f 10434 2561 9985
f 6913 2561 2049
f 19523 7403 41019
f 3136 54079 33340
f 9922 2561 9985
f 10241 2561 2049
f 41027 4260 63034
f 43328 47134 572
f 10434 2561 10497
f 9729 2561 2049
f 53313 7101 14908
f 26432 17774 25023
f 10818 2561 11009
f 11265 1 2817
f 9795 7075 19516
f 9024 17773 51647
f 11330 1 11521
f 10753 1 2817
f 56899 35610 56381
f 8000 17364 52415
f 11842 1 12033
f 11521 1 513
f 58690 36378 22845
f 61504 17672 35775
f 11586 2561 11265
f 11777 1 2817
f 14659 25698 64830
f 5440 13758 11455
f 12354 1 12545
f 12801 1 2817
f 42051 25291 26430
f 55104 15666 37311
f 12866 1 13057
f 12289 1 2817
f 2625 5930 17214
f 44352 17070 10175
f 12098 1 11777
f 12289 1 2817
f 14403 4885 56126
f 9024 16150 18111
f 12354 1 13057
f 12033 1 513
f 28739 1333 23742
f 5439 29658 44352
f 13507 1 13569
f 13825 42560 54466
f 66 1283 44478
f 7999 29655 50240
f 14019 42560 14274
f 13506 42560 54466
f 41795 48002 48318
f 52799 29424 41280
f 14531 54466 14656
f 14912 42560 54466
f 54083 48035 21182
f 54335 29409 20544
f 15043 42560 15298
f 14530 42560 54466
f 60994 27142 52158
f 17215 29581 33856
f 13763 42560 13506
f 14530 42560 54466
f 24899 27256 20670
f 35391 29588 34624
f 14531 54466 15168
f 13569 1 54273
f 13635 16424 60093
f 61759 29686 49472
f 15555 54273 15680
f 14274 42560 2754
f 34882 16415 45245
f 53823 29686 53056
f 14275 1 13825
f 15554 42560 2754
f 67 40311 51261
f 5952 30684 52927
f 53056 15937 61634
f 49664 32859 822
f 7491 45380 36157
f 17984 30970 39615
f 49474 32859 822
f 1 1 769
f 18242 36579 52798
f 16704 26763 31935
f 1090 62195 65523
f 16640 32859 822
f 57668 32317 41022
f 47680 28903 58303
f 16450 32859 16182
f 1087 32859 822
f 24131 15446 3134
f 47168 30278 63935
f 15938 1 1
f 1025 32859 822
f 8513 9348 34878
f 38976 29457 25023
f 1090 62195 16883
f 61634 2305 1024
f 6979 17584 3900
f 60480 31097 46271
f 25017 16592 2367
f 18000 17149 1011
f 43843 17559 4412
f 49728 31097 62655
f 953 2305 49664
f 16950 17149 1011
f 60737 59312 60863
f 32320 55005 45885
f 5954 2561 17153
f 17462 1 513
f 27203 59422 6847
f 2112 54999 5181
f 17474 1 6145
f 5889 1 513
f 31299 57662 17087
f 36928 42515 23358
f 7490 29551 7236
f 17665 1 513
f 36161 58358 1983
f 16704 42844 39998
f 17730 1 17921
f 7425 29551 580
f 54996 59106 2495
f 62784 22301 29502
f 17218 2561 5889
f 7425 29551 580
f 62275 58747 53695
f 10304 22216 15934
f 7490 29551 17988
f 17153 32859 566
f 46146 59494 55999
f 13376 46731 58172
f 5187 1 6145
f 17409 1 513
f 37187 59497 8383
f 26176 46741 61500
f 17475 1 18177
f 5121 1 513
f 65091 1224 63038
f 53312 8908 35520
f 15939 1 11777
f 11265 1 2817
f 10818 1295 62270
f 10560 8946 12224
f 11331 1 49664
f 15926 1 2817
f 54851 51928 50494
f 21568 8185 64704
f 16707 65536 16640
f 12598 1 2817
f 13379 51988 11582
f 51008 8416 46016
f 12611 1 12289
f 16641 32859 566
f 58434 33321 33854
f 55360 8781 21184
f 11843 32859 15926
f 16641 32859 566
f 48963 33208 32062
f 57664 8663 39360
f 16707 65536 12544
f 11777 1 2817
f 54339 97 56893
f 47424 8987 18368
f 11075 32859 16950
f 16371 1 2817
f 49729 118 30525
f 41024 8990 20672
f 16195 1 11265
f 11009 1 2817
f 1236 42560 54466
f 59330 38440 11958
f 18626 54466 18752
f 19008 42560 54466
f 22851 5816 54327
f 31938 38469 41526
f 19138 42560 19394
f 18626 42560 54466
f 15682 58745 4667
f 46656 27788 55869
f 19650 54466 19776
f 19394 42560 194
f 65092 44048 14650
f 63552 22916 44349
f 19394 54466 19008
f 19650 42560 2754
f 32835 33997 6973
f 40000 15431 49214
f 20162 2754 20225
f 20481 42560 2754
f 61762 2906 43069
f 19264 20924 26174
f 20674 42560 20930
f 20162 42560 2754
f 36931 11532 51004
f 27200 65519 58429
f 19906 42560 19650
f 20162 42560 54466
f 17475 58355 62524
f 24128 2681 20286
f 20162 2754 20737
f 19776 42560 2754
f 16194 28082 1216
f 8767 15026 49981
f 21059 2754 21249
f 21505 1 2817
f 5955 28082 50624
f 37439 15032 37181
f 21571 1 21761
f 20993 29551 580
f 4564 28025 26560
f 1855 9835 49982
f 22083 29551 22340
f 21761 1 513
f 27458 28029 11712
f 47679 9795 65342
f 21827 2754 21505
f 22017 1 2817
f 59715 27533 9152
f 44607 63419 58174
f 22595 1 22785
f 23041 1 2817
f 46915 27559 27584
f 319 63494 56126
f 23107 1 23297
f 22529 1 2817
f 33090 27878 43456
f 27199 40236 18494
f 22339 1 22017
f 22529 1 513
f 38467 27863 18112
f 30783 40289 15422
f 22595 1 23297
f 22340 1 513
f 64835 29126 44224
f 6207 10155 9278
f 23619 42560 19650
f 19138 42560 54466
f 15170 29130 9408
f 2879 10138 52542
f 19011 42560 24002
f 23746 42560 54466
f 1091 28650 31424
f 12351 63810 31550
f 24131 54466 24384
f 20225 2754 54273
f 48707 28667 28352
f 7487 63835 64318
f 20291 42560 20162
f 24258 2754 54273
f 48962 28980 40384
f 23871 40461 36414
f 19523 42560 23746
f 24258 2754 54273
f 38211 28971 21440
f 30271 40481 30526
f 24131 54466 20032
f 19650 42560 2754
f 26947 29183 26560
f 20543 15905 54333
f 18755 54466 24640
f 24002 42560 2754
f 60738 29182 10944
f 46655 15916 17725
f 23875 42560 19138
f 18882 42560 2754
f 1091 6793 24382
f 34368 13234 42176
f 3907 17149 25075
f 25331 42560 2754
f 20035 6930 34878
f 23360 13270 2496
f 25155 42560 3522
f 3841 17149 243
f 5186 61144 53566
f 9792 12462 25024
f 4931 1 4609
f 25587 17149 243
f 57667 61040 64318
f 6976 12666 39616
f 25411 17149 25843
f 4865 1 17409
f 16853 39250 6718
f 50496 13072 64192
f 24899 1 3841
f 5107 1 17409
f 5186 39090 36670
f 43840 12975 34240
f 4931 1 25601
f 25075 17149 243
f 7235 3535 44605
f 28992 13325 23232
f 25923 16897 61683
f 3584 17149 243
f 53315 3534 45629
f 27712 13325 22464
f 3395 17149 25331
f 26050 17149 243
f 34114 49404 26941
f 36416 30621 43455
f 24898 17149 13555
f 14274 42560 2754
f 1091 49867 20797
f 41024 30953 191
f 14146 17149 25331
f 25026 17149 243
f 1091 40565 14398
f 10560 26469 4287
f 25666 17149 25587
f 14835 17149 243
f 24130 40639 35646
f 6976 28494 43711
f 14658 17149 14579
f 25601 17149 2803
f 60227 20744 36158
f 52288 30196 18367
f 13378 42560 25026
f 25843 42560 2754
f 16963 20060 54590
f 64576 29202 22719
f 25666 17149 14579
f 13506 42560 54466
f 59202 17615 5692
f 28736 31097 40895
f 25922 17149 25331
f 14274 42560 2754
f 62531 17643 18236
f 30272 31094 58815
f 14146 17149 15859
f 26050 17149 243
f 59971 3667 39616
f 17728 57249 11068
f 26179 243 26369
f 26625 1 513
f 54850 3668 65216
f 34112 57219 55100
f 26691 1 26881
f 26113 1 513
f 28483 3571 48576
f 61248 1104 45630
f 27203 1 27393
f 26881 1 513
f 43075 3622 62144
f 56640 942 58942
f 26947 243 26625
f 27137 1 513
f 16706 2726 16320
f 7744 52308 16190
f 27715 1 27905
f 28161 1 513
f 41795 3027 30144
f 11840 52843 49726
f 28227 1 28417
f 27649 1 513
f 43843 3437 26304
f 15424 33770 35134
f 27459 1 27137
f 27649 1 513
f 11330 3283 17088
f 55360 33927 17214
f 27715 1 28417
f 27393 1 513
f 22083 18812 17085
f 3073 32764 9024
f 28867 243 28929
f 29185 1 2817
f 22083 18812 17085
f 3073 32764 9024
f 29379 1 29441
f 28673 1 513
f 38210 7836 17086
f 55297 32719 50752
f 29891 243 29953
f 29441 1 513
f 38211 7836 17086
f 55553 32719 50752
f 29635 243 29185
f 29697 1 513
f 34115 58986 17086
f 60161 32352 36416
f 30403 243 30465
f 30721 1 513
f 34114 58986 17086
f 60161 32352 36416
f 30915 1 30977
f 30209 1 2817
f 61507 37166 17086
f 8705 32604 51520
f 30147 1 29697
f 30209 1 2817
f 61251 37166 17086
f 8449 32604 51264
f 30403 1 30977
f 29953 1 2817
f 33858 16319 62144
f 35392 5796 58173
f 26691 1 26369
f 20993 29551 580
f 22083 16319 9664
f 27712 5792 43325
f 21059 29551 21828
f 26625 1 513
f 29251 16240 3264
f 17984 6511 64574
f 22339 1 27137
f 26625 1 513
f 17986 16267 11456
f 57152 6395 574
f 26691 1 21761
f 22273 1 513
f 57667 15564 18368
f 14400 59637 62270
f 23363 29551 23108
f 27905 1 513
f 28884 15715 42944
f 48192 59928 31038
f 27971 1 27649
f 23297 1 2817
f 62786 16090 7104
f 29504 38146 19518
f 27203 1 22273
f 23297 1 2817
f 57667 16012 10688
f 1856 38266 52542
f 23363 29551 27716
f 27137 1 513
f 23875 17448 22717
f 28863 31043 51264
f 963 1 2305
f 28673 1 513
f 58946 17462 44733
f 39359 31043 45376
f 28867 1 29441
f 769 1 2817
f 63811 9782 26814
f 42943 30991 30272
f 30147 1 1
f 769 1 2817
f 30787 9751 48574
f 19391 30993 52544
f 963 1 29441
f 29953 1 2817
f 14402 62747 55998
f 25535 30556 58176
f 31171 243 30721
f 1281 1 2817
f 63299 62782 10174
f 43711 30562 62016
f 1475 1 1025
f 30977 1 513
f 31043 39704 34494
f 41151 30854 21056
f 2499 2561 29953
f 30977 1 513
f 66 39726 64190
f 53183 30851 19776
f 31171 243 1025
f 1 1 513
f 14915 50146 29887
f 25408 39398 12092
f 23874 42560 24770
f 26113 1 513
f 44611 50144 51135
f 39488 39373 14140
f 26178 1 26881
f 23809 1 513
f 60226 49925 58559
f 38208 56621 26685
f 27458 1 23553
f 23809 1 513
f 28483 50066 15807
f 2112 56240 38717
f 23874 42560 27074
f 27393 1 513
f 58435 48029 23999
f 36160 44504 25150
f 28482 1 28161
f 24321 1 513
f 17474 48858 36799
f 34880 45227 59710
f 24386 1 24065
f 28417 1 513
f 63299 49698 46527
f 53824 25288 20798
f 23618 1 27393
f 28417 1 2817
f 18243 49273 22975
f 19008 25632 61502
f 28482 1 24065
f 23553 1 513
f 43330 29138 44864
f 33727 6240 25534
f 31427 1 31489
f 31745 1 1
f 2627 29141 51008
f 8127 6249 22462
f 31939 1 32001
f 31233 1 1
f 47171 28757 2112
f 48319 56872 38846
f 32451 1 32513
f 32769 1 1
f 24898 28771 46656
f 42943 56870 64958
f 32963 1 33025
f 32257 1 1
f 48707 29024 61760
f 49087 35880 1726
f 31683 1 31233
f 32257 1 1
f 53827 29016 30016
f 25279 35867 6078
f 32451 1 33025
f 31489 1 1
f 18754 29183 8000
f 4031 15885 45757
f 33475 1 33537
f 32001 1 1
f 11220 29184 1600
f 12479 15898 51645
f 32195 1 31745
f 33281 1 1
f 32067 29426 48064
f 1599 16073 30269
f 33859 1 34049
f 34305 1 1
f 16962 29426 6848
f 48703 16086 58941
f 34371 1 34561
f 33793 1 1
f 4419 29382 23744
f 29503 6051 14142
f 34883 1 35073
f 34561 1 1
f 54851 29383 1728
f 51519 6029 18494
f 34627 1 34305
f 34817 1 1
f 45633 29010 53184
f 27455 56427 63550
f 35395 1 42753
f 35841 1 1
f 42563 29022 18624
f 43583 56487 11838
f 35907 1 36097
f 35329 1 1
f 44611 29270 33728
f 42303 35578 55358
f 35139 1 34817
f 35329 1 1
f 21057 29264 10176
f 1343 35607 34622
f 35395 1 36097
f 35073 1 1
f 54851 4059 18622
f 9407 25776 41280
f 36547 1 36609
f 36865 1 513
f 55619 3905 27838
f 32959 25782 14144
f 37059 1 37121
f 36353 1 513
f 24897 53345 48830
f 49599 25389 10048
f 37571 1 37633
f 37889 1 513
f 20803 53656 12478
f 39359 25421 63040
f 38083 1 38145
f 37377 1 513
f 51779 33661 13758
f 7359 25671 23872
f 36803 1 36353
f 37377 1 513
f 31041 33836 16830
f 44223 25651 35648
f 37571 1 38145
f 36609 1 513
f 16707 13323 59581
f 36543 25822 52032
f 38595 1 38657
f 37121 1 513
f 60995 13322 58301
f 36031 25822 51776
f 37315 1 36865
f 38401 1 513
f 26945 17543 4156
f 55616 31097 18623
f 38978 1 39169
f 63939 2562 2049
f 45891 20134 62269
f 53568 31034 17343
f 39746 2562 39937
f 40193 2562 2049
f 59715 22261 53565
f 6208 30950 20671
f 40258 2562 40449
f 39681 2562 2049
f 49729 22261 54845
f 55360 30949 5567
f 40770 2562 40449
f 40193 2562 2049
f 34627 24703 30525
f 9024 31027 45503
f 40258 2562 63745
f 40705 2562 2049
f 11587 7768 58942
f 38464 30215 37311
f 41026 1 41217
f 41473 2562 2049
f 5698 9498 15678
f 35136 29684 4799
f 41538 2562 41729
f 40961 2562 2049
f 5955 9498 15678
f 36416 29684 5823
f 42050 2562 41729
f 41473 2562 2049
f 57923 11844 10046
f 58176 30119 36031
f 41538 2562 42241
f 41985 2562 2049
f 51521 57164 14653
f 33856 30490 5055
f 40770 2562 42241
f 41473 2562 2049
f 34627 54482 24125
f 51264 30765 959
f 41538 2562 40449
f 40705 2562 2049
f 43331 54482 22845
f 2624 30766 16063
f 39746 2562 40449
f 41473 2562 2049
f 44097 51781 61757
f 19008 30551 33727
f 41538 2562 41217
f 39681 2562 2049
f 51779 13965 39742
f 18496 29528 54463
f 42562 2562 42753
f 43009 2562 2049
f 53315 16809 3646
f 11584 30002 5823
f 43074 2562 43265
f 42497 2562 2049
f 10050 63718 49981
f 8512 30416 31167
f 43586 2562 43265
f 43009 2562 2049
f 63811 60417 47933
f 5184 30724 51135
f 43074 2562 43777
f 43521 2562 2049
f 57411 60417 48445
f 59712 30723 41919
f 40770 2562 43777
f 43009 2562 2049
f 54338 57164 14141
f 39488 30490 9919
f 43074 2562 42241
f 40705 2562 2049
f 60739 11844 10046
f 64064 30119 40639
f 42050 2562 42241
f 43009 2562 2049
f 58179 13965 38974
f 32832 29528 11967
f 43074 2562 42753
f 41985 2562 2049
f 43330 24703 29757
f 23104 31027 58047
f 40770 2562 63745
f 44033 2562 2049
f 835 27294 49981
f 12096 30933 16831
f 44098 2562 43777
f 40705 2562 2049
f 7235 27294 49725
f 22592 30933 25791
f 43586 2562 43777
f 44033 2562 2049
f 9538 30275 48445
f 5952 31018 58047
f 44098 2562 44289
f 43521 2562 2049
f 2371 24513 9022
f 41792 12223 2235
f 44738 2562 44801
f 45057 1 513
f 11587 24513 8510
f 64 12222 4795
f 45250 1 45313
f 44545 1 513
f 62273 25677 5438
f 46144 36686 49467
f 45762 1 45825
f 45313 1 2817
f 60628 24554 64062
f 53312 31481 39483
f 45506 2562 45057
f 45569 1 2817
f 65347 34334 58174
f 35648 28520 21052
f 46274 1 46337
f 46593 1 2817
f 55361 29315 13630
f 41024 42017 44860
f 46786 1 46849
f 46081 1 2817
f 18244 25800 22334
f 9280 22725 6204
f 46018 1 45569
f 46081 1 2817
f 24899 29175 10046
f 19264 25921 52284
f 46274 1 46849
f 45825 1 513
f 37185 30058 61248
f 13375 5878 52926
f 47299 1 47361
f 47617 1 1
f 1348 30057 13632
f 29759 5891 13758
f 47811 1 47873
f 47105 1 1
f 1347 29727 2112
f 49983 56078 41406
f 48323 62019 48385
f 48641 1 1
f 45377 29718 35136
f 30783 56045 37054
f 48835 1 16129
f 48182 62019 1
f 6979 29950 23104
f 5439 35309 6846
f 47555 1 47105
f 48129 62019 1
f 52291 29954 24896
f 3647 35295 16062
f 48323 62019 48897
f 47361 1 1
f 50241 30098 62272
f 18239 16615 62397
f 49347 1 49409
f 47873 1 1
f 40771 30098 60992
f 31551 16621 57021
f 48067 1 47617
f 49153 62019 1
f 28995 38329 43579
f 24128 17588 31036
f 31426 1 49665
f 49931 1 769
f 38721 16470 58169
f 5696 62001 39483
f 50114 1 32001
f 31233 1 769
f 1603 11918 20029
f 21568 45742 27708
f 32450 1 32513
f 50177 1 769
f 35907 40849 44092
f 61248 10914 7741
f 50370 1 50433
f 32257 1 769
f 9794 40620 23099
f 320 35990 61500
f 49858 1 31233
f 32257 1 769
f 54083 38206 50492
f 28736 57727 63548
f 32450 1 50433
f 49665 10 779
f 58580 1191 54326
f 37826 53339 33458
f 50882 1 33537
f 32001 1 769
f 322 1192 54326
f 57026 53320 33458
f 32194 10 49931
f 50689 32769 822
f 19012 54567 22077
f 50496 6841 31936
f 39747 2562 50945
f 51201 1 2817
f 1236 54638 1597
f 64 6875 44224
f 51267 1 39937
f 39681 1 2817
f 34882 40304 54078
f 26432 6261 15296
f 41283 2562 40961
f 51457 1 2817
f 21315 40453 49982
f 1088 6477 42432
f 51523 1 51713
f 41217 2562 2817
f 31043 18649 44862
f 51520 6756 33216
f 51011 2562 39681
f 41217 1 2817
f 21826 18501 56894
f 51520 6652 51392
f 41283 2562 51713
f 50945 2562 513
f 38723 62427 56892
f 21824 6906 36544
f 38979 1 39937
f 51201 1 2817
f 9539 62423 45884
f 56640 6907 8640
f 51267 1 51969
f 38913 1 2817
f 22850 65232 19647
f 59200 46050 49725
f 49730 1 45569
f 45057 1 513
f 37187 65322 25791
f 48704 46041 36413
f 45122 10 49931
f 49665 1 513
f 42563 63971 44735
f 40000 33978 23358
f 50498 1 50177
f 46337 1 513
f 62785 64517 60863
f 19264 34269 59966
f 46402 1 46081
f 50433 1 2817
f 29763 65089 18111
f 10560 10788 54846
f 45634 1 49665
f 50433 1 2817
f 62787 64811 49087
f 27456 10715 36670
f 50498 1 46081
f 45569 1 2817
f 20545 65383 47807
f 12608 51330 50492
f 44866 1 50689
f 49974 1 2817
f 25667 65375 65471
f 23104 51349 15420
f 49986 1 45057
f 44801 1 2817
f 34627 17527 4924
f 46144 31097 22207
f 52290 1 52481
f 52737 62019 1
f 16705 17485 9276
f 41536 31096 60607
f 52802 62019 52993
f 52225 62019 1
f 6467 10900 62269
f 44352 30806 50623
f 53314 1 53505
f 52993 62019 1
f 34627 13082 42045
f 4672 31045 42943
f 53058 1 52737
f 53249 62019 1
f 26945 505 24382
f 45888 28177 55231
f 53826 1 54017
f 54273 62019 1
f 41795 64230 14141
f 56640 29687 26559
f 54338 62019 54529
f 53761 62019 1
f 57411 43499 9533
f 25664 30661 42175
f 53570 62019 53249
f 53761 62019 1
f 54593 40691 57149
f 63296 29952 48575
f 53826 1 54529
f 53505 62019 1
f 43587 15699 1341
f 59199 28825 23488
f 54851 1 55041
f 55297 1 2817
f 54595 15675 20029
f 8255 28825 53696
f 55363 1 55553
f 54785 1 2817
f 49217 6054 62
f 7487 28779 27328
f 55875 1 56065
f 55553 1 513
f 29507 6076 57150
f 11583 28782 44736
f 55619 1 55297
f 55809 1 513
f 37699 56626 21054
f 25151 28397 24000
f 56387 1 56577
f 56833 1 513
f 12609 56608 24126
f 49983 28413 39360
f 56899 1 57089
f 56321 1 513
f 19779 35726 63806
f 36671 28665 56512
f 56131 1 55809
f 56321 1 2817
f 45635 35703 31038
f 13119 28658 62144
f 56387 1 57089
f 56065 1 2817
f 46914 6422 34622
f 19519 29648 23488
f 57411 61953 53249
f 52737 62019 1
f 20291 6435 64574
f 24127 29651 21952
f 52803 62019 57601
f 57345 62019 1
f 41795 57094 36158
f 58687 29272 54720
f 57923 1 58113
f 54017 1 1
f 21570 57091 12350
f 55359 29284 47040
f 54083 62019 53761
f 57857 1 1
f 41027 36008 2110
f 34111 29534 37312
f 53315 1 57345
f 57857 1 1
f 2115 36001 52030
f 32063 29530 37056
f 57923 1 53761
f 53249 62019 1
f 61506 16352 13885
f 48191 29693 28352
f 52547 1 58369
f 57601 1 1
f 51523 16366 6717
f 35647 29694 13248
f 57667 62019 52737
f 52481 1 1
f 34627 6089 32704
f 54592 49749 12349
f 35138 1 58625
f 58881 1 1
f 41026 6125 62144
f 24640 49690 2109
f 58946 1 34561
f 35073 62019 1
f 16195 5556 48064
f 20288 36038 41022
f 36162 1 35841
f 59137 62019 1
f 24387 5762 5312
f 33600 36310 40510
f 59202 62019 59393
f 36097 1 1
f 19010 6018 4032
f 30016 13065 59198
f 58690 1 35073
f 36097 1 1
f 38723 5915 27328
f 7232 13067 18238
f 36162 1 59393
f 58625 1 1
f 2371 6153 27840
f 24896 61142 51260
f 59714 1 33793
f 34561 1 1
f 39746 6152 48832
f 30016 61147 46652
f 34626 1 58881
f 59649 1 1
f 22083 34678 61243
f 2624 31448 62523
f 58818 1 47105
f 47873 1 1
f 28227 48753 64056
f 36416 29308 63291
f 48066 1 58881
f 58625 1 1
f 54594 10004 28733
f 59200 3789 14652
f 59586 1 59137
f 48385 62019 1
f 14147 35390 6460
f 13120 19437 29756
f 48578 62019 48129
f 59393 1 1
f 24387 36730 53563
f 64064 2664 47932
f 47298 1 58625
f 59393 1 1
f 41281 34606 20028
f 33600 1871 10300
f 59586 1 48129
f 47105 1 1
f 1236 42560 54466
f 23234 13697 38968
f 59842 1 58881
f 47873 1 1
f 1236 42560 65474
f 1088 42560 38850
f 48066 1 49409
f 59649 1 1
f 35393 2135 64061
f 31808 11604 24768
f 59971 1 60161
f 60417 1 513
f 63555 2146 12093
f 22592 11605 6592
f 60483 1 60673
f 59905 1 513
f 52803 57527 35133
f 56384 11546 45760
f 60995 1 61185
f 60673 1 513
f 22081 57703 65085
f 22336 11573 64448
f 60739 1 60417
f 60929 1 513
f 50755 42139 31294
f 10560 11037 14016
f 61507 1 61697
f 61953 1 513
f 42563 42149 61758
f 45120 11199 13504
f 62019 1 62209
f 61441 1 513
f 59969 20742 40254
f 20544 11461 54976
f 61251 1 60929
f 61441 1 513
f 9283 20481 64062
f 12864 11380 61888
f 61507 1 62209
f 61185 1 513
f 4419 32764 1088
f 21442 18709 9405
f 62659 42560 62914
f 63170 1 2817
f 3906 32764 1088
f 20674 18709 9149
f 63171 1 63233
f 62465 1 2817
f 55619 32719 1088
f 26306 7837 64702
f 63683 42560 63938
f 63233 1 513
f 55619 32719 1088
f 26306 7837 64702
f 63427 42560 63170
f 63489 1 513
f 58177 32352 1088
f 28866 58988 46014
f 64195 1 64257
f 64513 1 513
f 58179 32352 1088
f 28866 58988 46014
f 64707 1 64769
f 64001 1 513
f 9795 32604 1088
f 16834 37165 42430
f 63939 1 63489
f 64001 1 513
f 9794 32604 1088
f 16834 37165 42430
f 64195 1 64769
f 63745 1 513
f 20547 8988 57405
f 26432 20321 1984
f 60483 1 60161
f 54785 1 2817
f 5187 8992 13885
f 10304 20321 46528
f 54851 1 55553
f 60417 1 513
f 45634 1199 3390
f 3648 20269 14784
f 56131 1 60929
f 60417 1 513
f 61507 1258 2110
f 27200 20283 3264
f 60483 1 55553
f 56065 1 513
f 31555 49691 37438
f 9792 19830 51392
f 57155 1 56833
f 61697 1 513
f 31042 49674 9790
f 11840 19914 56512
f 61763 1 61441
f 57089 1 513
f 37955 30101 33342
f 30272 20168 32192
f 60995 1 56065
f 57089 1 513
f 49219 29947 32062
f 31552 20128 49088
f 57155 1 61441
f 60929 1 513
f 19522 30831 59200
f 20671 17179 5565
f 32195 1 33537
f 62465 1 2817
f 2115 30831 4928
f 34495 17191 29885
f 62659 42560 63426
f 32194 1 2817
f 65091 30785 64320
f 32703 7104 19902
f 63939 1 31233
f 32194 1 2817
f 4417 30787 15936
f 29119 7116 20670
f 32195 1 63233
f 63745 1 513
f 44355 30411 38208
f 24767 58091 6846
f 64963 1 64513
f 32513 1 2817
f 57411 30417 49984
f 14783 58077 10174
f 32707 1 32257
f 64769 1 513
f 8514 30670 53056
f 42943 36630 5054
f 31427 1 63745
f 64769 1 513
f 61507 30667 29504
f 28351 36620 50878
f 64963 1 32257
f 31233 42560 706
f 35907 57111 54076
f 43584 3532 64192
f 57667 62019 58369
f 59905 1 513
f 53826 57129 29500
f 48704 3531 52160
f 59971 1 60673
f 57601 1 513
f 5187 47674 28733
f 51264 3467 39104
f 61251 1 57345
f 57601 1 513
f 45891 47892 24125
f 15936 3505 11968
f 57667 62019 60673
f 61185 1 513
f 20546 34939 38718
f 22336 2895 12480
f 62275 1 61953
f 58113 1 513
f 57155 34984 53054
f 60992 3132 65216
f 58179 1 57857
f 62209 1 513
f 835 11799 54334
f 47424 3396 38080
f 57411 61953 61185
f 62209 1 513
f 20802 11461 12094
f 20544 3281 21696
f 62275 1 57857
f 57345 1 513
f 26947 29075 55232
f 20671 27332 24126
f 65091 1 65281
f 49575 9 1
f 14403 29083 30656
f 39103 27385 41022
f 49475 9 257
f 65025 1 1
f 18241 29183 7872
f 16575 15910 40509
f 579 9 769
f 1025 9 1
f 11220 29184 1728
f 32703 15889 15933
f 1091 9 1281
f 513 9 1
f 44867 29153 27072
f 20415 1316 39486
f 65347 16133 65191
f 513 9 1
f 2114 29152 7360
f 31167 1305 6718
f 579 9 1281
f 65281 16133 49575
f 47939 28920 38592
f 25535 48153 14398
f 1603 9 1793
f 257 9 1
f 48340 28902 25536
f 34239 48087 27966
f 323 9 1
f 1537 9 1
f 57922 29323 1344
f 61503 26139 33470
f 2243 9 2305
f 2561 9 1
f 54740 29332 17728
f 44607 26000 37310
f 2755 9 2817
f 2049 9 1
f 33492 29426 37184
f 57151 16108 15293
f 3267 9 3329
f 3585 9 1
f 17730 29426 1344
f 10559 16081 21949
f 3779 9 3841
f 3073 9 1
f 43331 29398 57152
f 43327 762 32190
f 2499 9 2049
f 3073 9 1
f 18755 29395 15680
f 36159 837 26558
f 3267 9 3841
f 2305 9 1
f 17986 29176 6208
f 10047 47117 39102
f 4291 9 4353
f 2817 9 1
f 16707 29158 12096
f 18239 47204 41662
f 3011 9 2561
f 4097 9 1
f 48963 64915 63036
f 49984 6546 37950
f 7362 2561 7937
f 4609 9 257
f 13634 24808 56125
f 20288 11324 32062
f 4802 9 4865
f 7169 2561 2049
f 33603 35068 46141
f 46656 26881 14142
f 5314 9 4865
f 4609 9 257
f 21059 49254 30013
f 61248 16522 48958
f 4802 9 5377
f 5121 9 257
f 30273 49254 30269
f 60224 16522 50238
f 5826 9 5377
f 4609 9 257
f 58435 24861 43581
f 38208 11393 32830
f 4802 9 5889
f 5633 2562 2049
f 32067 16236 7229
f 832 713 63294
f 8386 1 5889
f 4609 9 257
f 35905 64912 63292
f 54592 6546 30526
f 4802 9 7937
f 8193 2561 2049
f 1859 24433 574
f 53568 49855 64830
f 6338 9 6401
f 6657 9 257
f 38211 35559 12862
f 17216 37463 43070
f 6850 9 6913
f 6145 9 257
f 21569 35559 12862
f 24128 37463 39230
f 7362 9 6913
f 6657 9 257
f 55107 13074 11838
f 15424 34499 9278
f 6850 9 7425
f 7169 9 257
f 14659 6689 43582
f 11584 18985 60990
f 5826 9 7425
f 6657 9 257
f 6465 58819 53565
f 57920 33178 51262
f 6850 9 5377
f 5633 2562 2049
f 58691 58818 53309
f 59200 33178 50494
f 5314 9 5377
f 6657 9 257
f 26435 14679 16958
f 24640 36666 17470
f 6850 9 6401
f 5121 9 257
f 59970 26041 59966
f 47680 15968 44350
f 7874 9 7937
f 8193 2562 2049
f 23363 4121 32830
f 40512 12053 59966
f 8386 2562 8449
f 7681 2562 2049
f 42819 412 2110
f 59200 2049 31550
f 8898 2562 8449
f 8193 2562 2049
f 24897 47852 42557
f 27200 14022 35134
f 8386 2562 8961
f 8705 2562 2049
f 33603 47852 42557
f 25920 14022 36158
f 5826 2562 8961
f 8193 2562 2049
f 28995 6689 43326
f 6464 18985 62526
f 8386 9 7425
f 5633 2562 2049
f 5442 13075 11582
f 11840 34499 10814
f 7362 9 7425
f 8193 2562 2049
f 61507 26041 59710
f 46656 15968 44350
f 8386 9 7937
f 7169 9 257
f 4931 9526 50749
f 31808 50346 6717
f 8898 2561 9217
f 9473 9 257
f 55618 54525 2620
f 8512 59720 17213
f 9666 9 8961
f 8705 2561 2049
f 34883 54526 2620
f 6464 59720 18749
f 8386 2561 8961
f 9473 9 257
f 57411 16236 7485
f 65344 712 65086
f 9666 9 5889
f 8193 2561 2049
f 25665 24862 43581
f 36160 11393 34878
