v -0.9374999403953552 0.5822392106056213 -1.0
v 0.5822392106056213 -1.0 0.7032705545425415
v -0.9374999403953552 0.7032705545425415 -0.8652342557907104
v 0.7032706141471863 -0.8652342557907104 0.5822392702102661
v -0.7734373807907104 0.7032706141471863 -0.7734373807907104
v 0.5822392702102661 -0.6523435711860657 0.7032706141471863
v -0.6523436307907104 0.5822392106056213 -0.49218735098838806
v 0.5822392702102661 -0.49218735098838806 0.703270673751831
v -0.3027341663837433 0.5822392106056213 -0.3027341663837433
v 0.703270673751831 -0.09374978393316269 0.7032707929611206
v -0.09374978393316269 0.5822392702102661 0.1250002384185791
v 0.7032707929611206 0.1250002384185791 0.5822392106056213
v 0.3437502384185791 0.5822392106056213 0.3437502384185791
v 0.7032707929611206 0.5625002384185791 0.7032708525657654
v 0.5625002384185791 0.5822392702102661 0.7812502384185791
v 0.7032709121704102 0.7812502384185791 0.5822392702102661
v 1.000000238418579 0.7032709121704102 1.000000238418579
v 0.5822392106056213 1.218750238418579 0.5822392702102661
v 1.218750238418579 0.7032709121704102 1.437500238418579
v 0.5822392106056213 1.4375003576278687 0.7032709121704102
v 1.6562504768371582 0.7032710909843445 1.6562503576278687
v 0.5822392702102661 1.8750004768371582 0.7032710909843445
v 1.875000238418579 0.5822392106056213 2.093750238418579
v 0.5822392106056213 2.093750476837158 0.7032710909843445
v 2.302734851837158 0.7032711505889893 2.302734851837158
v 0.5822392702102661 2.492187976837158 0.7032712697982788
v 2.4921875 0.5822392702102661 2.652344226837158
v 0.7032712697982788 2.65234375 0.5822392106056213
v 2.7734375 0.5822392106056213 2.773437976837158
v 0.7032712697982788 2.865234851837158 0.7032712697982788
v 2.865234375 0.5822392702102661 2.9375
v 0.7032712697982788 2.9375 0.5822392702102661
v 3.0 0.7032712697982788 3.0
v 0.5822392106056213 -0.9375000596046448 0.5956807136535645
v -1.0 0.5956806540489197 -1.0
v 0.7032705545425415 -0.9375000596046448 0.7032705545425415
v -0.8652345538139343 0.7032706141471863 -0.8652345538139343
v 0.5956807136535645 -0.7734376788139343 0.7032706141471863
v -0.7734376788139343 0.5956807136535645 -0.6523439288139343
v 0.7032706141471863 -0.6523439884185791 0.5956807136535645
v -0.4921877384185791 0.5956807136535645 -0.4921876788139343
v 0.703270673751831 -0.3027346134185791 0.5956807732582092
v -0.30273452401161194 0.703270673751831 -0.09375016391277313
v 0.7032707929611206 -0.0937502309679985 0.595680832862854
v 0.12499986588954926 0.7032707929611206 0.12499977648258209
v 0.595680832862854 0.3437497913837433 0.595680832862854
v 0.34374988079071045 0.7032707929611206 0.5624998807907104
v 0.7032708525657654 0.5624998807907104 0.595680832862854
v 0.7812498807907104 0.7032709121704102 0.7812498807907104
v 0.595680832862854 0.9999998807907104 0.7032709121704102
v 0.9999998807907104 0.5956808924674988 1.21875
v 0.5956809520721436 1.21875 1.189572019402649e-37
v -2.3024620907907232e-33 -4.124062808328103e+31 5.436920826903076e+30
v 15580.8447265625 1.670900777901143e-37 4.0505341461405446e-20
v 1.692912895257759e+22 -1.7228439216096268e-18 1.692899722228849e+22
v -1.7228439216096268e-18 1.670896854265443e-37 0.5831291675567627
v 2.093750238418579 0.5831242203712463 1.69381474108314e+22
v 0.7040894031524658 2.302734851837158 0.7032711505889893
v 1.6938148536731306e+22 0.5829956531524658 2.492187976837158
v 0.7032712697982788 1.6938146284931492e+22 2.6229374228137203e-09
v 1.6938146284931492e+22 2.6229374228137203e-09 2.7734375
v 0.5822392106056213 2.773437976837158 0.5822392106056213
v 1.6938148536731306e+22 0.7040894031524658 2.865234851837158
v 0.7032712697982788 1.6938146284931492e+22 0.7040894031524658
v 2.9375 0.7032712697982788 1.6938146284931492e+22
v 0.5956757068634033 1.9536645521830986e-16 0.5822392106056213
v 1.9536646845319967e-16 0.5822392106056213 1.208692756016832e-26
v 1.8877875355183026e+29 1.208692756016832e-26 0.7032246589660645
v 1.208692756016832e-26 0.7050557136535645 1.9536646845319967e-16
v 0.7032566666603088 1.2086929100912276e-26 9759.6328125
v 1.9536646845319967e-16 0.7033024430274963 1.2086929100912276e-26
v 0.703270435333252 1.9536310679119025e-16 0.7032414078712463
v 1.9535973189429103e-16 0.7034855484962463 1.2086929871284254e-26
v 0.5938496589660645 1.9535975836407064e-16 0.5941258072853088
v 1.2086734196801904e-26 0.595207691192627 1.2086536211203621e-26
v 0.703270435333252 1.9535978483385024e-16 0.7056065201759338
v 1.2086556240875043e-26 0.706779956817627 1.9536008923631566e-16
v 0.7032719254493713 1.9536267003982682e-16 0.7066898941993713
v 1.2086706463410705e-26 0.5975117683410645 1.2086726493082127e-26
v 0.5956807136535645 1.9535962601517263e-16 0.7068882584571838
v 1.2086728033826082e-26 39038.53125 1.9535373648921125e-16
v 2.405416097364306e+38 1.2086383677552026e-26 2.026996431711887e+38
v 1.9535373648921125e-16 0.7032719254493713 1.953562643531632e-16
v -1.489236229336469e-22 1.208618646232572e-26 0.5956807136535645
v 1.953529026911538e-16 -1.0731077964010183e-05 1.208618646232572e-26
v -2198906863616.0 1.208618646232572e-26 -2619831484416.0
v 1.953529026911538e-16 -5.571894240122239e+28 1.208618646232572e-26
v -1.8877875355183026e+29 1.9535034835742223e-16 3.38613115067453e-35
v 1.9534697346052302e-16 2.4073620644541207e-35 1.2086187232697698e-26
v 2.8272050693461974e-27 1.2085990017471393e-26 0.5839619636535645
v 1.9534613966246556e-16 5.420897448210723e-20 1.2085792802245088e-26
v 0.7050557136535645 1.9534615289735536e-16 8.526274982269613e-14
v 1.2085792802245088e-26 0.7050557136535645 1.9534612642757576e-16
v 2.622961625675657e-09 1.9534612642757576e-16 3.7252123608055854e-09
v 1.2085792802245088e-26 1.3351331290323287e-05 1.2085792802245088e-26
v 0.5839619636535645 1.9534615289735536e-16 0.7040959000587463
v 1.2085743498438511e-26 0.7050557136535645 1.9534612642757576e-16
v 2.8163836002349854 1.2085743498438511e-26 2.820222854614258
v 1.95343585328734e-16 0.7040959000587463 1.9536645521830986e-16
v 0.5822392106056213 1.9536646845319967e-16 0.5822392106056213
v 1.208692756016832e-26 1.881791263453014e+29 1.208692756016832e-26
v 0.7031941413879395 1.208692756016832e-26 0.7031331062316895
v 1.9536646845319967e-16 0.7032261490821838 1.2086929100912276e-26
v 9728.1328125 1.9536646845319967e-16 0.7032414078712463
v 1.2086929100912276e-26 0.7031331062316895 1.9536310679119025e-16
v 0.7031345963478088 1.9535973189429103e-16 0.7033482193946838
v 1.2086929871284254e-26 0.5937581062316895 1.9535975836407064e-16
v 0.5939579606056213 1.2086734196801904e-26 0.594536304473877
v 1.2086536211203621e-26 0.703178882598877 1.9535978483385024e-16
v 0.7063389420509338 1.2086556240875043e-26 -3.266384010203183e-05
v 1.9536267003982682e-16 0.7031345963478088 1.9535989071296864e-16
v 0.7068882584571838 1.2086706463410705e-26 0.5976033210754395
v 1.2086726493082127e-26 0.5820393562316895 1.9535639670206122e-16
v 131069.2578125 1.2086726493082127e-26 152578.125
v 1.953529026911538e-16 2.405831481112989e+38 1.2086383677552026e-26
v 1.9057659114817512e-43 1.953529159260436e-16 0.7032719254493713
v 1.953562643531632e-16 0.7032719254493713 1.2086333603373472e-26
v 0.593773365020752 1.953529026911538e-16 0.5956822037696838
v 1.2086137928891122e-26 -2611509985280.0 1.2086137928891122e-26
v -2611577094144.0 1.953529026911538e-16 0.7032719254493713
v 1.2086140240007055e-26 -1.881791263453014e+29 1.9535034835742223e-16
v 3.385543403499119e-35 1.9534697346052302e-16 3.385543403499119e-35
v 1.2086187232697698e-26 2.8274022845725026e-27 1.2085990017471393e-26
v 0.5820698738098145 1.9534613966246556e-16 0.7032719254493713
v 1.2085745039182467e-26 0.7050557136535645 1.9534615289735536e-16
v 8.526795399312406e-14 1.2085792802245088e-26 0.7050557136535645
v 1.9534612642757576e-16 2.622961625675657e-09 1.9534612642757576e-16
v 2.622961625675657e-09 1.2085743498438511e-26 0.5839619636535645
v 1.2085745039182467e-26 0.5839619636535645 1.9534615289735536e-16
v 0.7040959000587463 1.2085743498438511e-26 0.7050557136535645
v 1.9534612642757576e-16 2.8163836002349854 1.2085743498438511e-26
v 2.820222854614258 1.95343585328734e-16 0.5956822037696838
v 0.0 1.3312335411085762e-42 0.0
v 0.0 -0.9374999403953552 0.5937595963478088
v -1.0 0.5937580466270447 -1.0
v 0.7032705545425415 2.865234613418579 0.5822392702102661
v -0.8652345538139343 0.7032706141471863 2.8652350902557373
v 0.5822392702102661 -0.7734376788139343 0.7032706141471863
v 0.12500004470348358 -3.7392289064871155e+36 2.8652796745300293
v 0.5822392702102661 -0.6523439884185791 0.5956807136535645
v 1.1210387714598537e-44 0.5 -0.4921876788139343
v 0.7031333446502686 -0.3027346134185791 0.7036214470863342
v 2.865236282348633 0.5822392702102661 -0.09374978393316269
v 0.7065514326095581 4.344025239406933e-44 0.7069091796875
v 3.1669345293740866e-43 0.5 0.1250002384185791
v 0.5820408463478088 0.3437502384185791 0.5976048111915588
v 2.8652944564819336 0.5822392702102661 0.5625002384185791
v 131065.1171875 2.8652944564819336 -1.933435950958309e-39
v 0.5625002384185791 nan 1.6562503576278687
v -1.4971527325102877e-22 2.8652493953704834 -4.931758450533947e-22
v 0.7812498807907104 -1.0731062502600253e-05 8.828180325246348e-44
v 0.5 1.21875 1.182942644523744e-37
v -2.3024620907907232e-33 -2198986817536.0 1.0000075101852417
v -2.228754484839687e+29 -2.3024620907907232e-33 -1.584536993927642e+29
v 8.828180325246348e-44 -3.6893488147419103e+19 1.6562576293945312
v 0.5822392702102661 1.8750004768371582 0.5822392106056213
v 2.093750238418579 0.8749943375587463 2.093750476837158
v 0.7032710909843445 2.302734851837158 0.7032711505889893
v 2.302734851837158 0.5820561647415161 2.492187976837158
v 0.7032712697982788 2.4921875 0.5822392702102661
v 2.652344226837158 2.622959183185003e-09 2.7734375
v 0.5822392106056213 2.773437976837158 0.5822392106056213
v 2.773437976837158 0.7032712697982788 2.865234851837158
v 0.7032712697982788 2.865234375 0.5822392702102661
v 2.9375 0.7032712697982788 2.9375
v 0.5820409059524536 3.0 0.7032712697982788
v 3.0 0.5822392106056213 -0.9375000596046448
v 0.5937581062316895 -1.0 0.5937580466270447
v -1.0 0.703133225440979 -0.9375000596046448
v 0.5822378396987915 -0.8652345538139343 0.7031332850456238
v -0.8652345538139343 0.582237720489502 -0.7734376788139343
v 0.7031332850456238 -0.7734376788139343 0.5937581062316895
v -0.6523439288139343 0.5822378993034363 -0.6523439884185791
v 0.5937581062316895 -0.4921877384185791 0.5000081062316895
v -0.4921876788139343 0.7031333446502686 -0.3027346134185791
v 0.5937581658363342 -0.30273452401161194 0.582237958908081
v -0.09374978393316269 0.5822380781173706 -0.302741140127182
v -5.422513549291352e-10 -0.302741140127182 -5.422513549291352e-10
v 0.125003382563591 0.5820408463478088 0.3437502384185791
v 0.5820408463478088 -0.3027346134185791 152630.1875
v 1.21875 165802.140625 -0.3027346134185791
v -1.933405122392094e-39 1.21875 -3.114706734310236e-39
v 0.7812498807907104 0.595680832862854 0.9999998807907104
v 0.7032709121704102 0.9999998807907104 0.5937735438346863
v 1.21875 0.5956809520721436 1.21875
v 0.7031789422035217 1.437500238418579 0.5822392106056213
v 1.2187503576278687 0.7031638622283936 1.6562504768371582
v 0.7032710909843445 1.693757320187891e+22 -5.166663163825123e-19
v 1.692899722228849e+22 0.5822327136993408 1.8750004768371582
v 0.5822392106056213 2.093750238418579 0.5820713639259338
v 1.69381474108314e+22 0.7031586170196533 2.302734851837158
v 0.7032711505889893 1.6938148536731306e+22 0.5820496082305908
v 2.492187976837158 0.7032712697982788 1.6938146284931492e+22
v 2.6229374228137203e-09 1.6938146284931492e+22 2.6229374228137203e-09
v 2.7734375 0.5822392106056213 2.773437976837158
v 0.5822392106056213 1.6938148536731306e+22 0.7040894031524658
v 2.865234851837158 0.7032712697982788 1.6938146284931492e+22
v 0.7040894031524658 2.9375 0.7032712697982788
v 1.6938146284931492e+22 0.5956757068634033 2.006937753142246e+28
v 0.5822392106056213 2.00693798926057e+28 0.5822392106056213
v 6.109544183346083e+30 1.881791263453014e+29 6.109544183346083e+30
v 0.7031636238098145 6.109544183346083e+30 0.703270435333252
v 2.0069984355515508e+28 0.7031651139259338 6.109545392271902e+30
v 0.703270435333252 2.006998907788199e+28 0.7032719254493713
v 6.109545392271902e+30 0.703270435333252 2.0069384614972183e+28
v 0.5822392106056213 1.5206262778787803e+33 0.5956757068634033
v 1.5206261231362754e+33 0.7032654285430908 1.5206658919600375e+33
v 0.7031586170196533 1.5206265873637902e+33 0.7032654285430908
v 1.5206662014450473e+33 0.7032349109649658 6.109236511724991e+30
v 0.703239917755127 2.006999143906523e+28 0.7032414078712463
v 1.5206663561875522e+33 0.5956757068634033 6.10923892957663e+30
v 0.5938496589660645 2.0069391698521908e+28 0.5956822037696838
v 1.5206273610763147e+33 0.5956757068634033 1.520666510930057e+33
v 0.5956757068634033 6.109237116187901e+30 0.703270435333252
v 2.0070000883798198e+28 0.7032719254493713 6.109252832223556e+30
v 0.706779956817627 2.0069450728102943e+28 0.7032719254493713
v 2.0069911158835023e+28 0.7032719254493713 1.5206309201539277e+33
v 0.7069427967071533 6.109370702490968e+30 0.597618579864502
v 6.109386418526623e+30 0.5956807136535645 2.007057701250911e+28
v 131071.2578125 6.109386418526623e+30 39038.53125
v 2.007057701250911e+28 -3.11474036547338e-39 6.109542369957353e+30
v 2.026996431711887e+38 2.006952628596667e+28 0.5956822037696838
v 1.5206629518524442e+33 0.5956757068634033 1.52070473232877e+33
v 39038.203125 1.5206358719140848e+33 2.02697939448782e+38
v 1.52070473232877e+33 0.7032654285430908 6.109387627452443e+30
v 0.703270435333252 2.007058173487559e+28 -5.357368220215642e-22
v 1.52070473232877e+33 -4.292391531635076e-05 6.109387627452443e+30
v -4.2924220906570554e-05 2.006952628596667e+28 -3.5537061194190755e-05
v 1.5206358719140848e+33 -2619809464320.0 1.5206657372175326e+33
v -2619809464320.0 6.109234093873352e+30 -3093016084480.0
v 2.007058173487559e+28 -2.004429420961205e+29 6.109234093873352e+30
v -2.2287529736824126e+29 2.006952628596667e+28 2.803379826254381e-35
v 2.006952864714991e+28 -2.004429420961205e+29 1.5206261231362754e+33
v 2.8680742024806544e-35 6.109272779499579e+30 0.582176685333252
v 6.109234698336261e+30 0.582176685333252 2.0069984355515508e+28
v 0.7067051529884338 6.109235302799171e+30 0.703270435333252
v 2.006998671669875e+28 0.7067051529884338 6.109234093873352e+30
v 0.703270435333252 2.006937753142246e+28 2.803379826254381e-35
v 1.5206360266565897e+33 0.5839569568634033 1.5206658919600375e+33
v 0.7050507068634033 1.5206660467025424e+33 0.7050507068634033
v 1.5206261231362754e+33 2.6265185582019512e-09 6.109234093873352e+30
v 2.6198865299420504e-09 2.006937753142246e+28 2.6201194547326168e-09
v 1.5206261231362754e+33 8.910476026358083e-06 1.5206660467025424e+33
v 0.5839569568634033 6.109235302799171e+30 8.883311238605529e-06
v 2.006998671669875e+28 0.7067051529884338 6.109234093873352e+30
v 0.010988600552082062 2.006998671669875e+28 2.8268206119537354
v 6.10942752200449e+30 2.813081741333008 2.006937753142246e+28
v 0.009097487665712833 1.5206261231362754e+33 2.8202028274536133
v 1.5206261231362754e+33 0.5956757068634033 1.5206261231362754e+33
v 0.5822327136993408 1.5206262778787803e+33 0.5822327136993408
v -3.114516157719088e-39 0.595687747001648 -3.114514756420624e-39
v 0.7032774686813354 -3.114516157719088e-39 0.7032774686813354
v 1.5206658919600375e+33 11522.30078125 -3.114516157719088e-39
v 11522.498046875 1.5206658919600375e+33 0.7032654285430908
v -3.114518960316017e-39 0.7032774686813354 1.5206265873637902e+33
v 0.5956757068634033 1.5206663561875522e+33 0.7032349109649658
v -3.114520361614481e-39 0.595687747001648 1.5206273610763147e+33
v 0.5956757068634033 -3.1145259668083384e-39 0.595687747001648
v -3.1145217629129454e-39 0.595687747001648 1.520666510930057e+33
v 0.7032654285430908 -3.114558196673018e-39 0.7032774686813354
v 1.5206309201539277e+33 0.5956757068634033 1.5206629518524442e+33
v 0.5956757068634033 -3.114848265455133e-39 0.595687747001648
v -3.114867883633634e-39 0.595687747001648 1.52070473232877e+33
v 39038.203125 -3.114603038223876e-39 39038.9921875
v 1.52070473232877e+33 2.02697939448782e+38 -3.114603038223876e-39
v 2.0270203649552193e+38 1.5206261231362754e+33 -5.045569495922972e-22
v 1.52070473232877e+33 0.7032654285430908 3.5592980993850354e-43
v -3.051758176297881e-05 1.5206358719140848e+33 -3.635715984273702e-05
v 3.5592980993850354e-43 -2199023517696.0 3.5592980993850354e-43
v -2199023517696.0 1.52070504181378e+33 -2.22873710653103e+29
v 3.5592980993850354e-43 -1.584563439179946e+29 1.5206261231362754e+33
v 2.8680742024806544e-35 1.5206360266565897e+33 2.8680742024806544e-35
v 8.96831017167883e-44 0.5820313096046448 1.401298464324817e-45
v 0.5820313096046448 1.5206658919600375e+33 0.7050507068634033
v 2.802596928649634e-45 0.7031250596046448 1.5206660467025424e+33
v 0.7050507068634033 0.0 0.7031250596046448
v 1.5206261231362754e+33 2.6265185582019512e-09 1.5206261231362754e+33
v 2.6265185582019512e-09 0.0 8.881092981027905e-06
v 0.0 8.881092981027905e-06 1.5206657372175326e+33
v 0.010988522320985794 0.0 0.010986329056322575
v 1.5206657372175326e+33 2.8202028274536133 0.0
v 2.812500238418579 1.5206261231362754e+33 0.5956757068634033
v 0.0 -4.775447201514007e-39 0.0
v -4.775447201514007e-39 2.006937753142246e+28 0.5956822037696838
v 2.006937753142246e+28 0.7032719254493713 2.0069984355515508e+28
v 0.7032719254493713 -3.114516157719088e-39 0.7032774686813354
v 2.006998907788199e+28 11522.4072265625 -3.114516157719088e-39
v 0.7032774686813354 2.0069384614972183e+28 0.7031956315040588
v -3.114518960316017e-39 0.703262209892273 -3.114520361614481e-39
v 0.7032469511032104 2.006999143906523e+28 0.5956822037696838
v -3.1145259668083384e-39 0.593887209892273 2.0069391698521908e+28
v 0.7036076188087463 2.0070000883798198e+28 0.5956822037696838
v -3.1145217629129454e-39 0.706588625907898 2.0069450728102943e+28
v 0.7032719254493713 -3.114558196673018e-39 0.595687747001648
v -3.114848265455133e-39 0.7069395780563354 2.0069911158835023e+28
v 0.5956822037696838 2.007057701250911e+28 0.5956822037696838
v -3.114867883633634e-39 39038.9921875 2.007057701250911e+28
v 39038.62890625 -3.114603038223876e-39 2.0270203649552193e+38
v 2.006937753142246e+28 2.027001502314288e+38 3.5592980993850354e-43
v -4.235165241142481e-22 3.5592980993850354e-43 -4.235165241142481e-22
v 2.007058173487559e+28 -3.5537061194190755e-05 8.828180325246348e-44
v -3.051758176297881e-05 2.006952628596667e+28 -2560715128832.0
v 2.007058173487559e+28 -2781704617984.0 3.5592980993850354e-43
v -1.584563439179946e+29 2.006937753142246e+28 -2.004429420961205e+29
v 0.0 2.4074127174699703e-35 8.96831017167883e-44
v 2.802378819346259e-35 2.006952864714991e+28 0.5856114029884338
v 2.0069984355515508e+28 0.5856114029884338 1.401298464324817e-45
v 0.7031250596046448 2.006998671669875e+28 0.7067051529884338
v 2.802596928649634e-45 0.7031250596046448 2.006937753142246e+28
v 0.7033329606056213 0.0 2.6193449631506383e-09
v 0.0 2.6193449631506383e-09 2.006937753142246e+28
v 8.884265298547689e-06 2.006998671669875e+28 8.935720870795194e-06
v 0.0 0.010986329056322575 2.006998671669875e+28
v 0.011042268015444279 0.0 2.812500238418579
v 2.006937753142246e+28 2.8268206119537354 -3.1146044395223406e-39
v 0.595687747001648 5.811464991247881e-41 1.3312335411085762e-42
v 0.0 0.0 1.6936415776774675e+22
v 0.5956757068634033 -0.865234375 0.7050557136535645
v -0.9375000596046448 5.189220773688823e+19 5.811464991247881e-41
v 0.7032731771469116 -0.8652345538139343 10233716736.0
v 5.811464991247881e-41 0.7032731771469116 -0.7734376788139343
v 2.000276565551758 1.4375227689743042 5.417802035062075e-34
v 1.4375227689743042 0.5938653945922852 -0.6523439288139343
v -1.5249750554071886e-19 2.8652796745300293 0.5956822633743286
v -0.4921877384185791 0.5956807136535645 -0.30273452401161194
v 0.7034385204315186 2.865236282348633 0.7032719850540161
v -0.0937502309679985 0.706795334815979 2.865241765975952
v 0.7032719850540161 -0.4914770722389221 0.5822392702102661
v 0.12499986588954926 0.5956810712814331 0.34374988079071045
v 0.7032707929611206 2.8652944564819336 0.7032719850540161
v 0.5624998807907104 39038.5390625 2.8652944564819336
v 0.7032719850540161 0.7812498807907104 0.7032705545425415
v 2.865294933319092 -4.931758450533947e-22 2.865294933319092
v -4.931758450533947e-22 1.218780279159546 0.5956809520721436
v 5.811464991247881e-41 0.5 1.21875
v -2619832532992.0 1.21875 -2619832532992.0
v 5.811464991247881e-41 -1.5845632502852868e+29 5.436920826903076e+30
v 15580.8447265625 5.825618105737562e-41 2.407412430484045e-35
v 5.82043330141956e-41 2.407412430484045e-35 5.436916595662707e+30
v 0.5837917923927307 1.69381474108314e+22 6.474813154170603e-27
v 5.82043330141956e-41 0.703125 1.6938148536731306e+22
v 1.738069421554584e-18 5.82043330141956e-41 0.703125
v 1.6938146284931492e+22 4.66559457734661e-10 2.9375
v 1.3876936577617016e-07 2.652344226837158 2.622959183185003e-09
v 1.6938146284931492e+22 0.5829956531524658 1.6938148536731306e+22
v 4.2974206735379994e-05 2.773437976837158 0.7032712697982788
v 1.6938148536731306e+22 0.7040894031524658 2.865234851837158
v 0.5822392702102661 1.6938146284931492e+22 0.7040894031524658
v 2.9375 0.5822392702102661 5.811464991247881e-41
v 1.3312335411085762e-42 0.0 0.0
v 1.6936415776774675e+22 0.5956757068634033 -0.865234375
v 0.7050557136535645 -0.9375000596046448 0.7032705545425415
v 2.865234613418579 0.7032719850540161 -0.8652345538139343
v 9759.6328125 5.811464991247881e-41 0.7032731771469116
v -0.7734376788139343 1.7766024789549542e-15 0.12562082707881927
v -3.7392289064871155e+36 2.8652796745300293 0.5938664674758911
v -0.6523439288139343 0.5956808924674988 2.865236282348633
v 0.5956822633743286 -0.4921877384185791 0.5956807136535645
v -0.30273452401161194 0.703606367111206 2.865236282348633
v 0.7032719850540161 -0.0937502309679985 0.706581711769104
v 2.865241765975952 0.7069340944290161 -0.4914770722389221
v 0.5822392702102661 0.12499986588954926 0.5956810712814331
v 0.34374988079071045 0.7032707929611206 2.8652944564819336
v 0.7032719850540161 0.5624998807907104 39038.5390625
v 2.8652944564819336 0.7032719850540161 0.7812498807907104
v 0.7032705545425415 2.865294933319092 -4.931758450533947e-22
v 2.865294933319092 -4.931758450533947e-22 1.218780279159546
v 0.5956809520721436 5.811464991247881e-41 0.5
v 1.21875 -2619832532992.0 1.21875
v -2619832532992.0 5.811464991247881e-41 -1.5845632502852868e+29
v 5.436920826903076e+30 15580.8447265625 5.825618105737562e-41
v 2.407412430484045e-35 5.82043330141956e-41 2.407412430484045e-35
v 5.436916595662707e+30 0.5837917923927307 1.69381474108314e+22
v 0.5829956531524658 2.093750476837158 0.703133761882782
v 1.6938148536731306e+22 0.7040894031524658 2.302734851837158
v 0.7031346559524536 1.6938146284931492e+22 0.7040894031524658
v 2.6505126953125 2.622959183185003e-09 2.6505126953125
v 2.622959183185003e-09 1.6938146284931492e+22 0.5829956531524658
v 1.6938148536731306e+22 0.5829956531524658 2.773437976837158
v 0.7032712697982788 1.6938148536731306e+22 0.7040894031524658
v 2.865234851837158 0.5822392702102661 1.6938146284931492e+22
v 0.7040894031524658 2.9375 0.5822392702102661
v 3.0 0.7032712697982788 3.0
v 0.5822392106056213 -0.9375000596046448 0.5956807136535645
v -1.0 0.5956806540489197 -1.0
v 0.7032705545425415 -0.9375000596046448 0.7032705545425415
v -0.8652345538139343 0.7032706141471863 -0.8652345538139343
v 0.5956807136535645 -0.7734376788139343 0.7032706141471863
v -0.7734376788139343 0.5956807136535645 -0.6523439288139343
v 0.7032400965690613 -0.6523439884185791 0.5956807136535645
v -0.4921877384185791 0.5001301765441895 -0.4921876788139343
v 0.703606367111206 -0.3027346134185791 0.5956807732582092
v -0.30273452401161194 0.7065818309783936 -0.09375016391277313
v 0.7032707929611206 -0.0937502309679985 0.595680832862854
v 0.12499986588954926 0.7069329023361206 0.12499977648258209
v 0.595680832862854 0.12499994784593582 0.595680832862854
v 0.5624995827674866 39038.5390625 0.5607907772064209
v 0.7032708525657654 0.5624998807907104 0.595680832862854
v 0.7812498807907104 0.7032709121704102 0.7812498807907104
v 0.595680832862854 0.9999998807907104 0.7032709121704102
v 0.9999998807907104 0.5956808924674988 1.21875
v 0.5956809520721436 1.21875 1.189572019402649e-37
v -2.3024620907907232e-33 -4.124062808328103e+31 5.436920826903076e+30
v 15580.8447265625 1.670900777901143e-37 4.0505341461405446e-20
v 1.692912895257759e+22 -1.7228439216096268e-18 1.692899722228849e+22
v -1.7228439216096268e-18 1.670896854265443e-37 0.5831291675567627
v 2.093750238418579 0.5831242203712463 1.69381474108314e+22
v 0.7040894031524658 2.302734851837158 0.7032711505889893
v 1.6938148536731306e+22 0.5829956531524658 2.492187976837158
v 0.7032712697982788 1.6938146284931492e+22 2.6229374228137203e-09
v 1.6938146284931492e+22 2.6229374228137203e-09 2.7734375
v 0.5822392106056213 2.773437976837158 0.5822392106056213
v 1.6938148536731306e+22 0.7040894031524658 2.865234851837158
v 0.7032712697982788 1.6938146284931492e+22 0.7040894031524658
v 2.9375 0.7032712697982788 1.6938146284931492e+22
v 0.5937530994415283 0.0 1.3312335411085762e-42
v 0.0 0.0 1.6936415776774675e+22
v 0.5937530994415283 3.0 0.7032712697982788
v -0.9375000596046448 0.7033315896987915 2.865234613418579
v 0.5822392702102661 -0.9375001788139343 0.5822378396987915
v 2.8652350902557373 0.5822392702102661 -0.8652345538139343
v 0.582237720489502 2.8692023754119873 0.5822392702102661
v 2.8652353286743164 0.5822392702102661 -0.49322521686553955
v 0.5000081062316895 5.812305770326476e-41 0.5
v -0.4921876788139343 0.5000081062316895 -0.30273452401161194
v 0.582237958908081 2.865236282348633 0.5822392702102661
v -0.302741140127182 0.582237958908081 5.843274466388055e-41
v 0.5 5.813707068790801e-41 0.5
v -0.3027348518371582 0.582237958908081 -0.3027346134185791
v 2.939550485236884e-29 2.8652944564819336 0.5822392702102661
v -0.30273449420928955 152630.1875 2.865234375
v -1.933435950958309e-39 -0.3037949800491333 -1.933405122392094e-39
v 2.865234375 -4.931758450533947e-22 2.865294933319092
v -4.931758450533947e-22 1.218780279159546 0.593773603439331
v 5.811464991247881e-41 0.5 1.21875
v 0.582237958908081 1.2187503576278687 0.582237958908081
v 1.4375003576278687 0.7032709121704102 1.693757320187891e+22
v 15552.55078125 5.825618105737562e-41 2.407485898880971e-35
v 5.82043330141956e-41 -5.166636280455215e-19 1.692899722228849e+22
v 0.5820648670196533 1.69381474108314e+22 0.5820648670196533
v 2.093750476837158 0.7032710909843445 1.6938148536731306e+22
v 0.7040894031524658 2.302734851837158 0.7031499147415161
v 1.6938146284931492e+22 0.7040894031524658 2.6505126953125
v 2.622959183185003e-09 2.6505126953125 2.622959183185003e-09
v 1.6938146284931492e+22 0.5829956531524658 1.6938148536731306e+22
v 0.5829956531524658 2.773437976837158 0.7032712697982788
v 1.6938148536731306e+22 0.7040894031524658 2.865234851837158
v 0.5822392702102661 1.6938146284931492e+22 0.7040894031524658
v 2.9375 0.5820409059524536 3.0
v 0.7032712697982788 3.0 0.5822392106056213
v -0.9375000596046448 0.5937581062316895 -1.0
v 0.5937580466270447 -1.0 0.703133225440979
v -0.9375000596046448 0.5822378396987915 -0.8652345538139343
v 0.7031332850456238 -0.8652345538139343 0.582237720489502
v -0.7734376788139343 0.7031332850456238 -0.7734376788139343
v 0.5937581062316895 -0.6523439288139343 0.5822378993034363
v -0.6523439884185791 0.5937581062316895 -0.4921877384185791
v 0.5000081062316895 -0.4921876788139343 0.7031333446502686
v -0.3027346134185791 0.5937581658363342 -0.30273452401161194
v 0.582237958908081 -0.09374978393316269 0.5822380781173706
v -0.302741140127182 -5.422513549291352e-10 -0.302741140127182
v -5.422513549291352e-10 0.125003382563591 0.5820408463478088
v 0.3437502384185791 0.5820408463478088 -0.3027346134185791
v 152630.1875 1.21875 165802.140625
v -0.3027346134185791 -1.933405122392094e-39 1.21875
v -3.114706734310236e-39 0.7812498807907104 0.595680832862854
v 0.9999998807907104 0.7032709121704102 0.9999998807907104
v 0.5937735438346863 1.21875 0.5956809520721436
v 1.21875 0.7031789422035217 1.437500238418579
v 0.5822392106056213 1.2187503576278687 0.7031638622283936
v 1.6562504768371582 0.7032710909843445 1.693757320187891e+22
v -5.166663163825123e-19 1.692899722228849e+22 0.5822327136993408
v 1.8750004768371582 0.5822392106056213 2.093750238418579
v 0.5820713639259338 1.69381474108314e+22 0.7031586170196533
v 2.302734851837158 0.7032711505889893 1.6938148536731306e+22
v 0.5820496082305908 2.492187976837158 0.7032712697982788
v 1.6938146284931492e+22 2.6229374228137203e-09 1.6938146284931492e+22
v 2.6229374228137203e-09 2.7734375 0.5822392106056213
v 2.773437976837158 0.5822392106056213 1.6938148536731306e+22
v 0.7040894031524658 2.865234851837158 0.7032712697982788
v 1.6938146284931492e+22 0.7040894031524658 2.9375
v 0.7032712697982788 1.6938146284931492e+22 0.5937530994415283
v 2.006937753142246e+28 0.5822392106056213 2.00693798926057e+28
v 0.5822392106056213 6.109544183346083e+30 0.5937581062316895
v 6.109234093873352e+30 8.108156084499251e+17 6.109234093873352e+30
v 8.108156084499251e+17 2.0069981994332266e+28 11578.6572265625
v 6.109234093873352e+30 0.703270435333252 2.006998907788199e+28
v 0.7031345963478088 6.109390649766992e+30 0.703270435333252
v 2.0069384614972183e+28 0.5822392106056213 1.5206262778787803e+33
v 0.5937530994415283 1.5206261231362754e+33 0.7033264636993408
v 1.5206658919600375e+33 0.7031280994415283 1.5206265873637902e+33
v 0.7031280994415283 1.5206662014450473e+33 0.7031280994415283
v 6.109236511724991e+30 0.7031331062316895 2.006999143906523e+28
v 0.5937595963478088 1.5206663561875522e+33 0.5937530994415283
v 6.10923892957663e+30 0.5937581062316895 2.0069391698521908e+28
v 0.5937595963478088 1.5206273610763147e+33 0.5937530994415283
v 1.520666510930057e+33 0.5937530994415283 6.109237116187901e+30
v 0.703178882598877 2.0070000883798198e+28 0.5822392106056213
v 6.109371306953878e+30 2.2042424843829373e-39 2.006952392478343e+28
v -5.529817159732886e-10 2.006952392478343e+28 2.2042775168445454e-39
v 1.52063571717158e+33 -5.529756652578044e-10 6.109371306953878e+30
v 2.997712365851163e-29 6.10927217503667e+30 2.997712365851163e-29
v 2.0070130748876477e+28 152630.515625 6.10927217503667e+30
v 155650.125 2.007057701250911e+28 -3.11474036547338e-39
v 6.109542369957353e+30 -3.114705333011772e-39 2.0069977271965783e+28
v -5.529817159732886e-10 1.52063571717158e+33 2.997687088020643e-29
v 1.52070504181378e+33 184356.8125 1.5206261231362754e+33
v -2.2493250585771953e-39 1.52070473232877e+33 0.7032654285430908
v 6.109387627452443e+30 0.703270435333252 2.007058173487559e+28
v -5.357368220215642e-22 1.52070473232877e+33 -4.292391531635076e-05
v 6.109387627452443e+30 -4.291677032597363e-05 2.006952628596667e+28
v -3.5537061194190755e-05 1.5206358719140848e+33 -2199238213632.0
v 1.52070504181378e+33 -2611487965184.0 6.109234093873352e+30
v -2560037486592.0 2.007058173487559e+28 -1.993210589355181e+29
v 6.109234093873352e+30 -1.5846856540245227e+29 2.006937753142246e+28
v 2.8024982054912643e-35 2.006952864714991e+28 -1.5846903763910056e+29
v 1.5206261231362754e+33 2.8588906528648553e-35 6.109272779499579e+30
v 0.582054615020752 6.109234698336261e+30 0.5820698738098145
v 2.0069984355515508e+28 0.7067051529884338 6.109235302799171e+30
v 0.703270435333252 2.006998671669875e+28 0.7067051529884338
v 6.109543578883173e+30 0.703270435333252 2.006937753142246e+28
v 2.858921934330734e-35 1.5206360266565897e+33 0.5820648670196533
v 1.5206658919600375e+33 0.7031586170196533 1.5206660467025424e+33
v 0.7031433582305908 1.5206261231362754e+33 2.6265185582019512e-09
v 6.109543578883173e+30 2.6198865299420504e-09 2.006937753142246e+28
v 2.6201194547326168e-09 1.5206261231362754e+33 8.910476026358083e-06
v 1.5206660467025424e+33 0.5839569568634033 6.109544787808993e+30
v 8.883311238605529e-06 2.006998671669875e+28 0.7067051529884338
v 6.109543578883173e+30 0.010988600552082062 2.006998671669875e+28
v 2.8268206119537354 6.10942752200449e+30 2.813081741333008
v 2.006937753142246e+28 0.009097487665712833 1.5206261231362754e+33
v 2.8202028274536133 1.5206261231362754e+33 0.5937530994415283
v 1.5206261231362754e+33 0.5822327136993408 1.5206262778787803e+33
v 0.5822327136993408 -3.114516157719088e-39 0.593765139579773
v 0.0 0.7031250596046448 -3.114516157719088e-39
v 0.7033385038375854 1.5206658919600375e+33 0.7031280994415283
v -3.114518960316017e-39 9728.248046875 1.5206658919600375e+33
v 2.4980128168349165e-15 -3.114518960316017e-39 2.109477533379948e-15
v 1.5206262778787803e+33 0.5822327136993408 1.5206663561875522e+33
v 0.5937530994415283 -3.114520361614481e-39 0.593765139579773
v 1.5206273610763147e+33 -1.2573210944033335e-22 -3.114520361614481e-39
v 0.593765139579773 -3.1145217629129454e-39 0.593765139579773
v 1.520666510930057e+33 2.204124775311934e-39 -3.114601636925412e-39
v 2.2044078376017276e-39 1.52063571717158e+33 -5.529756652578044e-10
v 1.5206612496848902e+33 -5.529756652578044e-10 -3.1148328511720256e-39
v 2.997747875184513e-29 -3.114603038223876e-39 2.997747875184513e-29
v 1.520675485995342e+33 184356.8125 -3.114514756420624e-39
v 155651.96875 1.520675485995342e+33 -4.778747259397492e-39
v -4.778747259397492e-39 -4.778747259397492e-39 1.5206341697465308e+33
v -5.045569495922972e-22 1.52070473232877e+33 0.7032654285430908
v 3.5592980993850354e-43 -3.051851308555342e-05 1.5206358719140848e+33
v -3.635715984273702e-05 3.5592980993850354e-43 -2766160527360.0
v 3.5592980993850354e-43 -2199224844288.0 1.52070504181378e+33
v -1.8817753963016316e+29 0.0 -1.5846601532455152e+29
v 1.5206261231362754e+33 2.8588906528648553e-35 1.5206360266565897e+33
v 2.8588906528648553e-35 8.96831017167883e-44 0.5820618271827698
v 1.401298464324817e-45 0.5820618271827698 1.5206658919600375e+33
v 0.7031586170196533 2.802596928649634e-45 0.7031250596046448
v 1.5206660467025424e+33 0.7031433582305908 0.0
v 0.7031250596046448 1.5206261231362754e+33 2.6265185582019512e-09
v 1.5206261231362754e+33 2.6265185582019512e-09 0.0
v 8.881092981027905e-06 0.0 8.881092981027905e-06
v 1.5206657372175326e+33 0.010988522320985794 0.0
v 0.010986329056322575 1.5206657372175326e+33 2.8202028274536133
v 0.0 2.812500238418579 1.5206261231362754e+33
v 0.5937530994415283 0.0 -4.775447201514007e-39
v 0.0 -4.775447201514007e-39 2.006937753142246e+28
v 0.5937595963478088 2.006937753142246e+28 8.108876951810212e+17
v 2.0069981994332266e+28 0.7067051529884338 -3.114516157719088e-39
v 0.7033385038375854 2.006998907788199e+28 0.7031345963478088
v -3.114518960316017e-39 0.593765139579773 2.0069384614972183e+28
v 2.0685292078525966e-15 -3.114518960316017e-39 0.593765139579773
v -3.114520361614481e-39 0.593765139579773 2.006999143906523e+28
v -1.2573348521375206e-22 -3.114520361614481e-39 0.593765139579773
v 2.006939642088839e+28 0.5822392106056213 2.0070000883798198e+28
v 0.5822392106056213 -3.1145217629129454e-39 2.2044078376017276e-39
v 2.006952392478343e+28 2.2042775168445454e-39 -3.114601636925412e-39
v -5.529868785103531e-10 -3.114601636925412e-39 -5.529868785103531e-10
v 2.006952392478343e+28 2.9977198890150084e-29 2.0070130748876477e+28
v 2.939556804694514e-29 -3.114603038223876e-39 155651.96875
v 2.0070130748876477e+28 152630.515625 -4.7787626736806e-39
v -4.778747259397492e-39 2.0069500312951014e+28 0.5822392106056213
v 8.828180325246348e-44 -4.235165241142481e-22 3.5592980993850354e-43
v -4.235165241142481e-22 2.007058173487559e+28 -3.552588532329537e-05
v 8.828180325246348e-44 -3.051758176297881e-05 2.006952628596667e+28
v -2560044040192.0 2.007058173487559e+28 -2766202470400.0
v 3.5592980993850354e-43 -1.5846601532455152e+29 2.006937753142246e+28
v -1.881795985819497e+29 0.0 2.858876016582655e-35
v 8.96831017167883e-44 2.8024522877431853e-35 2.006952864714991e+28
v 0.5820713639259338 2.0069984355515508e+28 0.5820713639259338
v 1.401298464324817e-45 0.7031555771827698 2.006998671669875e+28
v 0.7067051529884338 2.802596928649634e-45 0.7031403183937073
v 2.006937753142246e+28 0.7033329606056213 0.0
v 2.6193449631506383e-09 0.0 2.6193449631506383e-09
v 2.006937753142246e+28 8.884265298547689e-06 2.006998671669875e+28
v 8.935720870795194e-06 0.0 0.010986329056322575
v 2.006998671669875e+28 0.011042268015444279 0.0
v 2.812500238418579 2.006937753142246e+28 2.8268206119537354
v -3.1146044395223406e-39 0.593765139579773 0.0
v 1.3312335411085762e-42 0.0 0.0
v 1.6936415776774675e+22 0.5937530994415283 3.0
v 0.7032712697982788 -0.9375000596046448 5.18967113365156e+19
v 5.811464991247881e-41 0.7031358480453491 -0.8652345538139343
v 10002767872.0 2.8652350902557373 0.5822392702102661
v -0.8652345538139343 2.328950881958008 0.0
v 3.851859888774472e-34 2.8652799129486084 0.5822392702102661
v -0.49322521686553955 -1.0842197500735212e-19 5.812305770326476e-41
v 0.5 -0.4921876788139343 0.5000081062316895
v -0.30273452401161194 0.582237958908081 2.865236282348633
v 0.5822392702102661 -0.302741140127182 0.582237958908081
v 5.843274466388055e-41 0.5 5.813707068790801e-41
v 0.5 -0.3027348518371582 0.582237958908081
v -0.3027346134185791 2.939550485236884e-29 2.8652944564819336
v 0.5822392702102661 -0.30273449420928955 152630.1875
v 2.865234375 -1.933435950958309e-39 -0.3037949800491333
v -1.933405122392094e-39 2.865234375 -4.931758450533947e-22
v 2.865294933319092 -4.931758450533947e-22 1.218780279159546
v 0.593773603439331 5.811464991247881e-41 0.5
v 1.21875 0.582237958908081 1.2187503576278687
v 0.582237958908081 1.4375003576278687 0.7032709121704102
v 1.693757320187891e+22 15552.55078125 5.825618105737562e-41
v 2.407485898880971e-35 5.82043330141956e-41 -5.166636280455215e-19
v 1.692899722228849e+22 0.5820648670196533 1.69381474108314e+22
v 0.5820648670196533 2.093750476837158 0.7032710909843445
v 1.6938148536731306e+22 0.7040894031524658 2.302734851837158
v 0.7031499147415161 1.6938146284931492e+22 0.7040894031524658
v 2.6505126953125 2.622959183185003e-09 2.6505126953125
v 2.622959183185003e-09 1.6938146284931492e+22 0.5829956531524658
v 1.6938148536731306e+22 0.5829956531524658 2.773437976837158
v 0.7032712697982788 1.6938148536731306e+22 0.7040894031524658
v 2.865234851837158 0.5822392702102661 1.6938146284931492e+22
v 0.7040894031524658 2.9375 1.928772429669036e-39
v -2.2525644105815545e+36 7.26651838570297e-38 -2.2525743933300313e+36
v 1.883353824103033e-38 -7.589463138677647e+33 1.883353824103033e-38
v -7.589463138677647e+33 7.26651838570297e-38 -7.589780051327704e+33
v 3.3710653761002285e-37 -2.2526149581492386e+36 3.3710653761002285e-37
v -7.589780051327704e+33 2.4773195473145048e-36 -2.2526149581492386e+36
v 2.4773195473145048e-36 -7.589621595002675e+33 3.3979311509730554e-35
v -2.2525743933300313e+36 3.3979311509730554e-35 -2.2526149581492386e+36
v 1.071633363784392e-33 -7.589780051327704e+33 1.071633363784392e-33
v -2.2525743933300313e+36 6.318440827407156e-32 -7.589621595002675e+33
v 6.318440827407156e-32 -7.589780051327704e+33 5.614397999188371e-30
v -2.2526149581492386e+36 5.614397999188371e-30 -7.589621595002675e+33
v 6.384133246448058e-28 -2.2525743933300313e+36 6.384133246448058e-28
v -2.2525743933300313e+36 7.1447514290368e-26 -7.589621595002675e+33
v 7.1447514290368e-26 -7.589780051327704e+33 7.830395850570239e-24
v -2.2526149581492386e+36 7.830395850570239e-24 -7.589780051327704e+33
v 8.405608042217306e-22 -2.2526149581492386e+36 8.405608042217306e-22
v -7.589621595002675e+33 9.68235457261662e-20 -2.2525743933300313e+36
v 9.68235457261662e-20 -2.2526149581492386e+36 1.1015291247766527e-17
v -7.589780051327704e+33 1.1015291247766527e-17 -2.2525743933300313e+36
v 1.2334762710877875e-15 -7.589621595002675e+33 1.2334762710877875e-15
v -7.589780051327704e+33 1.3530233248897072e-13 -2.2526149581492386e+36
v 1.3530233248897072e-13 -7.589621595002675e+33 1.4490240604625448e-11
v -2.2525743933300313e+36 1.4490240604625448e-11 -2.2525743933300313e+36
v 1.669697047290697e-09 -7.589621595002675e+33 1.669697047290697e-09
v -7.589780051327704e+33 1.538400908884796e-07 -2.2526149581492386e+36
v 1.538400908884796e-07 -7.589780051327704e+33 9.010602298076265e-06
v -2.2526149581492386e+36 9.010602298076265e-06 -7.589621595002675e+33
v 0.0002833548351190984 -2.2525743933300313e+36 0.0002833548351190984
v -2.2525743933300313e+36 0.0037610079161822796 -7.589621595002675e+33
v 0.0037610079161822796 -7.589780051327704e+33 0.0278087817132473
v -2.2526149581492386e+36 0.0278087817132473 -7.589780051327704e+33
v 0.12833496928215027 -2.2526149581492386e+36 0.12833496928215027
v -7.589621595002675e+33 0.49247926473617554 -2.2525743933300313e+36
v 0.4924868941307068 4.217506470956935e-26 7.266518946222356e-38
v 4.217506470956935e-26 1.8833539642328794e-38 5.287265876347978e-27
v 1.8833539642328794e-38 5.287265876347978e-27 7.266518946222356e-38
v 5.287265876347978e-27 3.3709508059377853e-37 4.217506470956935e-26
v 3.3709508059377853e-37 5.287265876347978e-27 2.4772738089326292e-36
v 4.217506470956935e-26 2.4772738089326292e-36 5.287265876347978e-27
v 3.3978579695620545e-35 4.217506470956935e-26 3.3978579695620545e-35
v 4.217506470956935e-26 1.0716334556198881e-33 5.287265876347978e-27
v 1.0716334556198881e-33 4.217506470956935e-26 6.318140488600521e-32
v 5.287265876347978e-27 6.318140488600521e-32 5.287265876347978e-27
v 5.614302078849344e-30 4.217506470956935e-26 5.614302078849344e-30
v 5.287265876347978e-27 6.384010468414103e-28 4.217506470956935e-26
v 6.384010468414103e-28 4.217506470956935e-26 7.144594273153339e-26
v 5.287265876347978e-27 7.144594273153339e-26 5.287265876347978e-27
v 7.830396639431144e-24 4.217506470956935e-26 7.830396639431144e-24
v 5.287265876347978e-27 8.405220806176151e-22 4.217506470956935e-26
v 8.405220806176151e-22 5.287265876347978e-27 9.682189782728963e-20
v 4.217506470956935e-26 9.682189782728963e-20 4.217506470956935e-26
v 1.1014868558473512e-17 5.287265876347978e-27 1.1014868558473512e-17
v 4.217506470956935e-26 1.2334221668582816e-15 5.287265876347978e-27
v 1.2334221668582816e-15 5.287265876347978e-27 1.3530234604149788e-13
v 4.217506470956935e-26 1.3530234604149788e-13 5.287265876347978e-27
v 1.4489797382777336e-11 4.217506470956935e-26 1.4489797382777336e-11
v 4.217506470956935e-26 1.669668736603569e-09 5.287265876347978e-27
v 1.669668736603569e-09 5.287265876347978e-27 1.5384010509933432e-07
v 4.217506470956935e-26 1.5384010509933432e-07 5.287265876347978e-27
v 9.010603207570966e-06 4.217506470956935e-26 9.010603207570966e-06
v 5.287265876347978e-27 0.00028333996306173503 4.217506470956935e-26
v 0.00028333996306173503 4.217506470956935e-26 0.003760948544368148
v 5.287265876347978e-27 0.003760948544368148 5.287265876347978e-27
v 0.027808306738734245 4.217506470956935e-26 0.027808306738734245
v 5.287265876347978e-27 0.12833498418331146 4.217506470956935e-26
v 0.12833498418331146 5.287265876347978e-27 0.4924792945384979
v 4.217506470956935e-26 0.4924792945384979 1.7981037499429433e-31
v 7.742772089579188e-38 1.7981037499429433e-31 2.0176633773639415e-38
v 4.982929369343308e-32 1.8833539642328794e-38 4.982929369343308e-32
v 7.205390944092193e-38 4.983079832620213e-32 3.32273717045484e-37
v 1.7981037499429433e-31 3.5376322314645394e-37 4.983079832620213e-32
v 2.4207949787954647e-36 1.7981037499429433e-31 2.5927110276032242e-36
v 4.982929369343308e-32 3.281484028830648e-35 1.7981037499429433e-31
v 3.556696643716916e-35 1.7981037499429433e-31 1.1151972762613621e-33
v 4.983079832620213e-32 1.0271527493847728e-33 1.7981037499429433e-31
v 6.59108087290665e-32 4.982929369343308e-32 6.027746364173383e-32
v 4.983079832620213e-32 5.471109187484153e-30 1.7981037499429433e-31
v 5.831739569570663e-30 4.982929369343308e-32 6.341855713791355e-28
v 1.7981037499429433e-31 6.803462602862088e-28 1.7981037499429433e-31
v 8.007608103465125e-26 4.982929369343308e-32 7.416277968911455e-26
v 4.983079832620213e-32 8.734721537627545e-24 1.7981037499429433e-31
v 9.491624109856243e-24 4.983079832620213e-32 1.032948151299933e-21
v 1.7981037499429433e-31 1.1297799817569218e-21 4.982929369343308e-32
v 1.2207943777894152e-19 1.7981037499429433e-31 1.3446067718763524e-19
v 1.7981037499429433e-31 1.5913312204823722e-17 4.983079832620213e-32
v 1.43280900440373e-17 1.7981037499429433e-31 1.8584984947349467e-15
v 4.982929369343308e-32 1.715892133614331e-15 4.983079832620213e-32
v 2.0660641979804856e-13 1.7981037499429433e-31 2.196099069739707e-13
v 4.982929369343308e-32 2.4472533374786387e-11 1.7981037499429433e-31
v 2.613520337646502e-11 1.7981037499429433e-31 3.0404547768370094e-09
v 4.982929369343308e-32 2.8275761732032834e-09 4.983079832620213e-32
v 2.4542711685171525e-07 1.7981037499429433e-31 2.72668302159218e-07
v 4.983079832620213e-32 1.4638119864684995e-05 1.7981037499429433e-31
v 1.5760886526550166e-05 4.982929369343308e-32 0.00046114061842672527
v 1.7981037499429433e-31 0.0004897899343632162 1.7981037499429433e-31
v 0.006864696275442839 4.982929369343308e-32 0.006418138276785612
v 4.983079832620213e-32 0.04641556367278099 1.7981037499429433e-31
v 0.0499870739877224 4.983079832620213e-32 0.2149362415075302
v 1.7981037499429433e-31 0.22922609746456146 4.982929369343308e-32
v 0.8248786330223083 1.7981037499429433e-31 0.8820075392723083
v 1.1198680773504155e-27 0.1340761035680771 1.1198680773504155e-27
v 0.5071906447410583 3.707078875577139e-27 0.4943790137767792
v 3.707078875577139e-27 0.12944506108760834 3.707078875577139e-27
v 0.02796757034957409 1.1198680773504155e-27 0.028545020148158073
v 3.707078875577139e-27 0.00378264463506639 1.1198680773504155e-27
v 0.003854647045955062 3.707078875577139e-27 0.0002861413813661784
v 1.1198680773504155e-27 0.0002951491333078593 1.1198680773504155e-27
v 9.378009963256773e-06 3.707078875577139e-27 9.09628488443559e-06
v 1.1198680773504155e-27 1.595117140595903e-07 3.707078875577139e-27
v 1.5510612172420224e-07 3.707078875577139e-27 1.6785931533647158e-09
v 1.1198680773504155e-27 1.7129265783566439e-09 3.707078875577139e-27
v 1.4551081693736645e-11 1.1198680773504155e-27 1.5087596103025014e-11
v 1.1198680773504155e-27 1.4032263578097476e-13 3.707078875577139e-27
v 1.3612113552215893e-13 3.707078875577139e-27 1.2388973878293334e-15
v 1.1198680773504155e-27 1.2716673984927078e-15 3.707078875577139e-27
v 1.1049173392837312e-17 1.1198680773504155e-27 1.1305189101144924e-17
v 3.707078875577139e-27 9.702869298042789e-20 1.1198680773504155e-27
v 9.902881570158111e-20 1.1198680773504155e-27 8.675895769717543e-22
v 3.707078875577139e-27 8.416465292628044e-22 1.1198680773504155e-27
v 8.084851613019233e-24 3.707078875577139e-27 7.84069600740971e-24
v 3.707078875577139e-27 7.146487539325869e-26 1.1198680773504155e-27
v 7.337391878389354e-26 3.707078875577139e-27 6.380928980503083e-28
v 1.1198680773504155e-27 6.52994973587999e-28 1.1198680773504155e-27
v 5.7246578646627324e-30 3.707078875577139e-27 5.608042806530085e-30
v 3.707078875577139e-27 6.303696014017617e-32 1.1198680773504155e-27
v 6.485907042349878e-32 3.707078875577139e-27 1.0688122691779146e-33
v 1.1198680773504155e-27 1.0973062522418469e-33 3.707078875577139e-27
v 3.388747888343182e-35 1.1198680773504155e-27 3.4777181170210437e-35
v 1.1198680773504155e-27 2.5276914963233664e-36 3.707078875577139e-27
v 2.4721310211477817e-36 3.707078875577139e-27 3.3661294423894908e-37
v 1.1198680773504155e-27 3.435694830729169e-37 3.707078875577139e-27
v 7.260061762898747e-38 1.1198680773504155e-27 7.433975233747943e-38
v 3.707078875577139e-27 1.8833539642328794e-38 1.1198680773504155e-27
v 1.9267964587044916e-38 -2.2525743933300313e+36 0.12833115458488464
v -2.2525743933300313e+36 0.4924868941307068 nan
v 0.4924868941307068 nan 0.12833115458488464
v nan 0.0278087817132473 -2.2526149581492386e+36
v 0.0278087817132473 nan 0.0037610079161822796
v -2.2526149581492386e+36 0.0037610079161822796 nan
v 0.0002833548351190984 -2.2525743933300313e+36 0.0002833548351190984
v -2.2526149581492386e+36 9.010602298076265e-06 nan
v 9.010602298076265e-06 -2.2525743933300313e+36 1.538400908884796e-07
v nan 1.538400908884796e-07 nan
v 1.669697047290697e-09 -2.2526149581492386e+36 1.669697047290697e-09
v nan 1.4490240604625448e-11 -2.2525743933300313e+36
v 1.4490240604625448e-11 -2.2525743933300313e+36 1.3529886304201877e-13
v nan 1.3529886304201877e-13 nan
v 1.2334762710877875e-15 -2.2526149581492386e+36 1.2334762710877875e-15
v nan 1.1015291247766527e-17 -2.2526149581492386e+36
v 1.1015291247766527e-17 nan 9.68235457261662e-20
v -2.2525743933300313e+36 9.68235457261662e-20 -2.2526149581492386e+36
v 8.405608042217306e-22 nan 8.405608042217306e-22
v -2.2525743933300313e+36 7.830395850570239e-24 nan
v 7.830395850570239e-24 nan 7.144909201217845e-26
v -2.2526149581492386e+36 7.144909201217845e-26 nan
v 6.384133246448058e-28 -2.2525743933300313e+36 6.384133246448058e-28
v -2.2525743933300313e+36 5.614397999188371e-30 nan
v 5.614397999188371e-30 nan 6.318591290684062e-32
v -2.2526149581492386e+36 6.318591290684062e-32 nan
v 1.071633363784392e-33 -2.2526149581492386e+36 1.071633363784392e-33
v nan 3.3979311509730554e-35 -2.2525743933300313e+36
v 3.3979311509730554e-35 -2.2525743933300313e+36 2.4773195473145048e-36
v nan 2.4773195473145048e-36 nan
v 3.3710653761002285e-37 -2.2526149581492386e+36 3.3710653761002285e-37
v nan 7.26651838570297e-38 -2.2526149581492386e+36
v 7.26651838570297e-38 nan 1.883461443825093e-38
v -2.2525743933300313e+36 1.883353824103033e-38 7.610552164172826e-30
v 0.12833116948604584 7.610552164172826e-30 0.4924792945384979
v 6.064560200027859e-29 0.4924792945384979 6.064560200027859e-29
v 0.12833116948604584 6.06471427442341e-29 0.027808306738734245
v 7.610552164172826e-30 0.027808306738734245 6.06471427442341e-29
v 0.0037610081490129232 7.610552164172826e-30 0.0037610081490129232
v 6.064560200027859e-29 0.00028333996306173503 7.610552164172826e-30
v 0.00028333996306173503 7.610552164172826e-30 9.010603207570966e-06
v 6.06471427442341e-29 9.010603207570966e-06 7.610552164172826e-30
v 1.5384010509933432e-07 6.064560200027859e-29 1.5384010509933432e-07
v 6.06471427442341e-29 1.6696971583129994e-09 7.610552164172826e-30
v 1.6696971583129994e-09 6.064560200027859e-29 1.4489797382777336e-11
v 7.610552164172826e-30 1.4489797382777336e-11 7.610552164172826e-30
v 1.3529887659454592e-13 6.064560200027859e-29 1.3529887659454592e-13
v 6.06471427442341e-29 1.2334492719125937e-15 7.610552164172826e-30
v 1.2334492719125937e-15 6.06471427442341e-29 1.1014868558473512e-17
v 7.610552164172826e-30 1.1014868558473512e-17 6.064406125632308e-29
v 9.682189782728963e-20 7.610552164172826e-30 9.682189782728963e-20
v 7.610552164172826e-30 8.405220806176151e-22 6.064406125632308e-29
v 8.405220806176151e-22 7.610552164172826e-30 7.830194691039407e-24
v 6.064406125632308e-29 7.830194691039407e-24 6.064406125632308e-29
v 7.144594273153339e-26 7.610552164172826e-30 7.144594273153339e-26
v 6.064406125632308e-29 6.384010468414103e-28 7.610552164172826e-30
v 6.384010468414103e-28 7.610552164172826e-30 5.614302078849344e-30
v 6.064406125632308e-29 5.614302078849344e-30 6.064406125632308e-29
v 6.318140488600521e-32 7.610552164172826e-30 6.318140488600521e-32
v 6.064406125632308e-29 1.0716334556198881e-33 7.610552164172826e-30
v 1.0716334556198881e-33 6.064406125632308e-29 3.3978579695620545e-35
v 7.610552164172826e-30 3.3978579695620545e-35 7.610552164172826e-30
v 2.4772738089326292e-36 6.064406125632308e-29 2.4772738089326292e-36
v 6.064406125632308e-29 3.3709508059377853e-37 7.610552164172826e-30
v 3.3709508059377853e-37 6.064406125632308e-29 7.266518946222356e-38
v 7.610552164172826e-30 7.266518946222356e-38 6.064406125632308e-29
v 1.8833539642328794e-38 7.610552164172826e-30 1.8833539642328794e-38
v 6.316607371966234e+34 1.0445092775244561e+33 1.453039810204387e+37
v 1.0444894704838276e+33 1.453039810204387e+37 4.125434407206005e+32
v 6.316734137026257e+34 4.125434407206005e+32 1.1756034718930994e+32
v 4.125434407206005e+32 1.1756034718930994e+32 1.0445092775244561e+33
v 3.813934051174653e+28 4.125434407206005e+32 3.813934051174653e+28
v 1.0445092775244561e+33 1.0423378135133826e+24 4.125533442409148e+32
v 1.0423193667693089e+24 1.0445092775244561e+33 1.453039810204387e+37
v 1.5981618281887055e+32 6.316607371966234e+34 1.5981865869894912e+32
v 1.1756034718930994e+32 1.5981865869894912e+32 3.813934051174653e+28
v 1.5981865869894912e+32 1.0423193667693089e+24 1.5981865869894912e+32
v 9.336392348902359e+17 4.125434407206005e+32 9.336392348902359e+17
v 1.0445092775244561e+33 9.336216427041915e+17 1.5981865869894912e+32
v 63123484672.0 4.125434407206005e+32 63123484672.0
v 1.0445092775244561e+33 63122436096.0 1.5981865869894912e+32
v 820.6757202148438 1.5981865869894912e+32 820.6600952148438
v 4.125434407206005e+32 820.6757202148438 1.0445092775244561e+33
v 4.358851128927199e-06 4.125434407206005e+32 4.358851128927199e-06
v 1.0445092775244561e+33 2.3909800395539686e-14 1.0445092775244561e+33
v 4.358967544249026e-06 1.5981865869894912e+32 2.3909800395539686e-14
v 4.125434407206005e+32 1.2941901811939566e-22 4.125434407206005e+32
v 1.2942224929366344e-22 1.0445092775244561e+33 6.950590421129651e-31
v 4.125434407206005e+32 6.9504700505081265e-31 1.0445092775244561e+33
v -2.7290840067639557e+38 4.125533055552886e+32 -2.728980160826785e+38
v 1.0445092001532037e+33 2.3909800395539686e-14 1.5981865869894912e+32
v 1.2942224929366344e-22 1.5981865869894912e+32 6.9504700505081265e-31
v 1.5981865869894912e+32 -2.728980160826785e+38 1.5981864902754257e+32
v -7.950438046427806e+21 4.125434020349743e+32 -7.950582161615882e+21
v 1.0445092001532037e+33 -7.950293931239731e+21 1.5981864902754257e+32
v -231104.984375 4.125434020349743e+32 -231108.984375
v 1.0445092001532037e+33 -231104.984375 1.5981864902754257e+32
v -6.7043311006986794e-12 1.5981864902754257e+32 -6.704220078396217e-12
v 4.125434020349743e+32 -6.7043311006986794e-12 1.0445092001532037e+33
v -1.941221707775049e-28 4.125434020349743e+32 -1.9412525226541592e-28
v 1.0445092001532037e+33 6.216569723844667e+26 1.0445092001532037e+33
v -1.941221707775049e-28 1.5981864902754257e+32 6.216569723844667e+26
v 4.125434020349743e+32 1.6284289813484065e-05 4.125434020349743e+32
v 1.6284755474771373e-05 1.0445092001532037e+33 3.7310923083181265e-34
v 4.125434020349743e+32 3.7311510830356677e-34 1.0445092001532037e+33
v -1.0363844633102417 4.125433633493481e+32 -1.0364149808883667
v 1.0445091227819512e+33 6.216191934526037e+26 1.5981864902754257e+32
v 1.6284289813484065e-05 1.5981864902754257e+32 3.7311510830356677e-34
v 1.5981864902754257e+32 -1.0363844633102417 1.5981616347605744e+32
v -2.6839065003058136e-37 4.125433633493481e+32 -2.6839065003058136e-37
v 1.0445091227819512e+33 -2.683849103120715e-37 1.5981616347605744e+32
v 4.201781812567494e-14 1.59818639356136e+32 4.201955284915092e-14
v 4.125433633493481e+32 4.2020420210888906e-14 1.0445091227819512e+33
v -13.306456565856934 4.1254332466372184e+32 -13.307188987731934
v 1.0445288524513273e+33 2.3056878585110207e-34 4.1254332466372184e+32
v 2.305805407946103e-34 1.0445288524513273e+33 -13.305968284606934
v 1.5981615380465088e+32 2.3055703090759385e-34 1.5981615380465088e+32
v 6.316607371966234e+34 1.5981865869894912e+32 1.453039810204387e+37
v 1.5981618281887055e+32 1.453039810204387e+37 1.9210428483031347e+31
v 6.316607371966234e+34 1.9210428483031347e+31 1.1756034718930994e+32
v 1.9210428483031347e+31 1.1756034718930994e+32 1.5981865869894912e+32
v 3.813934051174653e+28 1.9210428483031347e+31 3.813934051174653e+28
v 1.5981865869894912e+32 1.0423193667693089e+24 1.9210428483031347e+31
v 1.0423193667693089e+24 1.5981865869894912e+32 9.336392348902359e+17
v 1.5981865869894912e+32 9.336216427041915e+17 1.9210428483031347e+31
v 63123484672.0 1.5981865869894912e+32 63122436096.0
v 1.9210428483031347e+31 820.6757202148438 1.9210428483031347e+31
v 820.6757202148438 1.5981865869894912e+32 4.358967544249026e-06
v 1.9210428483031347e+31 4.358851128927199e-06 1.5981865869894912e+32
v 2.3909800395539686e-14 1.5981865869894912e+32 2.3909800395539686e-14
v 1.9210428483031347e+31 1.2942224929366344e-22 1.9210428483031347e+31
v 1.2942224929366344e-22 1.5981865869894912e+32 6.9504700505081265e-31
v 1.9210428483031347e+31 6.9504700505081265e-31 1.5981865869894912e+32
v -2.728980160826785e+38 1.9210427274105528e+31 -2.7289282378581997e+38
v 1.5981864902754257e+32 -7.950293931239731e+21 1.5981864902754257e+32
v -7.950293931239731e+21 1.9210427274105528e+31 -231104.984375
v 1.5981864902754257e+32 -231104.984375 1.9210427274105528e+31
v -6.7043311006986794e-12 1.9210427274105528e+31 -6.7043311006986794e-12
v 1.5981864902754257e+32 -1.941221707775049e-28 1.9210427274105528e+31
v -1.941221707775049e-28 1.5981864902754257e+32 6.216191934526037e+26
v 1.5981864902754257e+32 6.216191934526037e+26 1.9210427274105528e+31
v 1.6284289813484065e-05 1.9210427274105528e+31 1.6284289813484065e-05
v 1.5981864902754257e+32 3.7311510830356677e-34 1.9210427274105528e+31
v 3.7310335336005854e-34 1.5981864902754257e+32 -1.0363844633102417
v 1.9210426065179708e+31 -1.0363234281539917 1.59818639356136e+32
v -2.683791705935616e-37 1.59818639356136e+32 -2.683849103120715e-37
v 1.9210426065179708e+31 4.201695076393695e-14 1.9210426065179708e+31
v 4.201695076393695e-14 1.59818639356136e+32 -13.305480003356934
v 1.9210424856253888e+31 -13.306212425231934 1.5981862968472945e+32
v 2.305217660770692e-34 1.9210424856253888e+31 2.3055703090759385e-34
v 1.5981615380465088e+32 -5.092365109504986e+36 2.5685537906789544e+26
v -7.753948458488111e+37 2.5685537906789544e+26 -7.753948458488111e+37
v 2.804804839146047e+25 -5.092365109504986e+36 2.804804839146047e+25
v -2.3220948479336666e+35 2.804804839146047e+25 -2.3220948479336666e+35
v 2.5685537906789544e+26 -4.3058324457183427e+33 2.804804839146047e+25
v -4.3058324457183427e+33 2.5685537906789544e+26 -2.206519558487589e+31
v 2.804745809565011e+25 -2.206519558487589e+31 2.5685537906789544e+26
v -2.1295377067055903e+28 2.5685537906789544e+26 -2.1295377067055903e+28
v 2.804804839146047e+25 -5.951693824969045e+24 2.5685537906789544e+26
v -5.951546251016455e+24 2.804745809565011e+25 -6.878662259169433e+20
v 2.804804839146047e+25 -6.878662259169433e+20 2.5685537906789544e+26
v -5.3658637041664e+16 2.804745809565011e+25 -5.3658637041664e+16
v 2.5685537906789544e+26 -3987625213952.0 2.5685537906789544e+26
v -3987625213952.0 2.804745809565011e+25 -305317856.0
v 2.804804839146047e+25 -305317856.0 2.5685537906789544e+26
v -23943.123046875 2.804804839146047e+25 -23943.123046875
v 2.5685537906789544e+26 -1.7854079008102417 2.804745809565011e+25
v -1.7854079008102417 2.5685537906789544e+26 -0.00013543384557124227
v 2.5685537906789544e+26 -0.00013543384557124227 2.804804839146047e+25
v -1.0679797490809051e-08 2.5685537906789544e+26 -1.0680024864484494e-08
v 2.804745809565011e+25 -7.991974595132623e-13 2.804804839146047e+25
v -7.991974595132623e-13 2.5685537906789544e+26 -6.003472406862452e-17
v 2.804745809565011e+25 -6.003472406862452e-17 2.5685537906789544e+26
v -4.762104231965139e-21 2.5685537906789544e+26 -4.762104231965139e-21
v 2.804745809565011e+25 -5.542504672608554e-25 2.804804839146047e+25
v -5.542504672608554e-25 2.5685537906789544e+26 -1.5103064382980713e-28
v 2.804804839146047e+25 -1.5103064382980713e-28 2.5685537906789544e+26
v -1.4622998085458e-31 2.804745809565011e+25 -1.4622998085458e-31
v 2.5685537906789544e+26 -7.365911629303908e-34 2.5685537906789544e+26
v -7.365911629303908e-34 2.804745809565011e+25 -1.412292034172705e-35
v 2.804804839146047e+25 -1.412292034172705e-35 2.5685537906789544e+26
v -6.22670447842924e-37 2.804804839146047e+25 -6.22670447842924e-37
v 2.5685537906789544e+26 -4.10929737702389e-38 2.804804839146047e+25
v -4.10929737702389e-38 2.5685537906789544e+26 -6.22670447842924e-37
v 4.897611886110654e+32 -4.10929737702389e-38 4.897611886110654e+32
f 2 3 3
f 4 22 1
f 4 5 5
f 6 1 6
f 5 7 7
f 8 6 8
f 7 9 9
f 10 8 11
f 10 9 9
f 12 11 13
f 11 12 12
f 14 13 13
f 14 15 15
f 16 13 16
f 15 17 17
f 18 16 19
f 18 17 17
f 20 19 19
f 20 21 21
f 22 19 22
f 21 23 23
f 24 22 24
f 23 25 25
f 26 24 27
f 26 25 25
f 28 27 29
f 27 28 28
f 30 29 29
f 30 31 31
f 32 29 32
f 31 33 33
f 34 32 35
f 34 33 33
f 36 35 35
f 36 37 37
f 38 35 38
f 37 39 39
f 40 38 40
f 39 41 41
f 42 40 43
f 42 41 41
f 44 43 43
f 44 45 45
f 46 43 46
f 45 47 47
f 48 46 48
f 47 49 49
f 50 48 51
f 52 53 53
f 54 51 51
f 54 55 55
f 56 51 56
f 55 57 57
f 58 56 58
f 57 59 59
f 60 58 61
f 60 59 59
f 62 61 63
f 61 62 62
f 64 63 63
f 64 65 65
f 66 63 66
f 65 67 67
f 68 66 69
f 68 67 67
f 70 69 69
f 70 71 71
f 72 69 72
f 71 73 73
f 74 72 74
f 73 75 75
f 76 74 77
f 76 75 75
f 78 77 79
f 77 78 78
f 80 79 79
f 80 81 81
f 82 79 82
f 81 83 83
f 84 82 85
f 84 83 83
f 86 85 85
f 86 87 87
f 88 85 88
f 87 89 89
f 90 88 90
f 89 91 91
f 92 90 93
f 92 91 91
f 94 93 93
f 94 95 95
f 96 93 96
f 95 97 97
f 98 96 98
f 97 99 99
f 100 98 101
f 102 103 103
f 104 101 101
f 104 105 105
f 106 101 106
f 105 107 107
f 108 106 108
f 107 109 109
f 110 108 111
f 110 109 109
f 112 111 113
f 111 112 112
f 114 113 113
f 114 115 115
f 116 113 116
f 115 117 117
f 118 116 119
f 118 117 117
f 120 119 119
f 120 121 121
f 122 119 122
f 121 123 123
f 124 122 124
f 123 125 125
f 126 124 127
f 126 125 125
f 128 127 129
f 127 1169 61825
f 15741 26219 16
f 52502 1169 61825
f 15741 14187 48
f 13929 25602 35689
f 26671 311 55044
f 17011 17153 16641
f 16641 16641 16641
f 16641 769 35121
f 64816 2080 32513
f 32257 47105 823
f 35121 56864 118
f 117 117 42616
f 35171 56864 118
f 36725 42616 36451
f 36725 36984 36984
f 37240 36451 37237
f 36984 37496 37496
f 37752 37237 37752
f 37496 38008 38008
f 38264 37752 38520
f 38657 38913 38913
f 39169 38520 38401
f 39169 39544 39544
f 39800 38401 39681
f 39544 40056 40056
f 40312 39681 40312
f 40056 40568 40568
f 40824 40312 41080
f 40824 40568 40568
f 41336 41080 41592
f 41080 41336 41336
f 41848 41592 41592
f 41848 42104 42104
f 42360 41592 42360
f 42104 42616 42616
f 42872 42360 43128
f 42872 42616 42616
f 43384 43128 43128
f 43384 43640 43640
f 43896 43128 43896
f 43640 44152 44152
f 44408 43896 44408
f 44152 44664 44664
f 44920 44408 45176
f 44920 44664 44664
f 45432 45176 45688
f 45176 45432 45432
f 45944 45688 45688
f 45944 46200 46200
f 46456 45688 46456
f 46200 46712 46712
f 46968 46456 47224
f 46968 46712 46712
f 47480 47224 47224
f 47480 47736 47736
f 47992 47224 47992
f 47736 48248 48248
f 48504 47992 48504
f 48248 48760 48760
f 49016 48504 49272
f 49016 48760 48760
f 49528 49272 49272
f 49528 49784 49784
f 50040 49272 50040
f 49784 50296 50296
f 50552 50040 50552
f 50296 50808 50808
f 51064 50552 51320
f 51457 51713 51713
f 51969 51320 51201
f 51969 52344 52344
f 52600 51201 52481
f 52344 52856 52856
f 53112 52481 53112
f 52856 53368 53368
f 53624 53112 53880
f 53624 53368 53368
f 54136 53880 54392
f 53880 54136 54136
f 54648 54392 54392
f 54648 54904 54904
f 55160 54392 55160
f 54904 55416 55416
f 55672 55160 55928
f 55672 55416 55416
f 56184 55928 55928
f 56184 56440 56440
f 56696 55928 56696
f 56440 56952 56952
f 57208 56696 57208
f 56952 57464 57464
f 57720 57208 57976
f 57720 57464 57464
f 58232 57976 58488
f 57976 58232 58232
f 58744 58488 58488
f 58744 59000 59000
f 59256 58488 59256
f 59000 59512 59512
f 59768 59256 60024
f 59768 59512 59512
f 60280 60024 60024
f 60280 60536 60536
f 60792 60024 60792
f 60536 61048 61048
f 61304 60792 61304
f 61048 61560 61560
f 61816 61304 62072
f 61816 61560 61560
f 62328 62072 62072
f 62328 62584 62584
f 62840 62072 62840
f 62584 63096 63096
f 63352 62840 63352
f 63096 63608 63608
f 63864 63352 64120
f 64257 64513 64513
f 64769 64120 64001
f 64769 65144 65144
f 65400 64001 65281
f 65144 16504 12
f 258 65282 257
f 2 514 514
f 770 258 1026
f 770 514 514
f 1282 1026 1538
f 1026 1282 1282
f 1794 1538 1538
f 1794 2050 2050
f 2306 1538 2306
f 2050 2562 2562
f 2818 2306 3074
f 2818 2562 2562
f 3330 3074 3074
f 3330 3586 3586
f 3842 3074 3842
f 3586 4098 4098
f 4354 3842 4354
f 4098 4610 4610
f 4866 4354 5122
f 4866 4610 4610
f 5378 5122 5634
f 5122 5378 5378
f 5890 5634 5634
f 5890 6146 6146
f 6402 5634 6402
f 6146 6658 6658
f 6914 6402 7170
f 6914 6658 6658
f 7426 7170 7170
f 7426 7682 7682
f 7938 7170 7938
f 7682 8194 8194
f 8450 7938 8450
f 8194 8706 8706
f 8962 8450 9218
f 8962 8706 8706
f 9474 9218 9218
f 9474 9730 9730
f 9986 9218 9986
f 9730 10242 10242
f 10498 9986 10498
f 10242 10754 10754
f 11010 10498 11266
f 11522 11778 11778
f 12034 11266 11266
f 12034 12290 12290
f 12546 11266 12546
f 12290 12802 12802
f 13058 12546 13058
f 12802 13314 13314
f 13570 13058 12034
f 11778 13826 13826
f 14082 12034 12034
f 14082 14338 14338
f 12290 12034 12290
f 14338 14594 14594
f 12802 12290 13314
f 12802 14594 14594
f 14850 13314 15106
f 13314 14850 13314
f 15106 15362 15362
f 13570 13314 14850
f 15618 15106 15874
f 15106 15618 15106
f 15874 16130 16130
f 15362 15106 15618
f 16386 15874 15874
f 16386 16642 16642
f 16898 15874 16130
f 15874 16898 16898
f 17154 16130 17154
f 16898 17410 17410
f 17666 17154 17922
f 17666 17410 16898
f 16642 18178 18178
f 17410 16898 18434
f 17410 18178 17410
f 18434 17922 17922
f 18434 18690 18690
f 18946 17922 18946
f 18690 19202 19202
f 19458 18946 19458
f 19202 19714 19714
f 19970 19458 18178
f 20226 18434 18434
f 20226 20482 20482
f 18690 18434 18690
f 20482 20738 20738
f 19202 18690 19714
f 19202 20738 20738
f 20994 19714 21250
f 19714 20994 19714
f 21250 21506 21506
f 19970 19714 20994
f 21762 21250 22018
f 21250 21762 21250
f 22018 22274 22274
f 21506 21250 21762
f 22530 22018 22018
f 22530 22786 22786
f 23042 22018 22274
f 22018 23042 23042
f 23298 22274 23298
f 23042 23554 23554
f 23810 23298 24066
f 23810 23554 23042
f 22786 24322 24322
f 23554 23042 24578
f 23554 24322 23554
f 24578 24066 24066
f 24578 24834 24834
f 25090 24066 25090
f 24834 25346 25346
f 25602 25090 25602
f 25346 25858 25858
f 26114 25602 24322
f 26370 24578 24578
f 26370 26626 26626
f 24834 24578 24834
f 26626 26882 26882
f 25346 24834 25346
f 26882 27138 27138
f 25858 25346 27394
f 25858 27138 25858
f 27394 27650 27650
f 26114 25858 27138
f 27906 27394 27394
f 27906 28162 28162
f 28418 27394 27650
f 27394 28418 28418
f 28674 27650 28674
f 28418 28930 28930
f 29186 28674 29186
f 28930 29442 29442
f 29698 29186 28418
f 28162 29954 29954
f 28930 28418 29442
f 28930 29954 29954
f 30210 29442 30466
f 30722 30978 30978
f 31234 30466 30466
f 31234 31490 31490
f 31746 30466 31746
f 31490 32002 32002
f 32258 31746 32258
f 32002 32514 32514
f 32770 32258 33026
f 32770 32514 32514
f 33282 33026 33538
f 33026 33282 33282
f 33794 33538 33538
f 33794 34050 34050
f 34306 33538 34306
f 34050 34562 34562
f 34818 34306 35074
f 34818 34562 34562
f 35330 35074 35074
f 35330 35586 35586
f 35842 35074 35842
f 35586 36098 36098
f 36354 35842 36354
f 36098 36610 36610
f 36866 36354 37122
f 36866 36610 36610
f 37378 37122 37634
f 37122 37378 37378
f 37890 37634 37634
f 37890 38146 38146
f 38402 37634 38402
f 38146 38658 38658
f 38914 38402 39170
f 38914 38658 38658
f 39426 39170 39170
f 39426 39682 39682
f 39938 39170 39938
f 39682 40194 40194
f 40450 39938 40450
f 40194 40706 40706
f 40962 40450 41218
f 40962 40706 40706
f 41474 41218 41218
f 41474 41730 41730
f 41986 41218 41986
f 41730 42242 42242
f 42498 41986 42498
f 42242 42754 42754
f 43010 42498 43266
f 43522 43778 43778
f 44034 43266 43266
f 44034 44290 44290
f 44546 43266 44546
f 44290 44802 44802
f 45058 44546 45058
f 44802 45314 45314
f 45570 45058 45826
f 45570 45314 45314
f 46082 45826 46338
f 45826 46082 46082
f 46594 46338 46338
f 46594 46850 46850
f 47106 46338 47106
f 46850 47362 47362
f 47618 47106 47874
f 47618 47362 47362
f 48130 47874 47874
f 48130 48386 48386
f 48642 47874 48642
f 48386 48898 48898
f 49154 48642 49154
f 48898 49410 49410
f 49666 49154 49922
f 49666 49410 49410
f 50178 49922 50434
f 49922 50178 50178
f 50690 50434 50434
f 50690 50946 50946
f 51202 50434 51202
f 50946 51458 51458
f 51714 51202 51970
f 51714 51458 51458
f 52226 51970 51970
f 52226 52482 52482
f 52738 51970 52738
f 52482 52994 52994
f 53250 52738 53250
f 52994 53506 53506
f 53762 53250 54018
f 53762 53506 53506
f 54274 54018 54018
f 54274 54530 54530
f 54786 54018 54786
f 54530 55042 55042
f 55298 54786 55298
f 55042 55554 55554
f 55810 55298 56066
f 56322 56578 56578
f 56834 56066 56066
f 56834 57090 57090
f 57346 56066 57346
f 57090 57602 57602
f 57858 57346 57858
f 57602 58114 58114
f 58370 57858 58626
f 58370 58114 58114
f 58882 58626 59138
f 58626 58882 58882
f 59394 59138 59138
f 59394 59650 59650
f 59906 59138 59906
f 59650 60162 60162
f 60418 59906 60674
f 60418 60162 60162
f 60930 60674 60674
f 60930 61186 61186
f 61442 60674 61442
f 61186 61698 61698
f 61954 61442 61954
f 61698 62210 62210
f 62466 61954 62722
f 62466 62210 62210
f 62978 62722 63234
f 62722 62978 62978
f 63490 63234 63234
f 63490 63746 63746
f 64002 63234 64002
f 63746 64258 64258
f 64514 64002 64770
f 64514 64258 64258
f 65026 64770 64770
f 65026 65282 65282
f 2 64771 2
f 65283 258 259
f 515 22 513
f 259 771 771
f 45571 55813 1283
f 45571 773 771
f 1539 1283 1283
f 1539 1795 1795
f 2051 1283 2051
f 1795 2307 2307
f 2563 2051 2563
f 2307 2819 2819
f 3075 2563 3331
f 3587 3843 3843
f 4099 3331 3331
f 4099 4355 4355
f 4611 3331 4611
f 4355 4867 4867
f 5123 4611 5123
f 4867 5379 5379
f 5635 5123 5891
f 5635 5379 5379
f 6147 5891 6403
f 5891 6147 6147
f 6659 6403 6403
f 6659 6915 6915
f 7171 6403 7171
f 6915 7427 7427
f 7683 7171 7939
f 7683 7427 7427
f 8195 7939 7939
f 8195 8451 8451
f 8707 7939 8707
f 8451 8963 8963
f 9219 8707 9219
f 8963 9475 9475
f 9731 9219 9987
f 9731 9475 9475
f 10243 9987 10499
f 9987 10243 10243
f 10755 10499 10499
f 10755 11011 11011
f 11267 10499 11267
f 11011 11523 11523
f 11779 11267 12035
f 11779 11523 11523
f 12291 12035 12035
f 12291 12547 12547
f 12803 12035 12803
f 12547 13059 13059
f 13315 12803 13315
f 13059 13571 13571
f 13827 13315 14083
f 13827 13571 13571
f 14339 14083 14083
f 14339 14595 14595
f 14851 14083 14851
f 14595 15107 15107
f 15363 14851 15363
f 15107 15619 15619
f 15875 15363 16131
f 16387 16643 16643
f 16899 16131 16131
f 16899 17155 17155
f 17411 16131 17411
f 17155 17667 17667
f 17923 17411 17923
f 17667 18179 18179
f 18435 17923 18691
f 18435 18179 18179
f 18947 18691 19203
f 18691 18947 18947
f 19459 19203 19203
f 19459 19715 19715
f 19971 19203 19971
f 19715 20227 20227
f 20483 19971 20739
f 20483 20227 20227
f 20995 20739 20739
f 20995 21251 21251
f 21507 20739 21507
f 21251 21763 21763
f 22019 21507 22019
f 21763 22275 22275
f 22531 22019 22787
f 22531 22275 22275
f 23043 22787 23299
f 22787 23043 23043
f 23555 23299 23299
f 23555 23811 23811
f 24067 23299 24067
f 23811 24323 24323
f 24579 24067 24835
f 24579 24323 24323
f 25091 24835 24835
f 25091 25347 25347
f 25603 24835 25603
f 25347 25859 25859
f 26115 25603 26115
f 25859 26371 26371
f 26627 26115 26883
f 26627 26371 26371
f 27139 26883 26883
f 27139 27395 27395
f 27651 26883 27651
f 27395 27907 27907
f 28163 27651 28163
f 27907 28419 28419
f 28675 28163 28931
f 29187 29443 29443
f 29699 28931 28931
f 29699 29955 29955
f 30211 28931 30211
f 29955 30467 30467
f 30723 30211 30723
f 30467 30979 30979
f 31235 30723 31491
f 31235 30979 30979
f 31747 31491 32003
f 31491 31747 31747
f 32259 32003 32003
f 32259 32515 32515
f 32771 32003 32771
f 32515 33027 33027
f 33283 32771 33539
f 33283 33027 33027
f 33795 33539 33539
f 33795 34051 34051
f 34307 33539 34307
f 34051 34563 34563
f 34819 34307 34819
f 34563 35075 35075
f 35331 34819 35587
f 35331 35075 35075
f 35843 35587 36099
f 35587 35843 35843
f 36355 36099 36099
f 36355 36611 36611
f 36867 36099 36867
f 36611 37123 37123
f 37379 36867 37635
f 37379 37123 37123
f 37891 37635 37635
f 37891 38147 38147
f 38403 37635 38403
f 38147 38659 38659
f 38915 38403 38915
f 38659 39171 39171
f 39427 38915 39683
f 39427 39171 39171
f 39939 39683 39683
f 39939 40195 40195
f 40451 39683 40451
f 40195 40707 40707
f 40963 40451 40963
f 40707 41219 41219
f 41475 40963 41731
f 41987 42243 42243
f 42499 41731 41731
f 42499 42755 42755
f 43011 41731 43011
f 42755 43267 43267
f 43523 43011 43523
f 43267 43779 43779
f 44035 43523 44291
f 44035 43779 43779
f 44547 44291 44803
f 44291 44547 44547
f 45059 44803 44803
f 45059 45315 45315
f 45571 44803 45571
f 45315 45827 45827
f 46083 45571 46339
f 46083 45827 45827
f 46595 46339 46339
f 46595 46851 46851
f 47107 46339 47107
f 46851 47363 47363
f 47619 47107 47619
f 47363 47875 47875
f 48131 47619 48387
f 48131 47875 47875
f 48643 48387 48899
f 48387 48643 48643
f 49155 48899 48899
f 49155 49411 49411
f 49667 48899 49667
f 49411 49923 49923
f 50179 49667 50435
f 50179 49923 49923
f 50691 50435 50435
f 50691 50947 50947
f 51203 50435 51203
f 50947 51459 51459
f 51715 51203 51715
f 51459 51971 51971
f 52227 51715 52483
f 52227 51971 51971
f 52739 52483 52483
f 52739 52995 52995
f 53251 52483 53251
f 52995 53507 53507
f 53763 53251 53763
f 53507 54019 54019
f 54275 53763 54531
f 54787 55043 55043
f 55299 54531 54531
f 55299 55555 55555
f 55811 54531 55811
f 55555 56067 56067
f 56323 55811 56323
f 56067 56579 56579
f 56835 56323 55299
f 55043 57091 57091
f 57347 55299 55299
f 57347 57603 57603
f 55555 55299 55555
f 57603 57859 57859
f 56067 55555 56579
f 56067 57859 57859
f 58115 56579 58371
f 56579 58115 56579
f 58371 58627 58627
f 56835 56579 58115
f 58883 58371 59139
f 58371 58883 58371
f 59139 59395 59395
f 58627 58371 58883
f 59651 59139 59139
f 59651 59907 59907
f 60163 59139 59395
f 59139 60163 60163
f 60419 59395 60419
f 60163 60675 60675
f 60931 60419 61187
f 60931 60675 60163
f 59907 61443 61443
f 60675 60163 61699
f 60675 61443 60675
f 61699 61187 61187
f 61699 61955 61955
f 62211 61187 62211
f 61955 62467 62467
f 62723 62211 62723
f 62467 62979 62979
f 63235 62723 61443
f 63491 61699 61699
f 63491 63747 63747
f 61955 61699 61955
f 63747 64003 64003
f 62467 61955 62979
f 62467 64003 64003
f 64259 62979 64515
f 62979 64259 62979
f 64515 64771 64771
f 63235 62979 64259
f 65027 64515 65283
f 64515 65027 64515
f 65283 3 4
f 64772 64515 65027
f 259 65284 65283
f 259 516 516
f 772 65284 3
f 65284 771 772
f 1028 4 1028
f 772 1284 1284
f 1540 1028 1796
f 1540 1284 772
f 516 2052 2052
f 1284 772 2308
f 1284 2052 1284
f 2308 1796 1796
f 2308 2564 2564
f 2820 1796 2820
f 2564 3076 3076
f 3332 2820 3332
f 3076 3588 3588
f 3844 3332 2052
f 4100 2308 2308
f 4100 4356 4356
f 2564 2308 2564
f 4356 4612 4612
f 3076 2564 3076
f 4612 4868 4868
f 3588 3076 5124
f 3588 4868 3588
f 5124 5380 5380
f 3844 3588 4868
f 5636 5124 5124
f 5636 5892 5892
f 6148 5124 5380
f 5124 6148 6148
f 6404 5380 6404
f 6148 6660 6660
f 6916 6404 6916
f 6660 7172 7172
f 7428 6916 6148
f 5892 7684 7684
f 6660 6148 7172
f 6660 7684 7684
f 7940 7172 8196
f 8452 8708 8708
f 8964 8196 8196
f 8964 9220 9220
f 9476 8196 9476
f 9220 9732 9732
f 9988 9476 9988
f 9732 10244 10244
f 10500 9988 10756
f 10500 10244 10244
f 11012 10756 11268
f 10756 11012 11012
f 11524 11268 11268
f 11524 11780 11780
f 12036 11268 12036
f 11780 12292 12292
f 12548 12036 12804
f 12548 12292 12292
f 13060 12804 12804
f 13060 13316 13316
f 13572 12804 13572
f 13316 13828 13828
f 14084 13572 14084
f 13828 14340 14340
f 14596 14084 14852
f 14596 14340 14340
f 15108 14852 15364
f 14852 15108 15108
f 15620 15364 15364
f 15620 15876 15876
f 16132 15364 16132
f 15876 16388 16388
f 16644 16132 16900
f 16644 16388 16388
f 17156 16900 16900
f 17156 17412 17412
f 17668 16900 17668
f 17412 17924 17924
f 18180 17668 18180
f 17924 18436 18436
f 18692 18180 18948
f 18692 18436 18436
f 19204 18948 18948
f 19204 19460 19460
f 19716 18948 19716
f 19460 19972 19972
f 20228 19716 20228
f 19972 20484 20484
f 20740 20228 20996
f 21252 21508 21508
f 21764 20996 20996
f 21764 22020 22020
f 22276 20996 22276
f 22020 22532 22532
f 22788 22276 22788
f 22532 23044 23044
f 23300 22788 23556
f 23300 23044 23044
f 23812 23556 24068
f 23556 23812 23812
f 24324 24068 24068
f 24324 24580 24580
f 24836 24068 24836
f 24580 25092 25092
f 25348 24836 25604
f 25348 25092 25092
f 25860 25604 25604
f 25860 26116 26116
f 26372 25604 26372
f 26116 26628 26628
f 26884 26372 26884
f 26628 27140 27140
f 27396 26884 27652
f 27396 27140 27140
f 27908 27652 28164
f 27652 27908 27908
f 28420 28164 28164
f 28420 28676 28676
f 28932 28164 28932
f 28676 29188 29188
f 29444 28932 29700
f 29444 29188 29188
f 29956 29700 29700
f 29956 30212 30212
f 30468 29700 30468
f 30212 30724 30724
f 30980 30468 30980
f 30724 31236 31236
f 31492 30980 31748
f 31492 31236 31236
f 32004 31748 31748
f 32004 32260 32260
f 32516 31748 32516
f 32260 32772 32772
f 33028 32516 33028
f 32772 33284 33284
f 33540 33028 33796
f 34052 34308 34308
f 34564 33796 33796
f 34564 34820 34820
f 35076 33796 35076
f 34820 35332 35332
f 35588 35076 35588
f 35332 35844 35844
f 36100 35588 36356
f 36100 35844 35844
f 36612 36356 36868
f 36356 36612 36612
f 37124 36868 36868
f 37124 37380 37380
f 37636 36868 37636
f 37380 37892 37892
f 38148 37636 38404
f 38148 37892 37892
f 38660 38404 38404
f 38660 38916 38916
f 39172 38404 39172
f 38916 39428 39428
f 39684 39172 39684
f 39428 39940 39940
f 40196 39684 40452
f 40196 39940 39940
f 40708 40452 40964
f 40452 40708 40708
f 41220 40964 40964
f 41220 41476 41476
f 41732 40964 41732
f 41476 41988 41988
f 42244 41732 42500
f 42244 41988 41988
f 42756 42500 42500
f 42756 43012 43012
f 43268 42500 43268
f 43012 43524 43524
f 43780 43268 43780
f 43524 44036 44036
f 44292 43780 44548
f 44292 44036 44036
f 44804 44548 44548
f 44804 45060 45060
f 45316 44548 45316
f 45060 45572 45572
f 45828 45316 45828
f 45572 46084 46084
f 46340 45828 260
f 51935 507 51935
